M48
; DRILL file {KiCad 9.0.2} date 2026-04-13T23:08:26-0700
; FORMAT={-:-/ absolute / metric / decimal}
; #@! TF.CreationDate,2026-04-13T23:08:26-07:00
; #@! TF.GenerationSoftware,Kicad,Pcbnew,9.0.2
; #@! TF.FileFunction,Plated,1,2,PTH
FMAT,2
METRIC
; #@! TA.AperFunction,Plated,PTH,ViaDrill
T1C0.300
; #@! TA.AperFunction,Plated,PTH,ComponentDrill
T2C0.787
; #@! TA.AperFunction,Plated,PTH,ComponentDrill
T3C0.800
; #@! TA.AperFunction,Plated,PTH,ComponentDrill
T4C0.850
; #@! TA.AperFunction,Plated,PTH,ComponentDrill
T5C0.900
; #@! TA.AperFunction,Plated,PTH,ComponentDrill
T6C1.000
%
G90
G05
T1
X133.2Y-101.5
X142.1Y-104.6
T2
X131.7Y-84.9
X131.7Y-87.44
X131.7Y-89.98
X131.7Y-92.52
X131.7Y-95.06
X131.7Y-97.6
X131.7Y-100.14
X131.7Y-102.68
X139.32Y-84.9
X139.32Y-87.44
X139.32Y-89.98
X139.32Y-92.52
X139.32Y-95.06
X139.32Y-97.6
X139.32Y-100.14
X139.32Y-102.68
T3
X115.91Y-92.88
X115.91Y-100.5
X120.905Y-92.98
X120.905Y-95.52
X120.905Y-98.06
X120.905Y-100.6
X128.525Y-92.98
X128.525Y-95.52
X128.525Y-98.06
X128.525Y-100.6
X131.8Y-105.99
X134.655Y-113.89
X136.655Y-113.89
X139.42Y-105.99
T4
X122.23Y-86.39
X124.77Y-86.39
X127.31Y-86.39
T5
X123.43Y-66.3
X125.97Y-66.3
X142.16Y-108.7
X144.7Y-108.7
X147.66Y-113.9
X148.36Y-103.3
X150.2Y-113.9
X150.9Y-103.3
X155.76Y-100.4
X155.8Y-115.1
X158.3Y-100.4
X158.34Y-115.1
X163.36Y-98.6
X163.7Y-111.6
X165.9Y-98.6
X166.24Y-111.6
X169.93Y-106.0
X171.46Y-97.1
X172.47Y-106.0
X174.0Y-97.1
T6
X115.91Y-106.39
X115.91Y-108.93
X121.91Y-106.19
X126.91Y-106.19
X143.3Y-91.4
M30
