%TF.GenerationSoftware,KiCad,Pcbnew,9.0.2*%
%TF.CreationDate,2026-04-13T23:08:23-07:00*%
%TF.ProjectId,blinkyboard,626c696e-6b79-4626-9f61-72642e6b6963,rev?*%
%TF.SameCoordinates,Original*%
%TF.FileFunction,Legend,Bot*%
%TF.FilePolarity,Positive*%
%FSLAX46Y46*%
G04 Gerber Fmt 4.6, Leading zero omitted, Abs format (unit mm)*
G04 Created by KiCad (PCBNEW 9.0.2) date 2026-04-13 23:08:23*
%MOMM*%
%LPD*%
G01*
G04 APERTURE LIST*
%ADD10C,0.100000*%
G04 APERTURE END LIST*
D10*
X150096115Y-134172419D02*
X150096115Y-133505752D01*
X150096115Y-133172419D02*
X150143734Y-133220038D01*
X150143734Y-133220038D02*
X150096115Y-133267657D01*
X150096115Y-133267657D02*
X150048496Y-133220038D01*
X150048496Y-133220038D02*
X150096115Y-133172419D01*
X150096115Y-133172419D02*
X150096115Y-133267657D01*
X149762782Y-133505752D02*
X149381830Y-133505752D01*
X149619925Y-133172419D02*
X149619925Y-134029561D01*
X149619925Y-134029561D02*
X149572306Y-134124800D01*
X149572306Y-134124800D02*
X149477068Y-134172419D01*
X149477068Y-134172419D02*
X149381830Y-134172419D01*
X149000877Y-133172419D02*
X149096115Y-133362895D01*
X148619925Y-134124800D02*
X148524687Y-134172419D01*
X148524687Y-134172419D02*
X148334211Y-134172419D01*
X148334211Y-134172419D02*
X148238973Y-134124800D01*
X148238973Y-134124800D02*
X148191354Y-134029561D01*
X148191354Y-134029561D02*
X148191354Y-133981942D01*
X148191354Y-133981942D02*
X148238973Y-133886704D01*
X148238973Y-133886704D02*
X148334211Y-133839085D01*
X148334211Y-133839085D02*
X148477068Y-133839085D01*
X148477068Y-133839085D02*
X148572306Y-133791466D01*
X148572306Y-133791466D02*
X148619925Y-133696228D01*
X148619925Y-133696228D02*
X148619925Y-133648609D01*
X148619925Y-133648609D02*
X148572306Y-133553371D01*
X148572306Y-133553371D02*
X148477068Y-133505752D01*
X148477068Y-133505752D02*
X148334211Y-133505752D01*
X148334211Y-133505752D02*
X148238973Y-133553371D01*
X146572306Y-134172419D02*
X146572306Y-133648609D01*
X146572306Y-133648609D02*
X146619925Y-133553371D01*
X146619925Y-133553371D02*
X146715163Y-133505752D01*
X146715163Y-133505752D02*
X146905639Y-133505752D01*
X146905639Y-133505752D02*
X147000877Y-133553371D01*
X146572306Y-134124800D02*
X146667544Y-134172419D01*
X146667544Y-134172419D02*
X146905639Y-134172419D01*
X146905639Y-134172419D02*
X147000877Y-134124800D01*
X147000877Y-134124800D02*
X147048496Y-134029561D01*
X147048496Y-134029561D02*
X147048496Y-133934323D01*
X147048496Y-133934323D02*
X147000877Y-133839085D01*
X147000877Y-133839085D02*
X146905639Y-133791466D01*
X146905639Y-133791466D02*
X146667544Y-133791466D01*
X146667544Y-133791466D02*
X146572306Y-133743847D01*
X144905639Y-134172419D02*
X144905639Y-133172419D01*
X144905639Y-134124800D02*
X145000877Y-134172419D01*
X145000877Y-134172419D02*
X145191353Y-134172419D01*
X145191353Y-134172419D02*
X145286591Y-134124800D01*
X145286591Y-134124800D02*
X145334210Y-134077180D01*
X145334210Y-134077180D02*
X145381829Y-133981942D01*
X145381829Y-133981942D02*
X145381829Y-133696228D01*
X145381829Y-133696228D02*
X145334210Y-133600990D01*
X145334210Y-133600990D02*
X145286591Y-133553371D01*
X145286591Y-133553371D02*
X145191353Y-133505752D01*
X145191353Y-133505752D02*
X145000877Y-133505752D01*
X145000877Y-133505752D02*
X144905639Y-133553371D01*
X144000877Y-133505752D02*
X144000877Y-134172419D01*
X144429448Y-133505752D02*
X144429448Y-134029561D01*
X144429448Y-134029561D02*
X144381829Y-134124800D01*
X144381829Y-134124800D02*
X144286591Y-134172419D01*
X144286591Y-134172419D02*
X144143734Y-134172419D01*
X144143734Y-134172419D02*
X144048496Y-134124800D01*
X144048496Y-134124800D02*
X144000877Y-134077180D01*
X143096115Y-134124800D02*
X143191353Y-134172419D01*
X143191353Y-134172419D02*
X143381829Y-134172419D01*
X143381829Y-134172419D02*
X143477067Y-134124800D01*
X143477067Y-134124800D02*
X143524686Y-134077180D01*
X143524686Y-134077180D02*
X143572305Y-133981942D01*
X143572305Y-133981942D02*
X143572305Y-133696228D01*
X143572305Y-133696228D02*
X143524686Y-133600990D01*
X143524686Y-133600990D02*
X143477067Y-133553371D01*
X143477067Y-133553371D02*
X143381829Y-133505752D01*
X143381829Y-133505752D02*
X143191353Y-133505752D01*
X143191353Y-133505752D02*
X143096115Y-133553371D01*
X142667543Y-134172419D02*
X142667543Y-133172419D01*
X142572305Y-133791466D02*
X142286591Y-134172419D01*
X142286591Y-133505752D02*
X142667543Y-133886704D01*
X141858019Y-134077180D02*
X141810400Y-134124800D01*
X141810400Y-134124800D02*
X141858019Y-134172419D01*
X141858019Y-134172419D02*
X141905638Y-134124800D01*
X141905638Y-134124800D02*
X141858019Y-134077180D01*
X141858019Y-134077180D02*
X141858019Y-134172419D01*
X141858019Y-133791466D02*
X141905638Y-133220038D01*
X141905638Y-133220038D02*
X141858019Y-133172419D01*
X141858019Y-133172419D02*
X141810400Y-133220038D01*
X141810400Y-133220038D02*
X141858019Y-133791466D01*
X141858019Y-133791466D02*
X141858019Y-133172419D01*
M02*
