%TF.GenerationSoftware,KiCad,Pcbnew,9.0.2*%
%TF.CreationDate,2026-04-13T23:08:23-07:00*%
%TF.ProjectId,blinkyboard,626c696e-6b79-4626-9f61-72642e6b6963,rev?*%
%TF.SameCoordinates,Original*%
%TF.FileFunction,Legend,Top*%
%TF.FilePolarity,Positive*%
%FSLAX46Y46*%
G04 Gerber Fmt 4.6, Leading zero omitted, Abs format (unit mm)*
G04 Created by KiCad (PCBNEW 9.0.2) date 2026-04-13 23:08:23*
%MOMM*%
%LPD*%
G01*
G04 APERTURE LIST*
%ADD10C,0.150000*%
%ADD11C,0.120000*%
%ADD12C,0.152400*%
G04 APERTURE END LIST*
D10*
X135488221Y-110499580D02*
X135440602Y-110547200D01*
X135440602Y-110547200D02*
X135297745Y-110594819D01*
X135297745Y-110594819D02*
X135202507Y-110594819D01*
X135202507Y-110594819D02*
X135059650Y-110547200D01*
X135059650Y-110547200D02*
X134964412Y-110451961D01*
X134964412Y-110451961D02*
X134916793Y-110356723D01*
X134916793Y-110356723D02*
X134869174Y-110166247D01*
X134869174Y-110166247D02*
X134869174Y-110023390D01*
X134869174Y-110023390D02*
X134916793Y-109832914D01*
X134916793Y-109832914D02*
X134964412Y-109737676D01*
X134964412Y-109737676D02*
X135059650Y-109642438D01*
X135059650Y-109642438D02*
X135202507Y-109594819D01*
X135202507Y-109594819D02*
X135297745Y-109594819D01*
X135297745Y-109594819D02*
X135440602Y-109642438D01*
X135440602Y-109642438D02*
X135488221Y-109690057D01*
X136440602Y-110594819D02*
X135869174Y-110594819D01*
X136154888Y-110594819D02*
X136154888Y-109594819D01*
X136154888Y-109594819D02*
X136059650Y-109737676D01*
X136059650Y-109737676D02*
X135964412Y-109832914D01*
X135964412Y-109832914D02*
X135869174Y-109880533D01*
X124174761Y-83344819D02*
X123841428Y-82868628D01*
X123603333Y-83344819D02*
X123603333Y-82344819D01*
X123603333Y-82344819D02*
X123984285Y-82344819D01*
X123984285Y-82344819D02*
X124079523Y-82392438D01*
X124079523Y-82392438D02*
X124127142Y-82440057D01*
X124127142Y-82440057D02*
X124174761Y-82535295D01*
X124174761Y-82535295D02*
X124174761Y-82678152D01*
X124174761Y-82678152D02*
X124127142Y-82773390D01*
X124127142Y-82773390D02*
X124079523Y-82821009D01*
X124079523Y-82821009D02*
X123984285Y-82868628D01*
X123984285Y-82868628D02*
X123603333Y-82868628D01*
X124460476Y-82344819D02*
X124793809Y-83344819D01*
X124793809Y-83344819D02*
X125127142Y-82344819D01*
X125984285Y-83344819D02*
X125412857Y-83344819D01*
X125698571Y-83344819D02*
X125698571Y-82344819D01*
X125698571Y-82344819D02*
X125603333Y-82487676D01*
X125603333Y-82487676D02*
X125508095Y-82582914D01*
X125508095Y-82582914D02*
X125412857Y-82630533D01*
X134748095Y-93244819D02*
X134748095Y-94054342D01*
X134748095Y-94054342D02*
X134795714Y-94149580D01*
X134795714Y-94149580D02*
X134843333Y-94197200D01*
X134843333Y-94197200D02*
X134938571Y-94244819D01*
X134938571Y-94244819D02*
X135129047Y-94244819D01*
X135129047Y-94244819D02*
X135224285Y-94197200D01*
X135224285Y-94197200D02*
X135271904Y-94149580D01*
X135271904Y-94149580D02*
X135319523Y-94054342D01*
X135319523Y-94054342D02*
X135319523Y-93244819D01*
X135748095Y-93340057D02*
X135795714Y-93292438D01*
X135795714Y-93292438D02*
X135890952Y-93244819D01*
X135890952Y-93244819D02*
X136129047Y-93244819D01*
X136129047Y-93244819D02*
X136224285Y-93292438D01*
X136224285Y-93292438D02*
X136271904Y-93340057D01*
X136271904Y-93340057D02*
X136319523Y-93435295D01*
X136319523Y-93435295D02*
X136319523Y-93530533D01*
X136319523Y-93530533D02*
X136271904Y-93673390D01*
X136271904Y-93673390D02*
X135700476Y-94244819D01*
X135700476Y-94244819D02*
X136319523Y-94244819D01*
X115576666Y-103464819D02*
X115576666Y-104179104D01*
X115576666Y-104179104D02*
X115529047Y-104321961D01*
X115529047Y-104321961D02*
X115433809Y-104417200D01*
X115433809Y-104417200D02*
X115290952Y-104464819D01*
X115290952Y-104464819D02*
X115195714Y-104464819D01*
X116576666Y-104464819D02*
X116005238Y-104464819D01*
X116290952Y-104464819D02*
X116290952Y-103464819D01*
X116290952Y-103464819D02*
X116195714Y-103607676D01*
X116195714Y-103607676D02*
X116100476Y-103702914D01*
X116100476Y-103702914D02*
X116005238Y-103750533D01*
X123953095Y-90104819D02*
X123953095Y-90914342D01*
X123953095Y-90914342D02*
X124000714Y-91009580D01*
X124000714Y-91009580D02*
X124048333Y-91057200D01*
X124048333Y-91057200D02*
X124143571Y-91104819D01*
X124143571Y-91104819D02*
X124334047Y-91104819D01*
X124334047Y-91104819D02*
X124429285Y-91057200D01*
X124429285Y-91057200D02*
X124476904Y-91009580D01*
X124476904Y-91009580D02*
X124524523Y-90914342D01*
X124524523Y-90914342D02*
X124524523Y-90104819D01*
X125524523Y-91104819D02*
X124953095Y-91104819D01*
X125238809Y-91104819D02*
X125238809Y-90104819D01*
X125238809Y-90104819D02*
X125143571Y-90247676D01*
X125143571Y-90247676D02*
X125048333Y-90342914D01*
X125048333Y-90342914D02*
X124953095Y-90390533D01*
X113994819Y-96856666D02*
X113518628Y-97189999D01*
X113994819Y-97428094D02*
X112994819Y-97428094D01*
X112994819Y-97428094D02*
X112994819Y-97047142D01*
X112994819Y-97047142D02*
X113042438Y-96951904D01*
X113042438Y-96951904D02*
X113090057Y-96904285D01*
X113090057Y-96904285D02*
X113185295Y-96856666D01*
X113185295Y-96856666D02*
X113328152Y-96856666D01*
X113328152Y-96856666D02*
X113423390Y-96904285D01*
X113423390Y-96904285D02*
X113471009Y-96951904D01*
X113471009Y-96951904D02*
X113518628Y-97047142D01*
X113518628Y-97047142D02*
X113518628Y-97428094D01*
X113994819Y-95904285D02*
X113994819Y-96475713D01*
X113994819Y-96189999D02*
X112994819Y-96189999D01*
X112994819Y-96189999D02*
X113137676Y-96285237D01*
X113137676Y-96285237D02*
X113232914Y-96380475D01*
X113232914Y-96380475D02*
X113280533Y-96475713D01*
X124243333Y-104049580D02*
X124195714Y-104097200D01*
X124195714Y-104097200D02*
X124052857Y-104144819D01*
X124052857Y-104144819D02*
X123957619Y-104144819D01*
X123957619Y-104144819D02*
X123814762Y-104097200D01*
X123814762Y-104097200D02*
X123719524Y-104001961D01*
X123719524Y-104001961D02*
X123671905Y-103906723D01*
X123671905Y-103906723D02*
X123624286Y-103716247D01*
X123624286Y-103716247D02*
X123624286Y-103573390D01*
X123624286Y-103573390D02*
X123671905Y-103382914D01*
X123671905Y-103382914D02*
X123719524Y-103287676D01*
X123719524Y-103287676D02*
X123814762Y-103192438D01*
X123814762Y-103192438D02*
X123957619Y-103144819D01*
X123957619Y-103144819D02*
X124052857Y-103144819D01*
X124052857Y-103144819D02*
X124195714Y-103192438D01*
X124195714Y-103192438D02*
X124243333Y-103240057D01*
X124624286Y-103240057D02*
X124671905Y-103192438D01*
X124671905Y-103192438D02*
X124767143Y-103144819D01*
X124767143Y-103144819D02*
X125005238Y-103144819D01*
X125005238Y-103144819D02*
X125100476Y-103192438D01*
X125100476Y-103192438D02*
X125148095Y-103240057D01*
X125148095Y-103240057D02*
X125195714Y-103335295D01*
X125195714Y-103335295D02*
X125195714Y-103430533D01*
X125195714Y-103430533D02*
X125148095Y-103573390D01*
X125148095Y-103573390D02*
X124576667Y-104144819D01*
X124576667Y-104144819D02*
X125195714Y-104144819D01*
X131833333Y-108754819D02*
X131500000Y-108278628D01*
X131261905Y-108754819D02*
X131261905Y-107754819D01*
X131261905Y-107754819D02*
X131642857Y-107754819D01*
X131642857Y-107754819D02*
X131738095Y-107802438D01*
X131738095Y-107802438D02*
X131785714Y-107850057D01*
X131785714Y-107850057D02*
X131833333Y-107945295D01*
X131833333Y-107945295D02*
X131833333Y-108088152D01*
X131833333Y-108088152D02*
X131785714Y-108183390D01*
X131785714Y-108183390D02*
X131738095Y-108231009D01*
X131738095Y-108231009D02*
X131642857Y-108278628D01*
X131642857Y-108278628D02*
X131261905Y-108278628D01*
X132214286Y-107850057D02*
X132261905Y-107802438D01*
X132261905Y-107802438D02*
X132357143Y-107754819D01*
X132357143Y-107754819D02*
X132595238Y-107754819D01*
X132595238Y-107754819D02*
X132690476Y-107802438D01*
X132690476Y-107802438D02*
X132738095Y-107850057D01*
X132738095Y-107850057D02*
X132785714Y-107945295D01*
X132785714Y-107945295D02*
X132785714Y-108040533D01*
X132785714Y-108040533D02*
X132738095Y-108183390D01*
X132738095Y-108183390D02*
X132166667Y-108754819D01*
X132166667Y-108754819D02*
X132785714Y-108754819D01*
X142966666Y-88474819D02*
X142966666Y-89189104D01*
X142966666Y-89189104D02*
X142919047Y-89331961D01*
X142919047Y-89331961D02*
X142823809Y-89427200D01*
X142823809Y-89427200D02*
X142680952Y-89474819D01*
X142680952Y-89474819D02*
X142585714Y-89474819D01*
X143395238Y-88570057D02*
X143442857Y-88522438D01*
X143442857Y-88522438D02*
X143538095Y-88474819D01*
X143538095Y-88474819D02*
X143776190Y-88474819D01*
X143776190Y-88474819D02*
X143871428Y-88522438D01*
X143871428Y-88522438D02*
X143919047Y-88570057D01*
X143919047Y-88570057D02*
X143966666Y-88665295D01*
X143966666Y-88665295D02*
X143966666Y-88760533D01*
X143966666Y-88760533D02*
X143919047Y-88903390D01*
X143919047Y-88903390D02*
X143347619Y-89474819D01*
X143347619Y-89474819D02*
X143966666Y-89474819D01*
X123961905Y-63794819D02*
X123961905Y-62794819D01*
X123961905Y-62794819D02*
X124200000Y-62794819D01*
X124200000Y-62794819D02*
X124342857Y-62842438D01*
X124342857Y-62842438D02*
X124438095Y-62937676D01*
X124438095Y-62937676D02*
X124485714Y-63032914D01*
X124485714Y-63032914D02*
X124533333Y-63223390D01*
X124533333Y-63223390D02*
X124533333Y-63366247D01*
X124533333Y-63366247D02*
X124485714Y-63556723D01*
X124485714Y-63556723D02*
X124438095Y-63651961D01*
X124438095Y-63651961D02*
X124342857Y-63747200D01*
X124342857Y-63747200D02*
X124200000Y-63794819D01*
X124200000Y-63794819D02*
X123961905Y-63794819D01*
X125485714Y-63794819D02*
X124914286Y-63794819D01*
X125200000Y-63794819D02*
X125200000Y-62794819D01*
X125200000Y-62794819D02*
X125104762Y-62937676D01*
X125104762Y-62937676D02*
X125009524Y-63032914D01*
X125009524Y-63032914D02*
X124914286Y-63080533D01*
X148191905Y-111394819D02*
X148191905Y-110394819D01*
X148191905Y-110394819D02*
X148430000Y-110394819D01*
X148430000Y-110394819D02*
X148572857Y-110442438D01*
X148572857Y-110442438D02*
X148668095Y-110537676D01*
X148668095Y-110537676D02*
X148715714Y-110632914D01*
X148715714Y-110632914D02*
X148763333Y-110823390D01*
X148763333Y-110823390D02*
X148763333Y-110966247D01*
X148763333Y-110966247D02*
X148715714Y-111156723D01*
X148715714Y-111156723D02*
X148668095Y-111251961D01*
X148668095Y-111251961D02*
X148572857Y-111347200D01*
X148572857Y-111347200D02*
X148430000Y-111394819D01*
X148430000Y-111394819D02*
X148191905Y-111394819D01*
X149239524Y-111394819D02*
X149430000Y-111394819D01*
X149430000Y-111394819D02*
X149525238Y-111347200D01*
X149525238Y-111347200D02*
X149572857Y-111299580D01*
X149572857Y-111299580D02*
X149668095Y-111156723D01*
X149668095Y-111156723D02*
X149715714Y-110966247D01*
X149715714Y-110966247D02*
X149715714Y-110585295D01*
X149715714Y-110585295D02*
X149668095Y-110490057D01*
X149668095Y-110490057D02*
X149620476Y-110442438D01*
X149620476Y-110442438D02*
X149525238Y-110394819D01*
X149525238Y-110394819D02*
X149334762Y-110394819D01*
X149334762Y-110394819D02*
X149239524Y-110442438D01*
X149239524Y-110442438D02*
X149191905Y-110490057D01*
X149191905Y-110490057D02*
X149144286Y-110585295D01*
X149144286Y-110585295D02*
X149144286Y-110823390D01*
X149144286Y-110823390D02*
X149191905Y-110918628D01*
X149191905Y-110918628D02*
X149239524Y-110966247D01*
X149239524Y-110966247D02*
X149334762Y-111013866D01*
X149334762Y-111013866D02*
X149525238Y-111013866D01*
X149525238Y-111013866D02*
X149620476Y-110966247D01*
X149620476Y-110966247D02*
X149668095Y-110918628D01*
X149668095Y-110918628D02*
X149715714Y-110823390D01*
X171991905Y-94594819D02*
X171991905Y-93594819D01*
X171991905Y-93594819D02*
X172230000Y-93594819D01*
X172230000Y-93594819D02*
X172372857Y-93642438D01*
X172372857Y-93642438D02*
X172468095Y-93737676D01*
X172468095Y-93737676D02*
X172515714Y-93832914D01*
X172515714Y-93832914D02*
X172563333Y-94023390D01*
X172563333Y-94023390D02*
X172563333Y-94166247D01*
X172563333Y-94166247D02*
X172515714Y-94356723D01*
X172515714Y-94356723D02*
X172468095Y-94451961D01*
X172468095Y-94451961D02*
X172372857Y-94547200D01*
X172372857Y-94547200D02*
X172230000Y-94594819D01*
X172230000Y-94594819D02*
X171991905Y-94594819D01*
X173468095Y-93594819D02*
X172991905Y-93594819D01*
X172991905Y-93594819D02*
X172944286Y-94071009D01*
X172944286Y-94071009D02*
X172991905Y-94023390D01*
X172991905Y-94023390D02*
X173087143Y-93975771D01*
X173087143Y-93975771D02*
X173325238Y-93975771D01*
X173325238Y-93975771D02*
X173420476Y-94023390D01*
X173420476Y-94023390D02*
X173468095Y-94071009D01*
X173468095Y-94071009D02*
X173515714Y-94166247D01*
X173515714Y-94166247D02*
X173515714Y-94404342D01*
X173515714Y-94404342D02*
X173468095Y-94499580D01*
X173468095Y-94499580D02*
X173420476Y-94547200D01*
X173420476Y-94547200D02*
X173325238Y-94594819D01*
X173325238Y-94594819D02*
X173087143Y-94594819D01*
X173087143Y-94594819D02*
X172991905Y-94547200D01*
X172991905Y-94547200D02*
X172944286Y-94499580D01*
X148891905Y-100794819D02*
X148891905Y-99794819D01*
X148891905Y-99794819D02*
X149130000Y-99794819D01*
X149130000Y-99794819D02*
X149272857Y-99842438D01*
X149272857Y-99842438D02*
X149368095Y-99937676D01*
X149368095Y-99937676D02*
X149415714Y-100032914D01*
X149415714Y-100032914D02*
X149463333Y-100223390D01*
X149463333Y-100223390D02*
X149463333Y-100366247D01*
X149463333Y-100366247D02*
X149415714Y-100556723D01*
X149415714Y-100556723D02*
X149368095Y-100651961D01*
X149368095Y-100651961D02*
X149272857Y-100747200D01*
X149272857Y-100747200D02*
X149130000Y-100794819D01*
X149130000Y-100794819D02*
X148891905Y-100794819D01*
X149844286Y-99890057D02*
X149891905Y-99842438D01*
X149891905Y-99842438D02*
X149987143Y-99794819D01*
X149987143Y-99794819D02*
X150225238Y-99794819D01*
X150225238Y-99794819D02*
X150320476Y-99842438D01*
X150320476Y-99842438D02*
X150368095Y-99890057D01*
X150368095Y-99890057D02*
X150415714Y-99985295D01*
X150415714Y-99985295D02*
X150415714Y-100080533D01*
X150415714Y-100080533D02*
X150368095Y-100223390D01*
X150368095Y-100223390D02*
X149796667Y-100794819D01*
X149796667Y-100794819D02*
X150415714Y-100794819D01*
X170461905Y-103494819D02*
X170461905Y-102494819D01*
X170461905Y-102494819D02*
X170700000Y-102494819D01*
X170700000Y-102494819D02*
X170842857Y-102542438D01*
X170842857Y-102542438D02*
X170938095Y-102637676D01*
X170938095Y-102637676D02*
X170985714Y-102732914D01*
X170985714Y-102732914D02*
X171033333Y-102923390D01*
X171033333Y-102923390D02*
X171033333Y-103066247D01*
X171033333Y-103066247D02*
X170985714Y-103256723D01*
X170985714Y-103256723D02*
X170938095Y-103351961D01*
X170938095Y-103351961D02*
X170842857Y-103447200D01*
X170842857Y-103447200D02*
X170700000Y-103494819D01*
X170700000Y-103494819D02*
X170461905Y-103494819D01*
X171890476Y-102494819D02*
X171700000Y-102494819D01*
X171700000Y-102494819D02*
X171604762Y-102542438D01*
X171604762Y-102542438D02*
X171557143Y-102590057D01*
X171557143Y-102590057D02*
X171461905Y-102732914D01*
X171461905Y-102732914D02*
X171414286Y-102923390D01*
X171414286Y-102923390D02*
X171414286Y-103304342D01*
X171414286Y-103304342D02*
X171461905Y-103399580D01*
X171461905Y-103399580D02*
X171509524Y-103447200D01*
X171509524Y-103447200D02*
X171604762Y-103494819D01*
X171604762Y-103494819D02*
X171795238Y-103494819D01*
X171795238Y-103494819D02*
X171890476Y-103447200D01*
X171890476Y-103447200D02*
X171938095Y-103399580D01*
X171938095Y-103399580D02*
X171985714Y-103304342D01*
X171985714Y-103304342D02*
X171985714Y-103066247D01*
X171985714Y-103066247D02*
X171938095Y-102971009D01*
X171938095Y-102971009D02*
X171890476Y-102923390D01*
X171890476Y-102923390D02*
X171795238Y-102875771D01*
X171795238Y-102875771D02*
X171604762Y-102875771D01*
X171604762Y-102875771D02*
X171509524Y-102923390D01*
X171509524Y-102923390D02*
X171461905Y-102971009D01*
X171461905Y-102971009D02*
X171414286Y-103066247D01*
X163891905Y-96094819D02*
X163891905Y-95094819D01*
X163891905Y-95094819D02*
X164130000Y-95094819D01*
X164130000Y-95094819D02*
X164272857Y-95142438D01*
X164272857Y-95142438D02*
X164368095Y-95237676D01*
X164368095Y-95237676D02*
X164415714Y-95332914D01*
X164415714Y-95332914D02*
X164463333Y-95523390D01*
X164463333Y-95523390D02*
X164463333Y-95666247D01*
X164463333Y-95666247D02*
X164415714Y-95856723D01*
X164415714Y-95856723D02*
X164368095Y-95951961D01*
X164368095Y-95951961D02*
X164272857Y-96047200D01*
X164272857Y-96047200D02*
X164130000Y-96094819D01*
X164130000Y-96094819D02*
X163891905Y-96094819D01*
X165320476Y-95428152D02*
X165320476Y-96094819D01*
X165082381Y-95047200D02*
X164844286Y-95761485D01*
X164844286Y-95761485D02*
X165463333Y-95761485D01*
X156331905Y-112594819D02*
X156331905Y-111594819D01*
X156331905Y-111594819D02*
X156570000Y-111594819D01*
X156570000Y-111594819D02*
X156712857Y-111642438D01*
X156712857Y-111642438D02*
X156808095Y-111737676D01*
X156808095Y-111737676D02*
X156855714Y-111832914D01*
X156855714Y-111832914D02*
X156903333Y-112023390D01*
X156903333Y-112023390D02*
X156903333Y-112166247D01*
X156903333Y-112166247D02*
X156855714Y-112356723D01*
X156855714Y-112356723D02*
X156808095Y-112451961D01*
X156808095Y-112451961D02*
X156712857Y-112547200D01*
X156712857Y-112547200D02*
X156570000Y-112594819D01*
X156570000Y-112594819D02*
X156331905Y-112594819D01*
X157474762Y-112023390D02*
X157379524Y-111975771D01*
X157379524Y-111975771D02*
X157331905Y-111928152D01*
X157331905Y-111928152D02*
X157284286Y-111832914D01*
X157284286Y-111832914D02*
X157284286Y-111785295D01*
X157284286Y-111785295D02*
X157331905Y-111690057D01*
X157331905Y-111690057D02*
X157379524Y-111642438D01*
X157379524Y-111642438D02*
X157474762Y-111594819D01*
X157474762Y-111594819D02*
X157665238Y-111594819D01*
X157665238Y-111594819D02*
X157760476Y-111642438D01*
X157760476Y-111642438D02*
X157808095Y-111690057D01*
X157808095Y-111690057D02*
X157855714Y-111785295D01*
X157855714Y-111785295D02*
X157855714Y-111832914D01*
X157855714Y-111832914D02*
X157808095Y-111928152D01*
X157808095Y-111928152D02*
X157760476Y-111975771D01*
X157760476Y-111975771D02*
X157665238Y-112023390D01*
X157665238Y-112023390D02*
X157474762Y-112023390D01*
X157474762Y-112023390D02*
X157379524Y-112071009D01*
X157379524Y-112071009D02*
X157331905Y-112118628D01*
X157331905Y-112118628D02*
X157284286Y-112213866D01*
X157284286Y-112213866D02*
X157284286Y-112404342D01*
X157284286Y-112404342D02*
X157331905Y-112499580D01*
X157331905Y-112499580D02*
X157379524Y-112547200D01*
X157379524Y-112547200D02*
X157474762Y-112594819D01*
X157474762Y-112594819D02*
X157665238Y-112594819D01*
X157665238Y-112594819D02*
X157760476Y-112547200D01*
X157760476Y-112547200D02*
X157808095Y-112499580D01*
X157808095Y-112499580D02*
X157855714Y-112404342D01*
X157855714Y-112404342D02*
X157855714Y-112213866D01*
X157855714Y-112213866D02*
X157808095Y-112118628D01*
X157808095Y-112118628D02*
X157760476Y-112071009D01*
X157760476Y-112071009D02*
X157665238Y-112023390D01*
X142215714Y-106194819D02*
X142215714Y-105194819D01*
X142215714Y-105194819D02*
X142453809Y-105194819D01*
X142453809Y-105194819D02*
X142596666Y-105242438D01*
X142596666Y-105242438D02*
X142691904Y-105337676D01*
X142691904Y-105337676D02*
X142739523Y-105432914D01*
X142739523Y-105432914D02*
X142787142Y-105623390D01*
X142787142Y-105623390D02*
X142787142Y-105766247D01*
X142787142Y-105766247D02*
X142739523Y-105956723D01*
X142739523Y-105956723D02*
X142691904Y-106051961D01*
X142691904Y-106051961D02*
X142596666Y-106147200D01*
X142596666Y-106147200D02*
X142453809Y-106194819D01*
X142453809Y-106194819D02*
X142215714Y-106194819D01*
X143739523Y-106194819D02*
X143168095Y-106194819D01*
X143453809Y-106194819D02*
X143453809Y-105194819D01*
X143453809Y-105194819D02*
X143358571Y-105337676D01*
X143358571Y-105337676D02*
X143263333Y-105432914D01*
X143263333Y-105432914D02*
X143168095Y-105480533D01*
X144358571Y-105194819D02*
X144453809Y-105194819D01*
X144453809Y-105194819D02*
X144549047Y-105242438D01*
X144549047Y-105242438D02*
X144596666Y-105290057D01*
X144596666Y-105290057D02*
X144644285Y-105385295D01*
X144644285Y-105385295D02*
X144691904Y-105575771D01*
X144691904Y-105575771D02*
X144691904Y-105813866D01*
X144691904Y-105813866D02*
X144644285Y-106004342D01*
X144644285Y-106004342D02*
X144596666Y-106099580D01*
X144596666Y-106099580D02*
X144549047Y-106147200D01*
X144549047Y-106147200D02*
X144453809Y-106194819D01*
X144453809Y-106194819D02*
X144358571Y-106194819D01*
X144358571Y-106194819D02*
X144263333Y-106147200D01*
X144263333Y-106147200D02*
X144215714Y-106099580D01*
X144215714Y-106099580D02*
X144168095Y-106004342D01*
X144168095Y-106004342D02*
X144120476Y-105813866D01*
X144120476Y-105813866D02*
X144120476Y-105575771D01*
X144120476Y-105575771D02*
X144168095Y-105385295D01*
X144168095Y-105385295D02*
X144215714Y-105290057D01*
X144215714Y-105290057D02*
X144263333Y-105242438D01*
X144263333Y-105242438D02*
X144358571Y-105194819D01*
X156291905Y-97894819D02*
X156291905Y-96894819D01*
X156291905Y-96894819D02*
X156530000Y-96894819D01*
X156530000Y-96894819D02*
X156672857Y-96942438D01*
X156672857Y-96942438D02*
X156768095Y-97037676D01*
X156768095Y-97037676D02*
X156815714Y-97132914D01*
X156815714Y-97132914D02*
X156863333Y-97323390D01*
X156863333Y-97323390D02*
X156863333Y-97466247D01*
X156863333Y-97466247D02*
X156815714Y-97656723D01*
X156815714Y-97656723D02*
X156768095Y-97751961D01*
X156768095Y-97751961D02*
X156672857Y-97847200D01*
X156672857Y-97847200D02*
X156530000Y-97894819D01*
X156530000Y-97894819D02*
X156291905Y-97894819D01*
X157196667Y-96894819D02*
X157815714Y-96894819D01*
X157815714Y-96894819D02*
X157482381Y-97275771D01*
X157482381Y-97275771D02*
X157625238Y-97275771D01*
X157625238Y-97275771D02*
X157720476Y-97323390D01*
X157720476Y-97323390D02*
X157768095Y-97371009D01*
X157768095Y-97371009D02*
X157815714Y-97466247D01*
X157815714Y-97466247D02*
X157815714Y-97704342D01*
X157815714Y-97704342D02*
X157768095Y-97799580D01*
X157768095Y-97799580D02*
X157720476Y-97847200D01*
X157720476Y-97847200D02*
X157625238Y-97894819D01*
X157625238Y-97894819D02*
X157339524Y-97894819D01*
X157339524Y-97894819D02*
X157244286Y-97847200D01*
X157244286Y-97847200D02*
X157196667Y-97799580D01*
X164231905Y-109094819D02*
X164231905Y-108094819D01*
X164231905Y-108094819D02*
X164470000Y-108094819D01*
X164470000Y-108094819D02*
X164612857Y-108142438D01*
X164612857Y-108142438D02*
X164708095Y-108237676D01*
X164708095Y-108237676D02*
X164755714Y-108332914D01*
X164755714Y-108332914D02*
X164803333Y-108523390D01*
X164803333Y-108523390D02*
X164803333Y-108666247D01*
X164803333Y-108666247D02*
X164755714Y-108856723D01*
X164755714Y-108856723D02*
X164708095Y-108951961D01*
X164708095Y-108951961D02*
X164612857Y-109047200D01*
X164612857Y-109047200D02*
X164470000Y-109094819D01*
X164470000Y-109094819D02*
X164231905Y-109094819D01*
X165136667Y-108094819D02*
X165803333Y-108094819D01*
X165803333Y-108094819D02*
X165374762Y-109094819D01*
D11*
%TO.C,C1*%
X132850113Y-112415000D02*
X133350113Y-112415000D01*
X133100113Y-112165000D02*
X133100113Y-112665000D01*
X135654888Y-111310000D02*
X135654888Y-112850000D01*
X135654888Y-114930000D02*
X135654888Y-116470000D01*
X135694888Y-111310000D02*
X135694888Y-112850000D01*
X135694888Y-114930000D02*
X135694888Y-116470000D01*
X135734888Y-111311000D02*
X135734888Y-112850000D01*
X135734888Y-114930000D02*
X135734888Y-116469000D01*
X135774888Y-111313000D02*
X135774888Y-112850000D01*
X135774888Y-114930000D02*
X135774888Y-116467000D01*
X135814888Y-111315000D02*
X135814888Y-112850000D01*
X135814888Y-114930000D02*
X135814888Y-116465000D01*
X135854888Y-111318000D02*
X135854888Y-112850000D01*
X135854888Y-114930000D02*
X135854888Y-116462000D01*
X135894888Y-111321000D02*
X135894888Y-112850000D01*
X135894888Y-114930000D02*
X135894888Y-116459000D01*
X135934888Y-111325000D02*
X135934888Y-112850000D01*
X135934888Y-114930000D02*
X135934888Y-116455000D01*
X135974888Y-111330000D02*
X135974888Y-112850000D01*
X135974888Y-114930000D02*
X135974888Y-116450000D01*
X136014888Y-111335000D02*
X136014888Y-112850000D01*
X136014888Y-114930000D02*
X136014888Y-116445000D01*
X136054888Y-111341000D02*
X136054888Y-112850000D01*
X136054888Y-114930000D02*
X136054888Y-116439000D01*
X136094888Y-111347000D02*
X136094888Y-112850000D01*
X136094888Y-114930000D02*
X136094888Y-116433000D01*
X136134888Y-111354000D02*
X136134888Y-112850000D01*
X136134888Y-114930000D02*
X136134888Y-116426000D01*
X136174888Y-111362000D02*
X136174888Y-112850000D01*
X136174888Y-114930000D02*
X136174888Y-116418000D01*
X136214888Y-111371000D02*
X136214888Y-112850000D01*
X136214888Y-114930000D02*
X136214888Y-116409000D01*
X136254888Y-111380000D02*
X136254888Y-112850000D01*
X136254888Y-114930000D02*
X136254888Y-116400000D01*
X136294888Y-111389000D02*
X136294888Y-112850000D01*
X136294888Y-114930000D02*
X136294888Y-116391000D01*
X136334888Y-111400000D02*
X136334888Y-112850000D01*
X136334888Y-114930000D02*
X136334888Y-116380000D01*
X136374888Y-111411000D02*
X136374888Y-112850000D01*
X136374888Y-114930000D02*
X136374888Y-116369000D01*
X136414888Y-111423000D02*
X136414888Y-112850000D01*
X136414888Y-114930000D02*
X136414888Y-116357000D01*
X136454888Y-111435000D02*
X136454888Y-112850000D01*
X136454888Y-114930000D02*
X136454888Y-116345000D01*
X136494888Y-111448000D02*
X136494888Y-112850000D01*
X136494888Y-114930000D02*
X136494888Y-116332000D01*
X136534888Y-111462000D02*
X136534888Y-112850000D01*
X136534888Y-114930000D02*
X136534888Y-116318000D01*
X136574888Y-111477000D02*
X136574888Y-112850000D01*
X136574888Y-114930000D02*
X136574888Y-116303000D01*
X136614888Y-111492000D02*
X136614888Y-112850000D01*
X136614888Y-114930000D02*
X136614888Y-116288000D01*
X136654888Y-111508000D02*
X136654888Y-112850000D01*
X136654888Y-114930000D02*
X136654888Y-116272000D01*
X136694888Y-111525000D02*
X136694888Y-112850000D01*
X136694888Y-114930000D02*
X136694888Y-116255000D01*
X136734888Y-111543000D02*
X136734888Y-112850000D01*
X136734888Y-114930000D02*
X136734888Y-116237000D01*
X136774888Y-111561000D02*
X136774888Y-112850000D01*
X136774888Y-114930000D02*
X136774888Y-116219000D01*
X136814888Y-111581000D02*
X136814888Y-112850000D01*
X136814888Y-114930000D02*
X136814888Y-116199000D01*
X136854888Y-111601000D02*
X136854888Y-112850000D01*
X136854888Y-114930000D02*
X136854888Y-116179000D01*
X136894888Y-111622000D02*
X136894888Y-112850000D01*
X136894888Y-114930000D02*
X136894888Y-116158000D01*
X136934888Y-111644000D02*
X136934888Y-112850000D01*
X136934888Y-114930000D02*
X136934888Y-116136000D01*
X136974888Y-111667000D02*
X136974888Y-112850000D01*
X136974888Y-114930000D02*
X136974888Y-116113000D01*
X137014888Y-111691000D02*
X137014888Y-112850000D01*
X137014888Y-114930000D02*
X137014888Y-116089000D01*
X137054888Y-111715000D02*
X137054888Y-112850000D01*
X137054888Y-114930000D02*
X137054888Y-116065000D01*
X137094888Y-111741000D02*
X137094888Y-112850000D01*
X137094888Y-114930000D02*
X137094888Y-116039000D01*
X137134888Y-111768000D02*
X137134888Y-112850000D01*
X137134888Y-114930000D02*
X137134888Y-116012000D01*
X137174888Y-111796000D02*
X137174888Y-112850000D01*
X137174888Y-114930000D02*
X137174888Y-115984000D01*
X137214888Y-111825000D02*
X137214888Y-112850000D01*
X137214888Y-114930000D02*
X137214888Y-115955000D01*
X137254888Y-111855000D02*
X137254888Y-112850000D01*
X137254888Y-114930000D02*
X137254888Y-115925000D01*
X137294888Y-111887000D02*
X137294888Y-112850000D01*
X137294888Y-114930000D02*
X137294888Y-115893000D01*
X137334888Y-111920000D02*
X137334888Y-112850000D01*
X137334888Y-114930000D02*
X137334888Y-115860000D01*
X137374888Y-111954000D02*
X137374888Y-112850000D01*
X137374888Y-114930000D02*
X137374888Y-115826000D01*
X137414888Y-111989000D02*
X137414888Y-112850000D01*
X137414888Y-114930000D02*
X137414888Y-115791000D01*
X137454888Y-112026000D02*
X137454888Y-112850000D01*
X137454888Y-114930000D02*
X137454888Y-115754000D01*
X137494888Y-112065000D02*
X137494888Y-112850000D01*
X137494888Y-114930000D02*
X137494888Y-115715000D01*
X137534888Y-112105000D02*
X137534888Y-112850000D01*
X137534888Y-114930000D02*
X137534888Y-115675000D01*
X137574888Y-112147000D02*
X137574888Y-112850000D01*
X137574888Y-114930000D02*
X137574888Y-115633000D01*
X137614888Y-112191000D02*
X137614888Y-112850000D01*
X137614888Y-114930000D02*
X137614888Y-115589000D01*
X137654888Y-112238000D02*
X137654888Y-112850000D01*
X137654888Y-114930000D02*
X137654888Y-115542000D01*
X137694888Y-112286000D02*
X137694888Y-115494000D01*
X137734888Y-112337000D02*
X137734888Y-115443000D01*
X137774888Y-112391000D02*
X137774888Y-115389000D01*
X137814888Y-112447000D02*
X137814888Y-115333000D01*
X137854888Y-112507000D02*
X137854888Y-115273000D01*
X137894888Y-112571000D02*
X137894888Y-115209000D01*
X137934888Y-112639000D02*
X137934888Y-115141000D01*
X137974888Y-112713000D02*
X137974888Y-115067000D01*
X138014888Y-112792000D02*
X138014888Y-114988000D01*
X138054888Y-112879000D02*
X138054888Y-114901000D01*
X138094888Y-112976000D02*
X138094888Y-114804000D01*
X138134888Y-113085000D02*
X138134888Y-114695000D01*
X138174888Y-113213000D02*
X138174888Y-114567000D01*
X138214888Y-113373000D02*
X138214888Y-114407000D01*
X138254888Y-113607000D02*
X138254888Y-114173000D01*
X138274888Y-113890000D02*
G75*
G02*
X133034888Y-113890000I-2620000J0D01*
G01*
X133034888Y-113890000D02*
G75*
G02*
X138274888Y-113890000I2620000J0D01*
G01*
%TO.C,RV1*%
X119810000Y-83780000D02*
X119810000Y-89000000D01*
X119810000Y-83780000D02*
X121930000Y-83780000D01*
X119810000Y-89000000D02*
X129730000Y-89000000D01*
X122630000Y-83780000D02*
X129730000Y-83780000D01*
X129730000Y-83780000D02*
X129730000Y-89000000D01*
X122230000Y-83780000D02*
X121990000Y-83450000D01*
X122470000Y-83450000D01*
X122230000Y-83780000D01*
G36*
X122230000Y-83780000D02*
G01*
X121990000Y-83450000D01*
X122470000Y-83450000D01*
X122230000Y-83780000D01*
G37*
D12*
%TO.C,U2*%
X135814800Y-83947500D02*
G75*
G02*
X135205200Y-83947500I-304800J0D01*
G01*
X138812000Y-101841431D02*
X138812000Y-100978569D01*
X138812000Y-99301431D02*
X138812000Y-98438569D01*
X138812000Y-96761431D02*
X138812000Y-95898569D01*
X138812000Y-94221431D02*
X138812000Y-93358569D01*
X138812000Y-91681431D02*
X138812000Y-90818569D01*
X138812000Y-89141431D02*
X138812000Y-88278569D01*
X138812000Y-86601431D02*
X138812000Y-85738569D01*
X138812000Y-83947500D02*
X132481165Y-83947500D01*
X132208000Y-103632500D02*
X138812000Y-103632500D01*
X132208000Y-100978569D02*
X132208000Y-101841431D01*
X132208000Y-98438569D02*
X132208000Y-99301431D01*
X132208000Y-95898569D02*
X132208000Y-96761431D01*
X132208000Y-93358569D02*
X132208000Y-94221431D01*
X132208000Y-90818569D02*
X132208000Y-91681431D01*
X132208000Y-88278569D02*
X132208000Y-89141431D01*
X132208000Y-85880440D02*
X132208000Y-86601431D01*
D11*
%TO.C,J1*%
X114530000Y-105010000D02*
X115910000Y-105010000D01*
X114530000Y-106390000D02*
X114530000Y-105010000D01*
X114530000Y-107660000D02*
X114530000Y-110310000D01*
X114530000Y-107660000D02*
X117290000Y-107660000D01*
X114530000Y-110310000D02*
X117290000Y-110310000D01*
X117290000Y-107660000D02*
X117290000Y-110310000D01*
%TO.C,U1*%
X125715000Y-91650000D02*
G75*
G02*
X123715000Y-91650000I-1000000J0D01*
G01*
X127365000Y-101930000D02*
X127365000Y-91650000D01*
X127365000Y-91650000D02*
X125715000Y-91650000D01*
X123715000Y-91650000D02*
X122065000Y-91650000D01*
X122065000Y-101930000D02*
X127365000Y-101930000D01*
X122065000Y-91650000D02*
X122065000Y-101930000D01*
%TO.C,R1*%
X117280000Y-93420000D02*
X116950000Y-93420000D01*
X114540000Y-93420000D02*
X114870000Y-93420000D01*
X117280000Y-99960000D02*
X117280000Y-93420000D01*
X116950000Y-99960000D02*
X117280000Y-99960000D01*
X114870000Y-99960000D02*
X114540000Y-99960000D01*
X114540000Y-99960000D02*
X114540000Y-93420000D01*
%TO.C,C2*%
X120540000Y-104820000D02*
X120540000Y-107560000D01*
X120540000Y-104820000D02*
X128280000Y-104820000D01*
X120540000Y-107560000D02*
X128280000Y-107560000D01*
X128280000Y-104820000D02*
X128280000Y-107560000D01*
%TO.C,R2*%
X138880000Y-107360000D02*
X138880000Y-107030000D01*
X138880000Y-104620000D02*
X138880000Y-104950000D01*
X132340000Y-107360000D02*
X138880000Y-107360000D01*
X132340000Y-107030000D02*
X132340000Y-107360000D01*
X132340000Y-104950000D02*
X132340000Y-104620000D01*
X132340000Y-104620000D02*
X138880000Y-104620000D01*
%TO.C,J2*%
X144680000Y-92670000D02*
X144680000Y-92780000D01*
X141920000Y-92780000D02*
X144680000Y-92780000D01*
X141920000Y-92670000D02*
X144680000Y-92670000D01*
X141920000Y-92670000D02*
X141920000Y-92780000D01*
X141920000Y-91400000D02*
X141920000Y-90020000D01*
X141920000Y-90020000D02*
X143300000Y-90020000D01*
%TO.C,D1*%
X123140000Y-65064000D02*
X123140000Y-65220000D01*
X123140000Y-67380000D02*
X123140000Y-67536000D01*
X123140000Y-65064484D02*
G75*
G02*
X126371437Y-65220000I1560000J-1235516D01*
G01*
X123659039Y-65220000D02*
G75*
G02*
X125740961Y-65220000I1040961J-1080000D01*
G01*
X125740961Y-67380000D02*
G75*
G02*
X123659039Y-67380000I-1040961J1080000D01*
G01*
X126371437Y-67380000D02*
G75*
G02*
X123140000Y-67535516I-1671437J1080000D01*
G01*
%TO.C,D9*%
X147370000Y-112664000D02*
X147370000Y-112820000D01*
X147370000Y-114980000D02*
X147370000Y-115136000D01*
X147370000Y-112664484D02*
G75*
G02*
X150601437Y-112820000I1560000J-1235516D01*
G01*
X147889039Y-112820000D02*
G75*
G02*
X149970961Y-112820000I1040961J-1080000D01*
G01*
X149970961Y-114980000D02*
G75*
G02*
X147889039Y-114980000I-1040961J1080000D01*
G01*
X150601437Y-114980000D02*
G75*
G02*
X147370000Y-115135516I-1671437J1080000D01*
G01*
%TO.C,D5*%
X171170000Y-95864000D02*
X171170000Y-96020000D01*
X171170000Y-98180000D02*
X171170000Y-98336000D01*
X171170000Y-95864484D02*
G75*
G02*
X174401437Y-96020000I1560000J-1235516D01*
G01*
X171689039Y-96020000D02*
G75*
G02*
X173770961Y-96020000I1040961J-1080000D01*
G01*
X173770961Y-98180000D02*
G75*
G02*
X171689039Y-98180000I-1040961J1080000D01*
G01*
X174401437Y-98180000D02*
G75*
G02*
X171170000Y-98335516I-1671437J1080000D01*
G01*
%TO.C,D2*%
X148070000Y-102064000D02*
X148070000Y-102220000D01*
X148070000Y-104380000D02*
X148070000Y-104536000D01*
X148070000Y-102064484D02*
G75*
G02*
X151301437Y-102220000I1560000J-1235516D01*
G01*
X148589039Y-102220000D02*
G75*
G02*
X150670961Y-102220000I1040961J-1080000D01*
G01*
X150670961Y-104380000D02*
G75*
G02*
X148589039Y-104380000I-1040961J1080000D01*
G01*
X151301437Y-104380000D02*
G75*
G02*
X148070000Y-104535516I-1671437J1080000D01*
G01*
%TO.C,D6*%
X169640000Y-104764000D02*
X169640000Y-104920000D01*
X169640000Y-107080000D02*
X169640000Y-107236000D01*
X169640000Y-104764484D02*
G75*
G02*
X172871437Y-104920000I1560000J-1235516D01*
G01*
X170159039Y-104920000D02*
G75*
G02*
X172240961Y-104920000I1040961J-1080000D01*
G01*
X172240961Y-107080000D02*
G75*
G02*
X170159039Y-107080000I-1040961J1080000D01*
G01*
X172871437Y-107080000D02*
G75*
G02*
X169640000Y-107235516I-1671437J1080000D01*
G01*
%TO.C,D4*%
X163070000Y-97364000D02*
X163070000Y-97520000D01*
X163070000Y-99680000D02*
X163070000Y-99836000D01*
X163070000Y-97364484D02*
G75*
G02*
X166301437Y-97520000I1560000J-1235516D01*
G01*
X163589039Y-97520000D02*
G75*
G02*
X165670961Y-97520000I1040961J-1080000D01*
G01*
X165670961Y-99680000D02*
G75*
G02*
X163589039Y-99680000I-1040961J1080000D01*
G01*
X166301437Y-99680000D02*
G75*
G02*
X163070000Y-99835516I-1671437J1080000D01*
G01*
%TO.C,D8*%
X155510000Y-113864000D02*
X155510000Y-114020000D01*
X155510000Y-116180000D02*
X155510000Y-116336000D01*
X155510000Y-113864484D02*
G75*
G02*
X158741437Y-114020000I1560000J-1235516D01*
G01*
X156029039Y-114020000D02*
G75*
G02*
X158110961Y-114020000I1040961J-1080000D01*
G01*
X158110961Y-116180000D02*
G75*
G02*
X156029039Y-116180000I-1040961J1080000D01*
G01*
X158741437Y-116180000D02*
G75*
G02*
X155510000Y-116335516I-1671437J1080000D01*
G01*
%TO.C,D10*%
X141870000Y-107464000D02*
X141870000Y-107620000D01*
X141870000Y-109780000D02*
X141870000Y-109936000D01*
X141870000Y-107464484D02*
G75*
G02*
X145101437Y-107620000I1560000J-1235516D01*
G01*
X142389039Y-107620000D02*
G75*
G02*
X144470961Y-107620000I1040961J-1080000D01*
G01*
X144470961Y-109780000D02*
G75*
G02*
X142389039Y-109780000I-1040961J1080000D01*
G01*
X145101437Y-109780000D02*
G75*
G02*
X141870000Y-109935516I-1671437J1080000D01*
G01*
%TO.C,D3*%
X155470000Y-99164000D02*
X155470000Y-99320000D01*
X155470000Y-101480000D02*
X155470000Y-101636000D01*
X155470000Y-99164484D02*
G75*
G02*
X158701437Y-99320000I1560000J-1235516D01*
G01*
X155989039Y-99320000D02*
G75*
G02*
X158070961Y-99320000I1040961J-1080000D01*
G01*
X158070961Y-101480000D02*
G75*
G02*
X155989039Y-101480000I-1040961J1080000D01*
G01*
X158701437Y-101480000D02*
G75*
G02*
X155470000Y-101635516I-1671437J1080000D01*
G01*
%TO.C,D7*%
X163410000Y-110364000D02*
X163410000Y-110520000D01*
X163410000Y-112680000D02*
X163410000Y-112836000D01*
X163410000Y-110364484D02*
G75*
G02*
X166641437Y-110520000I1560000J-1235516D01*
G01*
X163929039Y-110520000D02*
G75*
G02*
X166010961Y-110520000I1040961J-1080000D01*
G01*
X166010961Y-112680000D02*
G75*
G02*
X163929039Y-112680000I-1040961J1080000D01*
G01*
X166641437Y-112680000D02*
G75*
G02*
X163410000Y-112835516I-1671437J1080000D01*
G01*
%TD*%
M02*
