%TF.GenerationSoftware,KiCad,Pcbnew,9.0.2*%
%TF.CreationDate,2026-04-13T23:08:23-07:00*%
%TF.ProjectId,blinkyboard,626c696e-6b79-4626-9f61-72642e6b6963,rev?*%
%TF.SameCoordinates,Original*%
%TF.FileFunction,Copper,L1,Top*%
%TF.FilePolarity,Positive*%
%FSLAX46Y46*%
G04 Gerber Fmt 4.6, Leading zero omitted, Abs format (unit mm)*
G04 Created by KiCad (PCBNEW 9.0.2) date 2026-04-13 23:08:23*
%MOMM*%
%LPD*%
G01*
G04 APERTURE LIST*
G04 Aperture macros list*
%AMRoundRect*
0 Rectangle with rounded corners*
0 $1 Rounding radius*
0 $2 $3 $4 $5 $6 $7 $8 $9 X,Y pos of 4 corners*
0 Add a 4 corners polygon primitive as box body*
4,1,4,$2,$3,$4,$5,$6,$7,$8,$9,$2,$3,0*
0 Add four circle primitives for the rounded corners*
1,1,$1+$1,$2,$3*
1,1,$1+$1,$4,$5*
1,1,$1+$1,$6,$7*
1,1,$1+$1,$8,$9*
0 Add four rect primitives between the rounded corners*
20,1,$1+$1,$2,$3,$4,$5,0*
20,1,$1+$1,$4,$5,$6,$7,0*
20,1,$1+$1,$6,$7,$8,$9,0*
20,1,$1+$1,$8,$9,$2,$3,0*%
G04 Aperture macros list end*
%TA.AperFunction,ComponentPad*%
%ADD10RoundRect,0.250000X-0.550000X-0.550000X0.550000X-0.550000X0.550000X0.550000X-0.550000X0.550000X0*%
%TD*%
%TA.AperFunction,ComponentPad*%
%ADD11C,1.600000*%
%TD*%
%TA.AperFunction,ComponentPad*%
%ADD12RoundRect,0.412500X-0.412500X-0.412500X0.412500X-0.412500X0.412500X0.412500X-0.412500X0.412500X0*%
%TD*%
%TA.AperFunction,ComponentPad*%
%ADD13C,1.650000*%
%TD*%
%TA.AperFunction,ComponentPad*%
%ADD14C,1.295400*%
%TD*%
%TA.AperFunction,ComponentPad*%
%ADD15R,1.295400X1.295400*%
%TD*%
%TA.AperFunction,ComponentPad*%
%ADD16R,1.700000X1.700000*%
%TD*%
%TA.AperFunction,ComponentPad*%
%ADD17C,1.700000*%
%TD*%
%TA.AperFunction,ComponentPad*%
%ADD18C,2.000000*%
%TD*%
%TA.AperFunction,ComponentPad*%
%ADD19R,1.800000X1.800000*%
%TD*%
%TA.AperFunction,ComponentPad*%
%ADD20C,1.800000*%
%TD*%
%TA.AperFunction,ViaPad*%
%ADD21C,0.600000*%
%TD*%
%TA.AperFunction,Conductor*%
%ADD22C,0.200000*%
%TD*%
G04 APERTURE END LIST*
D10*
%TO.P,C1,1*%
%TO.N,TR*%
X134654888Y-113890000D03*
D11*
%TO.P,C1,2*%
%TO.N,GND*%
X136654888Y-113890000D03*
%TD*%
D12*
%TO.P,RV1,1,1*%
%TO.N,Net-(U1-DIS)*%
X122230000Y-86390000D03*
D13*
%TO.P,RV1,2,2*%
X124770000Y-86390000D03*
%TO.P,RV1,3,3*%
%TO.N,TR*%
X127310000Y-86390000D03*
%TD*%
D14*
%TO.P,U2,8,VSS*%
%TO.N,GND*%
X131700000Y-102680000D03*
%TO.P,U2,16,VDD*%
%TO.N,+5V*%
X139320000Y-84900000D03*
%TO.P,U2,15,Reset*%
%TO.N,GND*%
X139320000Y-87440000D03*
%TO.P,U2,14,CLK*%
%TO.N,OUT*%
X139320000Y-89980000D03*
%TO.P,U2,13,CKEN*%
%TO.N,GND*%
X139320000Y-92520000D03*
%TO.P,U2,12,Cout*%
%TO.N,unconnected-(U2-Cout-Pad12)*%
X139320000Y-95060000D03*
%TO.P,U2,11,Q9*%
%TO.N,Net-(D1-A)*%
X139320000Y-97600000D03*
%TO.P,U2,10,Q4*%
%TO.N,Net-(D6-A)*%
X139320000Y-100140000D03*
%TO.P,U2,9,Q8*%
%TO.N,Net-(D2-A)*%
X139320000Y-102680000D03*
%TO.P,U2,7,Q3*%
%TO.N,Net-(D7-A)*%
X131700000Y-100140000D03*
%TO.P,U2,6,Q7*%
%TO.N,Net-(D3-A)*%
X131700000Y-97600000D03*
%TO.P,U2,5,Q6*%
%TO.N,Net-(D4-A)*%
X131700000Y-95060000D03*
%TO.P,U2,4,Q2*%
%TO.N,Net-(D8-A)*%
X131700000Y-92520000D03*
%TO.P,U2,3,Q0*%
%TO.N,Net-(D10-A)*%
X131700000Y-89980000D03*
%TO.P,U2,2,Q1*%
%TO.N,Net-(D9-A)*%
X131700000Y-87440000D03*
D15*
%TO.P,U2,1,Q5*%
%TO.N,Net-(D5-A)*%
X131700000Y-84900000D03*
%TD*%
D16*
%TO.P,J1,1,Pin_1*%
%TO.N,+5V*%
X115910000Y-106390000D03*
D17*
%TO.P,J1,2,Pin_2*%
%TO.N,GND*%
X115910000Y-108930000D03*
%TD*%
D11*
%TO.P,U1,8,VCC*%
%TO.N,+5V*%
X128525000Y-92980000D03*
%TO.P,U1,7,DIS*%
%TO.N,Net-(U1-DIS)*%
X128525000Y-95520000D03*
%TO.P,U1,6,THR*%
%TO.N,TR*%
X128525000Y-98060000D03*
%TO.P,U1,5,CV*%
%TO.N,Net-(U1-CV)*%
X128525000Y-100600000D03*
%TO.P,U1,4,R*%
%TO.N,+5V*%
X120905000Y-100600000D03*
%TO.P,U1,3,Q*%
%TO.N,OUT*%
X120905000Y-98060000D03*
%TO.P,U1,2,TR*%
%TO.N,TR*%
X120905000Y-95520000D03*
D10*
%TO.P,U1,1,GND*%
%TO.N,GND*%
X120905000Y-92980000D03*
%TD*%
D11*
%TO.P,R1,2*%
%TO.N,Net-(U1-DIS)*%
X115910000Y-92880000D03*
%TO.P,R1,1*%
%TO.N,+5V*%
X115910000Y-100500000D03*
%TD*%
D18*
%TO.P,C2,1*%
%TO.N,GND*%
X121910000Y-106190000D03*
%TO.P,C2,2*%
%TO.N,Net-(U1-CV)*%
X126910000Y-106190000D03*
%TD*%
D11*
%TO.P,R2,2*%
%TO.N,GND*%
X139420000Y-105990000D03*
%TO.P,R2,1*%
%TO.N,Net-(D1-K)*%
X131800000Y-105990000D03*
%TD*%
D16*
%TO.P,J2,1,Pin_1*%
%TO.N,OUT*%
X143300000Y-91400000D03*
%TD*%
D19*
%TO.P,D1,1,K*%
%TO.N,Net-(D1-K)*%
X123430000Y-66300000D03*
D20*
%TO.P,D1,2,A*%
%TO.N,Net-(D1-A)*%
X125970000Y-66300000D03*
%TD*%
D19*
%TO.P,D9,1,K*%
%TO.N,Net-(D1-K)*%
X147660000Y-113900000D03*
D20*
%TO.P,D9,2,A*%
%TO.N,Net-(D9-A)*%
X150200000Y-113900000D03*
%TD*%
D19*
%TO.P,D5,1,K*%
%TO.N,Net-(D1-K)*%
X171460000Y-97100000D03*
D20*
%TO.P,D5,2,A*%
%TO.N,Net-(D5-A)*%
X174000000Y-97100000D03*
%TD*%
D19*
%TO.P,D2,1,K*%
%TO.N,Net-(D1-K)*%
X148360000Y-103300000D03*
D20*
%TO.P,D2,2,A*%
%TO.N,Net-(D2-A)*%
X150900000Y-103300000D03*
%TD*%
D19*
%TO.P,D6,1,K*%
%TO.N,Net-(D1-K)*%
X169930000Y-106000000D03*
D20*
%TO.P,D6,2,A*%
%TO.N,Net-(D6-A)*%
X172470000Y-106000000D03*
%TD*%
D19*
%TO.P,D4,1,K*%
%TO.N,Net-(D1-K)*%
X163360000Y-98600000D03*
D20*
%TO.P,D4,2,A*%
%TO.N,Net-(D4-A)*%
X165900000Y-98600000D03*
%TD*%
D19*
%TO.P,D8,1,K*%
%TO.N,Net-(D1-K)*%
X155800000Y-115100000D03*
D20*
%TO.P,D8,2,A*%
%TO.N,Net-(D8-A)*%
X158340000Y-115100000D03*
%TD*%
D19*
%TO.P,D10,1,K*%
%TO.N,Net-(D1-K)*%
X142160000Y-108700000D03*
D20*
%TO.P,D10,2,A*%
%TO.N,Net-(D10-A)*%
X144700000Y-108700000D03*
%TD*%
D19*
%TO.P,D3,1,K*%
%TO.N,Net-(D1-K)*%
X155760000Y-100400000D03*
D20*
%TO.P,D3,2,A*%
%TO.N,Net-(D3-A)*%
X158300000Y-100400000D03*
%TD*%
D19*
%TO.P,D7,1,K*%
%TO.N,Net-(D1-K)*%
X163700000Y-111600000D03*
D20*
%TO.P,D7,2,A*%
%TO.N,Net-(D7-A)*%
X166240000Y-111600000D03*
%TD*%
D21*
%TO.N,Net-(D7-A)*%
X133200000Y-101500000D03*
X142100000Y-104600000D03*
%TD*%
D22*
%TO.N,TR*%
X134654888Y-113890000D02*
X133847892Y-113890000D01*
X127448892Y-107491000D02*
X130739892Y-104200000D01*
X130739892Y-104200000D02*
X131900000Y-104200000D01*
X131900000Y-104200000D02*
X132900000Y-103200000D01*
X133847892Y-113890000D02*
X127448892Y-107491000D01*
X132200000Y-101500000D02*
X131549150Y-101500000D01*
X132900000Y-103200000D02*
X132900000Y-102200000D01*
X132900000Y-102200000D02*
X132200000Y-101500000D01*
X131549150Y-101500000D02*
X128525000Y-98475850D01*
X128525000Y-98475850D02*
X128525000Y-98060000D01*
%TO.N,Net-(D1-A)*%
X125970000Y-66300000D02*
X140800000Y-81130000D01*
X140800000Y-81130000D02*
X140800000Y-96120000D01*
X140800000Y-96120000D02*
X139320000Y-97600000D01*
%TO.N,Net-(U1-DIS)*%
X124770000Y-86390000D02*
X122230000Y-86390000D01*
%TO.N,OUT*%
X139320000Y-89980000D02*
X139867700Y-89980000D01*
X120905000Y-98060000D02*
X119403000Y-96558000D01*
X119403000Y-96558000D02*
X119403000Y-92028740D01*
X123644000Y-92196050D02*
X128068950Y-96621000D01*
X119403000Y-92028740D02*
X123644000Y-87787740D01*
X128068950Y-96621000D02*
X132679000Y-96621000D01*
X123644000Y-87787740D02*
X123644000Y-92196050D01*
X132679000Y-96621000D02*
X139320000Y-89980000D01*
%TO.N,TR*%
X120905000Y-95520000D02*
X119804000Y-94419000D01*
X119804000Y-94419000D02*
X119804000Y-92194840D01*
X120119840Y-91879000D02*
X122344000Y-91879000D01*
X122344000Y-91879000D02*
X128525000Y-98060000D01*
X119804000Y-92194840D02*
X120119840Y-91879000D01*
%TO.N,+5V*%
X115910000Y-100500000D02*
X115910000Y-106390000D01*
X128525000Y-92980000D02*
X130576300Y-90928700D01*
X133291300Y-90928700D02*
X139320000Y-84900000D01*
X130576300Y-90928700D02*
X133291300Y-90928700D01*
X115910000Y-100500000D02*
X120805000Y-100500000D01*
X120805000Y-100500000D02*
X120905000Y-100600000D01*
%TO.N,Net-(U1-DIS)*%
X122230000Y-86390000D02*
X122230000Y-86560000D01*
X122230000Y-86560000D02*
X115910000Y-92880000D01*
X124770000Y-91765000D02*
X124770000Y-86390000D01*
X128525000Y-95520000D02*
X124770000Y-91765000D01*
%TO.N,GND*%
X139420000Y-105990000D02*
X133357050Y-105990000D01*
X133357050Y-105990000D02*
X132256050Y-104889000D01*
X132256050Y-104889000D02*
X131343950Y-104889000D01*
X131343950Y-104889000D02*
X130699000Y-105533950D01*
X130699000Y-105533950D02*
X130699000Y-107934112D01*
X130699000Y-107934112D02*
X136654888Y-113890000D01*
X121910000Y-106190000D02*
X119170000Y-108930000D01*
X119170000Y-108930000D02*
X115910000Y-108930000D01*
X131700000Y-102680000D02*
X131700000Y-102217950D01*
X131700000Y-102217950D02*
X128981050Y-99499000D01*
X128981050Y-99499000D02*
X128068950Y-99499000D01*
X128068950Y-99499000D02*
X121910000Y-105657950D01*
X121910000Y-105657950D02*
X121910000Y-106190000D01*
X121910000Y-106190000D02*
X122910000Y-105190000D01*
X122910000Y-94985000D02*
X120905000Y-92980000D01*
X122910000Y-105190000D02*
X122910000Y-94985000D01*
%TO.N,Net-(U1-CV)*%
X126910000Y-106190000D02*
X128525000Y-104575000D01*
X128525000Y-104575000D02*
X128525000Y-100600000D01*
%TO.N,Net-(D7-A)*%
X136300000Y-104600000D02*
X133200000Y-101500000D01*
X142100000Y-104600000D02*
X136300000Y-104600000D01*
%TO.N,Net-(D1-K)*%
X142160000Y-108700000D02*
X134510000Y-108700000D01*
X134510000Y-108700000D02*
X131800000Y-105990000D01*
X147660000Y-113900000D02*
X147360000Y-113900000D01*
X147360000Y-113900000D02*
X142160000Y-108700000D01*
X155800000Y-115100000D02*
X148860000Y-115100000D01*
X148860000Y-115100000D02*
X147660000Y-113900000D01*
X163700000Y-111600000D02*
X159300000Y-111600000D01*
X159300000Y-111600000D02*
X155800000Y-115100000D01*
X169930000Y-106000000D02*
X169300000Y-106000000D01*
X169300000Y-106000000D02*
X163700000Y-111600000D01*
X171460000Y-97100000D02*
X171460000Y-104470000D01*
X171460000Y-104470000D02*
X169930000Y-106000000D01*
X163360000Y-98600000D02*
X164860000Y-97100000D01*
X164860000Y-97100000D02*
X171460000Y-97100000D01*
X155760000Y-100400000D02*
X157560000Y-98600000D01*
X157560000Y-98600000D02*
X163360000Y-98600000D01*
X148360000Y-103300000D02*
X151260000Y-100400000D01*
X151260000Y-100400000D02*
X155760000Y-100400000D01*
X142160000Y-108700000D02*
X147560000Y-103300000D01*
X147560000Y-103300000D02*
X148360000Y-103300000D01*
%TD*%
%TA.AperFunction,Conductor*%
%TO.N,GND*%
G36*
X129957026Y-100777378D02*
G01*
X130008079Y-100808164D01*
X131064289Y-101864374D01*
X131064299Y-101864385D01*
X131068629Y-101868715D01*
X131068630Y-101868716D01*
X131180434Y-101980520D01*
X131255578Y-102023904D01*
X131317365Y-102059577D01*
X131449275Y-102094922D01*
X131454943Y-102097053D01*
X131471816Y-102109750D01*
X131498999Y-102125445D01*
X131659854Y-102286300D01*
X131648168Y-102286300D01*
X131548038Y-102313130D01*
X131458263Y-102364962D01*
X131384962Y-102438263D01*
X131333130Y-102528038D01*
X131306300Y-102628168D01*
X131306300Y-102639853D01*
X130729559Y-102063112D01*
X130729558Y-102063112D01*
X130718400Y-102078472D01*
X130718397Y-102078476D01*
X130636386Y-102239433D01*
X130580559Y-102411249D01*
X130552300Y-102589668D01*
X130552300Y-102770331D01*
X130580559Y-102948750D01*
X130636386Y-103120566D01*
X130718401Y-103281529D01*
X130806374Y-103402614D01*
X130829854Y-103468420D01*
X130814029Y-103536474D01*
X130763923Y-103585169D01*
X130706056Y-103599499D01*
X130660835Y-103599499D01*
X130554649Y-103627952D01*
X130508106Y-103640423D01*
X130464434Y-103665638D01*
X130464433Y-103665638D01*
X130371179Y-103719477D01*
X130371174Y-103719481D01*
X130259370Y-103831286D01*
X129336634Y-104754021D01*
X129317038Y-104764720D01*
X129300118Y-104779292D01*
X129286966Y-104781141D01*
X129275311Y-104787506D01*
X129253039Y-104785913D01*
X129230929Y-104789023D01*
X129218866Y-104783469D01*
X129205619Y-104782522D01*
X129187743Y-104769140D01*
X129167463Y-104759803D01*
X129160317Y-104748608D01*
X129149686Y-104740650D01*
X129141883Y-104719730D01*
X129129869Y-104700909D01*
X129128594Y-104684101D01*
X129125269Y-104675186D01*
X129124954Y-104665959D01*
X129124984Y-104655984D01*
X129125501Y-104654057D01*
X129125501Y-104495943D01*
X129125500Y-104495939D01*
X129125500Y-101829601D01*
X129145185Y-101762562D01*
X129193206Y-101719116D01*
X129206610Y-101712287D01*
X129372219Y-101591966D01*
X129516966Y-101447219D01*
X129516968Y-101447215D01*
X129516971Y-101447213D01*
X129589142Y-101347876D01*
X129637287Y-101281610D01*
X129730220Y-101099219D01*
X129793477Y-100904534D01*
X129797925Y-100876446D01*
X129827852Y-100813314D01*
X129887163Y-100776382D01*
X129957026Y-100777378D01*
G37*
%TD.AperFunction*%
%TA.AperFunction,Conductor*%
G36*
X138080424Y-87050351D02*
G01*
X138111957Y-87050802D01*
X138115007Y-87052824D01*
X138118661Y-87053086D01*
X138143910Y-87071987D01*
X138170190Y-87089412D01*
X138171663Y-87092764D01*
X138174594Y-87094958D01*
X138185614Y-87124503D01*
X138198304Y-87153375D01*
X138198233Y-87158336D01*
X138199011Y-87160422D01*
X138197800Y-87188666D01*
X138172300Y-87349668D01*
X138172300Y-87530331D01*
X138200559Y-87708750D01*
X138256386Y-87880566D01*
X138338401Y-88041529D01*
X138349558Y-88056886D01*
X138349559Y-88056886D01*
X138926300Y-87480145D01*
X138926300Y-87491832D01*
X138953130Y-87591962D01*
X139004962Y-87681737D01*
X139078263Y-87755038D01*
X139168038Y-87806870D01*
X139268168Y-87833700D01*
X139279852Y-87833700D01*
X138703112Y-88410438D01*
X138703112Y-88410439D01*
X138718477Y-88421602D01*
X138879433Y-88503613D01*
X139051249Y-88559440D01*
X139217340Y-88585747D01*
X139422659Y-88585747D01*
X139588750Y-88559440D01*
X139760566Y-88503613D01*
X139921530Y-88421598D01*
X140002614Y-88362687D01*
X140068420Y-88339206D01*
X140136474Y-88355031D01*
X140185169Y-88405136D01*
X140199500Y-88463004D01*
X140199500Y-88956376D01*
X140179815Y-89023415D01*
X140127011Y-89069170D01*
X140057853Y-89079114D01*
X140002616Y-89056695D01*
X139921790Y-88997973D01*
X139760758Y-88915923D01*
X139760757Y-88915922D01*
X139760756Y-88915922D01*
X139588871Y-88860073D01*
X139588869Y-88860072D01*
X139588867Y-88860072D01*
X139422659Y-88833747D01*
X139422658Y-88833747D01*
X139410365Y-88831800D01*
X139229635Y-88831800D01*
X139217342Y-88833747D01*
X139217340Y-88833747D01*
X139051132Y-88860072D01*
X138879241Y-88915923D01*
X138718208Y-88997974D01*
X138572003Y-89104196D01*
X138444196Y-89232003D01*
X138337974Y-89378208D01*
X138255923Y-89539241D01*
X138200072Y-89711132D01*
X138171800Y-89889635D01*
X138171800Y-90070365D01*
X138171799Y-90070365D01*
X138190437Y-90188040D01*
X138181482Y-90257333D01*
X138155645Y-90295118D01*
X133032954Y-95417810D01*
X132971631Y-95451295D01*
X132901939Y-95446311D01*
X132846006Y-95404439D01*
X132821589Y-95338975D01*
X132822800Y-95310731D01*
X132848200Y-95150364D01*
X132848200Y-94969635D01*
X132839213Y-94912892D01*
X132819927Y-94791129D01*
X132764078Y-94619244D01*
X132682028Y-94458212D01*
X132666649Y-94437045D01*
X132575803Y-94312003D01*
X132447996Y-94184196D01*
X132301791Y-94077974D01*
X132301790Y-94077973D01*
X132301788Y-94077972D01*
X132140756Y-93995922D01*
X131968871Y-93940073D01*
X131968869Y-93940072D01*
X131968867Y-93940072D01*
X131855420Y-93922103D01*
X131790365Y-93911800D01*
X131609635Y-93911800D01*
X131595745Y-93914000D01*
X131431132Y-93940072D01*
X131259241Y-93995923D01*
X131098208Y-94077974D01*
X130952003Y-94184196D01*
X130824196Y-94312003D01*
X130717974Y-94458208D01*
X130635923Y-94619241D01*
X130580072Y-94791132D01*
X130572588Y-94838386D01*
X130551800Y-94969635D01*
X130551800Y-95150365D01*
X130580073Y-95328871D01*
X130635922Y-95500756D01*
X130697878Y-95622352D01*
X130717974Y-95661791D01*
X130824196Y-95807996D01*
X130825019Y-95808819D01*
X130825230Y-95809206D01*
X130827359Y-95811698D01*
X130826835Y-95812145D01*
X130858504Y-95870142D01*
X130853520Y-95939834D01*
X130811648Y-95995767D01*
X130746184Y-96020184D01*
X130737338Y-96020500D01*
X129900476Y-96020500D01*
X129833437Y-96000815D01*
X129787682Y-95948011D01*
X129777738Y-95878853D01*
X129782545Y-95858183D01*
X129793475Y-95824542D01*
X129793475Y-95824538D01*
X129793477Y-95824534D01*
X129825500Y-95622352D01*
X129825500Y-95417648D01*
X129793477Y-95215466D01*
X129730220Y-95020781D01*
X129730218Y-95020778D01*
X129730218Y-95020776D01*
X129675818Y-94914012D01*
X129637287Y-94838390D01*
X129629556Y-94827749D01*
X129516971Y-94672786D01*
X129372213Y-94528028D01*
X129206614Y-94407715D01*
X129199884Y-94404286D01*
X129113917Y-94360483D01*
X129063123Y-94312511D01*
X129046328Y-94244690D01*
X129068865Y-94178555D01*
X129113917Y-94139516D01*
X129206610Y-94092287D01*
X129283566Y-94036376D01*
X129372213Y-93971971D01*
X129372215Y-93971968D01*
X129372219Y-93971966D01*
X129516966Y-93827219D01*
X129516968Y-93827215D01*
X129516971Y-93827213D01*
X129569732Y-93754590D01*
X129637287Y-93661610D01*
X129730220Y-93479219D01*
X129793477Y-93284534D01*
X129825500Y-93082352D01*
X129825500Y-92877648D01*
X129802810Y-92734394D01*
X129793478Y-92675472D01*
X129793477Y-92675471D01*
X129793477Y-92675466D01*
X129788825Y-92661151D01*
X129786832Y-92591312D01*
X129819075Y-92535158D01*
X130457276Y-91896958D01*
X130518598Y-91863474D01*
X130588290Y-91868458D01*
X130644223Y-91910330D01*
X130668640Y-91975794D01*
X130655441Y-92040934D01*
X130635924Y-92079238D01*
X130580072Y-92251132D01*
X130551800Y-92429635D01*
X130551800Y-92610364D01*
X130580053Y-92788750D01*
X130580073Y-92788871D01*
X130635922Y-92960756D01*
X130717840Y-93121529D01*
X130717974Y-93121791D01*
X130824196Y-93267996D01*
X130952003Y-93395803D01*
X131066818Y-93479219D01*
X131098212Y-93502028D01*
X131259244Y-93584078D01*
X131431129Y-93639927D01*
X131609635Y-93668200D01*
X131790365Y-93668200D01*
X131968871Y-93639927D01*
X132140756Y-93584078D01*
X132301788Y-93502028D01*
X132394002Y-93435031D01*
X132447996Y-93395803D01*
X132447998Y-93395800D01*
X132448002Y-93395798D01*
X132575798Y-93268002D01*
X132575800Y-93267998D01*
X132575803Y-93267996D01*
X132629824Y-93193641D01*
X132682028Y-93121788D01*
X132764078Y-92960756D01*
X132819927Y-92788871D01*
X132848200Y-92610365D01*
X132848200Y-92429635D01*
X132819927Y-92251129D01*
X132764078Y-92079244D01*
X132682028Y-91918212D01*
X132642259Y-91863474D01*
X132575803Y-91772003D01*
X132544681Y-91740881D01*
X132511196Y-91679558D01*
X132516180Y-91609866D01*
X132558052Y-91553933D01*
X132623516Y-91529516D01*
X132632362Y-91529200D01*
X133204631Y-91529200D01*
X133204647Y-91529201D01*
X133212243Y-91529201D01*
X133370354Y-91529201D01*
X133370357Y-91529201D01*
X133523085Y-91488277D01*
X133523087Y-91488275D01*
X133523089Y-91488275D01*
X133523090Y-91488274D01*
X133579124Y-91455923D01*
X133579125Y-91455922D01*
X133660016Y-91409220D01*
X133771820Y-91297416D01*
X133771820Y-91297414D01*
X133782024Y-91287211D01*
X133782028Y-91287206D01*
X137987648Y-87081585D01*
X138015319Y-87066476D01*
X138042094Y-87049804D01*
X138045756Y-87049856D01*
X138048969Y-87048102D01*
X138080424Y-87050351D01*
G37*
%TD.AperFunction*%
%TA.AperFunction,Conductor*%
G36*
X132058770Y-50400884D02*
G01*
X132758448Y-50406015D01*
X132759697Y-50406031D01*
X133458508Y-50418644D01*
X133460998Y-50418715D01*
X133923150Y-50436993D01*
X133927096Y-50437212D01*
X134387674Y-50470330D01*
X134391626Y-50470678D01*
X134850935Y-50518635D01*
X134854743Y-50519093D01*
X135775300Y-50644355D01*
X135778909Y-50644903D01*
X136695281Y-50797885D01*
X136698857Y-50798537D01*
X137610261Y-50979112D01*
X137613869Y-50979884D01*
X138401700Y-51160839D01*
X138519208Y-51187829D01*
X138523041Y-51188774D01*
X139110586Y-51343569D01*
X139160044Y-51356599D01*
X139164041Y-51357724D01*
X139173647Y-51360602D01*
X139795013Y-51546769D01*
X139798893Y-51548002D01*
X140423226Y-51758086D01*
X140427062Y-51759448D01*
X141044035Y-51990329D01*
X141047835Y-51991825D01*
X141458180Y-52161256D01*
X141656306Y-52243062D01*
X141660264Y-52244777D01*
X142221693Y-52499796D01*
X142225732Y-52501719D01*
X142777292Y-52776665D01*
X142781213Y-52778708D01*
X143247348Y-53032454D01*
X143322513Y-53073371D01*
X143326402Y-53075580D01*
X143856692Y-53389551D01*
X143860495Y-53391896D01*
X144379304Y-53724903D01*
X144383005Y-53727375D01*
X144889348Y-54078774D01*
X144892972Y-54081387D01*
X145386486Y-54450918D01*
X145389983Y-54453636D01*
X145696302Y-54700712D01*
X145869877Y-54840717D01*
X145873303Y-54843584D01*
X146338917Y-55247682D01*
X146342210Y-55250645D01*
X146793173Y-55671451D01*
X146795314Y-55673498D01*
X146971285Y-55845747D01*
X146972322Y-55846774D01*
X147146423Y-56021252D01*
X147147447Y-56022290D01*
X147319624Y-56198948D01*
X147320530Y-56199887D01*
X147361733Y-56243075D01*
X147504054Y-56392252D01*
X147504868Y-56393114D01*
X147686566Y-56587250D01*
X147687373Y-56588120D01*
X147867392Y-56784187D01*
X147868195Y-56785070D01*
X148031787Y-56966727D01*
X148032586Y-56967623D01*
X148194491Y-57150945D01*
X148195281Y-57151849D01*
X148355108Y-57336388D01*
X148356500Y-57338023D01*
X148462981Y-57465358D01*
X148464936Y-57467756D01*
X148567863Y-57597277D01*
X148569759Y-57599725D01*
X148669129Y-57731390D01*
X148671544Y-57734702D01*
X148856555Y-57997525D01*
X149045533Y-58265982D01*
X149048397Y-58270235D01*
X149399828Y-58816104D01*
X149402514Y-58820473D01*
X149731052Y-59380366D01*
X149733556Y-59384841D01*
X150038695Y-59957901D01*
X150041011Y-59962477D01*
X150322363Y-60548015D01*
X150324307Y-60552263D01*
X150603068Y-61193205D01*
X150604684Y-61197100D01*
X150861646Y-61847544D01*
X150863128Y-61851493D01*
X151097816Y-62510279D01*
X151099164Y-62514274D01*
X151311337Y-63180719D01*
X151312547Y-63184759D01*
X151501968Y-63858155D01*
X151503032Y-63862197D01*
X151659442Y-64499973D01*
X151672901Y-64554851D01*
X151673821Y-64558892D01*
X151820498Y-65257060D01*
X151821282Y-65261129D01*
X151944541Y-65963763D01*
X151945189Y-65967855D01*
X152044911Y-66674270D01*
X152045421Y-66678383D01*
X152121453Y-67387475D01*
X152121839Y-67391780D01*
X152171580Y-68081822D01*
X152171822Y-68086316D01*
X152196481Y-68777492D01*
X152196560Y-68781992D01*
X152196120Y-69473632D01*
X152196035Y-69478132D01*
X152170496Y-70169248D01*
X152170249Y-70173742D01*
X152119620Y-70863858D01*
X152119277Y-70867707D01*
X152045005Y-71576566D01*
X152044627Y-71579771D01*
X151951891Y-72286773D01*
X151951430Y-72289967D01*
X151840319Y-72994364D01*
X151839774Y-72997545D01*
X151710403Y-73698622D01*
X151709680Y-73702238D01*
X151572805Y-74337498D01*
X151571864Y-74341538D01*
X151413844Y-74971756D01*
X151412768Y-74975763D01*
X151233750Y-75600358D01*
X151232540Y-75604326D01*
X151032716Y-76222623D01*
X151031381Y-76226530D01*
X150809373Y-76842579D01*
X150807916Y-76846421D01*
X150565577Y-77454871D01*
X150563993Y-77458664D01*
X150301643Y-78058705D01*
X150299935Y-78062443D01*
X150017654Y-78653857D01*
X150016059Y-78657076D01*
X149683359Y-79305133D01*
X149681921Y-79307852D01*
X149333030Y-79947865D01*
X149331524Y-79950547D01*
X148966909Y-80581635D01*
X148965338Y-80584279D01*
X148584628Y-81207036D01*
X148583818Y-81208342D01*
X148453017Y-81416458D01*
X148194813Y-81837117D01*
X147941081Y-82260487D01*
X147850659Y-82415052D01*
X147850660Y-82415053D01*
X147816470Y-82473497D01*
X147787211Y-82523512D01*
X147787209Y-82523513D01*
X147713702Y-82649169D01*
X147515036Y-83004499D01*
X147323330Y-83363654D01*
X147260906Y-83486301D01*
X147260907Y-83486302D01*
X147231020Y-83545025D01*
X147231019Y-83545024D01*
X147231019Y-83545026D01*
X147220791Y-83565121D01*
X147198259Y-83609394D01*
X147198248Y-83609419D01*
X147159429Y-83685695D01*
X147053297Y-83904807D01*
X147021802Y-83969828D01*
X146889837Y-84256542D01*
X146855228Y-84335809D01*
X146855227Y-84335808D01*
X146855222Y-84335819D01*
X146855223Y-84335820D01*
X146831643Y-84389833D01*
X146826678Y-84401206D01*
X146826675Y-84401213D01*
X146797335Y-84468413D01*
X146797257Y-84468624D01*
X146793914Y-84476282D01*
X146793906Y-84476302D01*
X146744136Y-84632352D01*
X146744134Y-84632360D01*
X146710652Y-84792702D01*
X146710651Y-84792710D01*
X146693813Y-84955650D01*
X146693813Y-84964093D01*
X146693813Y-84971722D01*
X146693805Y-84971754D01*
X146693811Y-85037559D01*
X146693811Y-85037645D01*
X146693811Y-85037672D01*
X146693810Y-85046221D01*
X146693810Y-85046289D01*
X146693741Y-85148001D01*
X146693742Y-85148005D01*
X146693742Y-85148009D01*
X146724847Y-85366532D01*
X146774440Y-85537274D01*
X146786415Y-85578501D01*
X146828435Y-85671598D01*
X146875466Y-85775798D01*
X146877221Y-85779685D01*
X146994185Y-85964078D01*
X146995450Y-85966072D01*
X147017152Y-85991497D01*
X147138750Y-86133955D01*
X147172578Y-86163754D01*
X147221564Y-86206907D01*
X147270975Y-86250500D01*
X147271001Y-86250513D01*
X147277048Y-86255848D01*
X147277049Y-86255849D01*
X147277053Y-86255852D01*
X147364706Y-86333178D01*
X147419959Y-86376386D01*
X147665341Y-86568278D01*
X147665368Y-86568297D01*
X147978449Y-86784571D01*
X147979354Y-86785196D01*
X148305640Y-86983168D01*
X148444325Y-87056456D01*
X148474357Y-87072328D01*
X148474357Y-87072327D01*
X148481120Y-87075902D01*
X148491877Y-87081587D01*
X148513946Y-87093251D01*
X148513952Y-87093256D01*
X148513953Y-87093255D01*
X148679874Y-87180960D01*
X149101291Y-87377328D01*
X149101311Y-87377336D01*
X149531991Y-87552315D01*
X149532004Y-87552319D01*
X149532020Y-87552326D01*
X149970980Y-87705514D01*
X150182497Y-87767611D01*
X150182500Y-87767611D01*
X150194025Y-87770997D01*
X150194025Y-87770996D01*
X150194028Y-87770997D01*
X150194027Y-87770997D01*
X150257250Y-87789563D01*
X150257255Y-87789563D01*
X150265724Y-87792050D01*
X150265798Y-87792066D01*
X150430695Y-87840489D01*
X150909245Y-87960310D01*
X150909250Y-87960311D01*
X150909254Y-87960312D01*
X151137511Y-88007784D01*
X151392232Y-88060760D01*
X151878873Y-88141678D01*
X152058239Y-88164123D01*
X152058247Y-88164126D01*
X152077108Y-88166486D01*
X152077120Y-88166491D01*
X152123629Y-88172308D01*
X152123629Y-88172309D01*
X152183265Y-88179768D01*
X152183280Y-88179775D01*
X152183281Y-88179771D01*
X152244459Y-88187432D01*
X152244506Y-88187430D01*
X152385988Y-88205130D01*
X152912668Y-88252511D01*
X153440676Y-88281561D01*
X153630715Y-88285404D01*
X153630719Y-88285405D01*
X153639142Y-88285575D01*
X153639150Y-88285578D01*
X153675889Y-88286319D01*
X153705026Y-88286908D01*
X153705026Y-88286909D01*
X153770904Y-88288240D01*
X153770904Y-88288239D01*
X154167840Y-88296259D01*
X155093568Y-88308699D01*
X156019358Y-88314879D01*
X156407683Y-88314842D01*
X156416368Y-88314842D01*
X156416371Y-88314844D01*
X156432108Y-88314842D01*
X156437209Y-88316339D01*
X156480193Y-88314906D01*
X156484322Y-88314837D01*
X156506909Y-88314836D01*
X156506919Y-88314834D01*
X156947140Y-88314797D01*
X157876869Y-88308125D01*
X157876929Y-88308124D01*
X157876949Y-88308124D01*
X158149321Y-88304237D01*
X158806527Y-88294861D01*
X159271298Y-88284934D01*
X159558492Y-88278805D01*
X160132273Y-88249698D01*
X160132277Y-88249697D01*
X160132290Y-88249697D01*
X160357233Y-88231660D01*
X160704954Y-88203779D01*
X160924997Y-88179618D01*
X160924999Y-88179619D01*
X160990498Y-88172428D01*
X160990501Y-88172427D01*
X160990504Y-88172428D01*
X161053969Y-88165460D01*
X161104560Y-88159907D01*
X161332305Y-88131617D01*
X161559623Y-88100086D01*
X161607912Y-88092684D01*
X161607915Y-88092685D01*
X161673047Y-88082703D01*
X161707654Y-88077399D01*
X161738178Y-88072721D01*
X161738178Y-88072720D01*
X161783563Y-88065765D01*
X161783567Y-88065763D01*
X161832537Y-88058259D01*
X162151272Y-88007790D01*
X162265335Y-87989147D01*
X162469700Y-87955747D01*
X162483200Y-87953471D01*
X162562469Y-87940111D01*
X162563878Y-87939874D01*
X162563882Y-87939875D01*
X162572141Y-87938483D01*
X162572145Y-87938483D01*
X162596810Y-87934325D01*
X162628858Y-87928924D01*
X162628861Y-87928923D01*
X162628861Y-87928924D01*
X162669955Y-87921997D01*
X162803955Y-87899415D01*
X163153853Y-87838671D01*
X163503448Y-87776204D01*
X163613278Y-87756019D01*
X163613281Y-87756020D01*
X163678088Y-87744110D01*
X163678088Y-87744109D01*
X163678089Y-87744109D01*
X163678089Y-87744110D01*
X163742896Y-87732200D01*
X163742896Y-87732199D01*
X163755348Y-87729910D01*
X163844360Y-87713553D01*
X164107734Y-87663589D01*
X164176432Y-87650557D01*
X164176462Y-87650550D01*
X164176547Y-87650535D01*
X164508368Y-87585612D01*
X164597407Y-87567659D01*
X164597411Y-87567659D01*
X164609493Y-87565223D01*
X164609497Y-87565224D01*
X164616510Y-87563810D01*
X164616514Y-87563810D01*
X164674090Y-87552201D01*
X164674090Y-87552202D01*
X165146963Y-87456864D01*
X166089174Y-87249432D01*
X167027557Y-87025310D01*
X167961813Y-86784571D01*
X168363222Y-86673502D01*
X168363224Y-86673502D01*
X168367503Y-86672318D01*
X168367506Y-86672318D01*
X168391225Y-86665754D01*
X168426730Y-86655931D01*
X168426729Y-86655930D01*
X168426732Y-86655929D01*
X168426732Y-86655930D01*
X168438415Y-86652697D01*
X168483103Y-86640333D01*
X168483116Y-86640328D01*
X168490238Y-86638358D01*
X168490244Y-86638352D01*
X168497019Y-86636476D01*
X168500980Y-86635381D01*
X168500988Y-86635381D01*
X168501008Y-86635373D01*
X168713494Y-86576583D01*
X168879657Y-86530610D01*
X168905022Y-86523062D01*
X169780576Y-86262556D01*
X170676148Y-85977212D01*
X171566060Y-85674678D01*
X171946051Y-85537274D01*
X171946053Y-85537274D01*
X172008019Y-85514868D01*
X172069985Y-85492462D01*
X172069985Y-85492460D01*
X172091831Y-85484562D01*
X172092108Y-85484460D01*
X172456384Y-85352742D01*
X173346814Y-85011576D01*
X174230625Y-84653610D01*
X175107499Y-84278972D01*
X175482217Y-84110418D01*
X175482220Y-84110418D01*
X175542313Y-84083387D01*
X175542312Y-84083386D01*
X175601674Y-84056685D01*
X175601676Y-84056684D01*
X175618333Y-84049191D01*
X175618346Y-84049182D01*
X176000666Y-83877206D01*
X176000684Y-83877198D01*
X176571284Y-83609419D01*
X176910629Y-83450167D01*
X177813610Y-83008556D01*
X178709375Y-82552488D01*
X179009316Y-82393657D01*
X179121999Y-82333987D01*
X179131449Y-82328981D01*
X179153536Y-82317286D01*
X180130019Y-81805531D01*
X180130931Y-81805059D01*
X181111290Y-81301927D01*
X181112053Y-81301539D01*
X182095895Y-80807218D01*
X182098631Y-80805886D01*
X182644583Y-80548490D01*
X182649209Y-80546425D01*
X183204458Y-80312296D01*
X183209170Y-80310424D01*
X183773076Y-80099761D01*
X183778825Y-80097773D01*
X184046456Y-80012558D01*
X184053187Y-80010625D01*
X184324714Y-79940936D01*
X184331537Y-79939391D01*
X184606583Y-79885292D01*
X184613548Y-79884127D01*
X184889938Y-79845970D01*
X184899154Y-79845048D01*
X185110641Y-79831827D01*
X185122086Y-79831642D01*
X185332650Y-79837979D01*
X185344066Y-79838853D01*
X185553125Y-79864612D01*
X185564405Y-79866535D01*
X185772224Y-79911943D01*
X185779434Y-79913747D01*
X185849256Y-79933461D01*
X185852455Y-79934412D01*
X185923687Y-79956665D01*
X185926858Y-79957704D01*
X185997504Y-79981936D01*
X186000574Y-79983034D01*
X186073780Y-80010344D01*
X186076639Y-80011452D01*
X186149219Y-80040667D01*
X186152110Y-80041875D01*
X186223822Y-80072901D01*
X186226729Y-80074203D01*
X186279575Y-80098707D01*
X186288115Y-80102667D01*
X186291042Y-80104071D01*
X186351622Y-80134113D01*
X186354454Y-80135564D01*
X186412776Y-80166414D01*
X186418421Y-80169592D01*
X186426885Y-80174654D01*
X186435032Y-80179973D01*
X186441738Y-80184736D01*
X186449463Y-80190693D01*
X186454985Y-80195309D01*
X186463663Y-80203295D01*
X186645588Y-80387423D01*
X186654757Y-80397803D01*
X186814414Y-80600310D01*
X186822368Y-80611649D01*
X186958438Y-80830686D01*
X186965078Y-80842840D01*
X187076816Y-81077665D01*
X187080458Y-81086112D01*
X187312448Y-81684368D01*
X187331053Y-81732345D01*
X187332617Y-81736610D01*
X187379285Y-81871420D01*
X187560068Y-82393657D01*
X187561476Y-82397979D01*
X187764807Y-83063307D01*
X187765849Y-83066911D01*
X187944818Y-83722901D01*
X187945562Y-83725763D01*
X188108927Y-84386199D01*
X188109603Y-84389078D01*
X188257177Y-85053243D01*
X188257784Y-85056137D01*
X188389542Y-85723953D01*
X188390017Y-85726499D01*
X188582602Y-86822720D01*
X188582967Y-86824914D01*
X188755915Y-87924746D01*
X188756240Y-87926945D01*
X188909421Y-89029574D01*
X188909705Y-89031760D01*
X188956925Y-89422487D01*
X188957168Y-89424654D01*
X188997508Y-89816149D01*
X188997708Y-89818278D01*
X189003795Y-89889635D01*
X189031161Y-90210520D01*
X189031311Y-90212460D01*
X189061114Y-90641306D01*
X189061221Y-90643016D01*
X189085107Y-91072395D01*
X189085190Y-91074105D01*
X189103147Y-91503808D01*
X189103198Y-91505227D01*
X189120740Y-92083794D01*
X189120769Y-92084924D01*
X189133037Y-92663657D01*
X189133056Y-92664787D01*
X189140050Y-93243684D01*
X189140057Y-93244406D01*
X189145775Y-94158237D01*
X189145776Y-94158552D01*
X189146812Y-94437128D01*
X189148791Y-94969635D01*
X189149172Y-95071941D01*
X189149173Y-95072256D01*
X189150248Y-95986709D01*
X189150248Y-95986999D01*
X189149078Y-96993127D01*
X189149077Y-96993393D01*
X189147436Y-97489755D01*
X189146162Y-97875500D01*
X189145751Y-97999703D01*
X189145750Y-97999968D01*
X189140270Y-99006171D01*
X189140262Y-99007053D01*
X189133595Y-99537837D01*
X189133567Y-99539336D01*
X189120498Y-100069486D01*
X189120452Y-100070984D01*
X189100987Y-100600657D01*
X189100898Y-100602656D01*
X189080081Y-100996024D01*
X189079923Y-100998522D01*
X189051195Y-101391060D01*
X189050987Y-101393554D01*
X189014330Y-101785570D01*
X189014109Y-101787735D01*
X188965458Y-102225065D01*
X188965239Y-102226902D01*
X188910070Y-102663439D01*
X188909825Y-102665273D01*
X188848153Y-103100907D01*
X188847822Y-103103102D01*
X188668178Y-104226739D01*
X188667743Y-104229292D01*
X188464694Y-105348827D01*
X188464205Y-105351370D01*
X188237807Y-106466485D01*
X188237259Y-106469042D01*
X188069194Y-107215724D01*
X188068587Y-107218294D01*
X187884624Y-107961368D01*
X187883962Y-107963925D01*
X187684222Y-108702892D01*
X187683506Y-108705434D01*
X187468089Y-109439924D01*
X187467301Y-109442507D01*
X187244623Y-110144743D01*
X187243759Y-110147365D01*
X187005533Y-110844380D01*
X187004611Y-110846982D01*
X186750937Y-111538496D01*
X186749958Y-111541077D01*
X186480898Y-112226909D01*
X186479755Y-112229720D01*
X186084035Y-113170059D01*
X186082711Y-113173091D01*
X185662015Y-114102614D01*
X185660611Y-114105609D01*
X185215329Y-115023459D01*
X185213753Y-115026594D01*
X184739758Y-115937078D01*
X184737995Y-115940344D01*
X184237051Y-116836086D01*
X184235192Y-116839298D01*
X183707631Y-117719706D01*
X183705676Y-117722860D01*
X183152017Y-118587069D01*
X183149968Y-118590163D01*
X182570724Y-119437378D01*
X182568584Y-119440410D01*
X181964229Y-120269935D01*
X181961999Y-120272902D01*
X181333074Y-121083993D01*
X181330756Y-121086891D01*
X180677666Y-121879009D01*
X180675222Y-121881884D01*
X180006734Y-122644184D01*
X180004160Y-122647029D01*
X179312196Y-123388516D01*
X179309536Y-123391279D01*
X178594983Y-124110990D01*
X178592238Y-124113671D01*
X177855747Y-124810950D01*
X177852921Y-124813544D01*
X177095208Y-125487710D01*
X177092303Y-125490215D01*
X176314109Y-126140611D01*
X176311128Y-126143025D01*
X175513181Y-126769043D01*
X175510126Y-126771364D01*
X174693105Y-127372464D01*
X174690070Y-127374628D01*
X173813290Y-127979938D01*
X173810282Y-127981950D01*
X172916139Y-128561460D01*
X172913073Y-128563384D01*
X172002365Y-129116575D01*
X171999245Y-129118409D01*
X171072781Y-129644788D01*
X171069609Y-129646529D01*
X170128217Y-130145626D01*
X170124995Y-130147275D01*
X169169374Y-130618718D01*
X169166105Y-130620271D01*
X168197212Y-131063590D01*
X168193900Y-131065048D01*
X167212181Y-131480029D01*
X167209044Y-131481305D01*
X165961076Y-131969109D01*
X165958124Y-131970220D01*
X164697885Y-132426221D01*
X164694906Y-132427256D01*
X163423490Y-132851053D01*
X163420485Y-132852012D01*
X162138736Y-133243324D01*
X162135708Y-133244207D01*
X160844359Y-133602810D01*
X160841309Y-133603615D01*
X159541286Y-133929249D01*
X159538217Y-133929976D01*
X158230261Y-134222456D01*
X158227473Y-134223046D01*
X157154812Y-134437154D01*
X157152311Y-134437627D01*
X156075348Y-134629699D01*
X156072838Y-134630120D01*
X154992166Y-134800048D01*
X154989648Y-134800417D01*
X153905595Y-134948145D01*
X153903484Y-134948415D01*
X152657001Y-135096531D01*
X152655299Y-135096721D01*
X151406784Y-135227620D01*
X151405079Y-135227787D01*
X150154817Y-135341437D01*
X150153111Y-135341580D01*
X148901465Y-135437948D01*
X148899756Y-135438068D01*
X147648935Y-135517006D01*
X147647224Y-135517102D01*
X146395444Y-135578746D01*
X146393732Y-135578818D01*
X145141291Y-135623154D01*
X145139578Y-135623203D01*
X143886722Y-135650222D01*
X143884575Y-135650250D01*
X142797360Y-135654868D01*
X142794779Y-135654852D01*
X141707833Y-135636849D01*
X141705254Y-135636779D01*
X140618966Y-135596164D01*
X140616389Y-135596041D01*
X139661444Y-135540419D01*
X139531198Y-135532833D01*
X139528549Y-135532651D01*
X138328250Y-135436841D01*
X138325516Y-135436592D01*
X137127736Y-135314242D01*
X137125008Y-135313933D01*
X135930174Y-135165088D01*
X135927454Y-135164718D01*
X134736297Y-134989471D01*
X134733585Y-134989042D01*
X133546490Y-134787449D01*
X133543789Y-134786959D01*
X132361537Y-134559151D01*
X132358847Y-134558602D01*
X131181866Y-134304662D01*
X131179189Y-134304053D01*
X130008603Y-134024234D01*
X130005660Y-134023492D01*
X128917288Y-133734988D01*
X128914084Y-133734093D01*
X127834241Y-133416618D01*
X127831063Y-133415637D01*
X126760148Y-133069320D01*
X126756997Y-133068254D01*
X125695756Y-132693337D01*
X125692635Y-132692187D01*
X124641838Y-132288944D01*
X124638749Y-132287711D01*
X124092495Y-132061095D01*
X123599123Y-131856417D01*
X123596068Y-131855101D01*
X122568419Y-131396094D01*
X122565400Y-131394697D01*
X121550269Y-130908213D01*
X121547166Y-130906673D01*
X120618366Y-130429209D01*
X120615186Y-130427515D01*
X119700540Y-129923212D01*
X119697411Y-129921427D01*
X118797797Y-129390763D01*
X118794721Y-129388888D01*
X117910881Y-128832301D01*
X117907861Y-128830337D01*
X117040580Y-128248322D01*
X117037618Y-128246271D01*
X116187609Y-127639305D01*
X116184708Y-127637169D01*
X115352702Y-127005776D01*
X115349864Y-127003557D01*
X115134270Y-126829850D01*
X114536364Y-126348110D01*
X114533312Y-126345569D01*
X114297866Y-126143025D01*
X113795749Y-125711074D01*
X113792481Y-125708161D01*
X113077658Y-125047852D01*
X113074509Y-125044838D01*
X112383463Y-124359663D01*
X112380443Y-124356561D01*
X112346686Y-124320637D01*
X111769295Y-123706177D01*
X111714061Y-123647397D01*
X111711116Y-123644150D01*
X111070215Y-122911869D01*
X111067387Y-122908519D01*
X110452816Y-122154092D01*
X110450107Y-122150645D01*
X109862538Y-121374898D01*
X109859954Y-121371357D01*
X109732002Y-121189404D01*
X109299984Y-120575054D01*
X109297736Y-120571743D01*
X108800590Y-119812781D01*
X108798560Y-119809576D01*
X108324705Y-119035499D01*
X108322774Y-119032234D01*
X107872796Y-118243978D01*
X107871009Y-118240731D01*
X107445358Y-117439085D01*
X107443639Y-117435723D01*
X107151164Y-116841100D01*
X107149508Y-116837595D01*
X106996649Y-116500498D01*
X106875840Y-116234081D01*
X106874300Y-116230536D01*
X106848378Y-116168243D01*
X106619735Y-115618791D01*
X106618301Y-115615186D01*
X106587037Y-115532860D01*
X106383055Y-114995732D01*
X106381738Y-114992092D01*
X106380941Y-114989778D01*
X106166061Y-114365586D01*
X106164832Y-114361821D01*
X106157224Y-114337183D01*
X105976299Y-113751277D01*
X105975184Y-113747443D01*
X105806716Y-113131092D01*
X105805736Y-113127260D01*
X105657502Y-112505732D01*
X105656627Y-112501777D01*
X105652142Y-112479815D01*
X105528788Y-111875744D01*
X105528059Y-111871851D01*
X105420729Y-111241848D01*
X105420136Y-111237993D01*
X105419211Y-111231286D01*
X105330606Y-110589123D01*
X105330148Y-110585384D01*
X105324413Y-110531756D01*
X105260483Y-109933964D01*
X105260138Y-109930190D01*
X105216405Y-109355601D01*
X105210420Y-109276981D01*
X105210191Y-109273203D01*
X105203368Y-109122993D01*
X105180461Y-108618705D01*
X105180350Y-108615027D01*
X105170639Y-107959797D01*
X105170641Y-107955939D01*
X105181829Y-107269489D01*
X105181956Y-107265591D01*
X105182343Y-107257547D01*
X105214880Y-106579780D01*
X105215130Y-106575876D01*
X105217894Y-106541247D01*
X105269753Y-105891476D01*
X105270162Y-105887279D01*
X105270653Y-105882993D01*
X105315426Y-105492135D01*
X114559500Y-105492135D01*
X114559500Y-107287870D01*
X114559501Y-107287876D01*
X114565908Y-107347483D01*
X114616202Y-107482328D01*
X114616206Y-107482335D01*
X114702452Y-107597544D01*
X114702455Y-107597547D01*
X114817664Y-107683793D01*
X114817671Y-107683797D01*
X114835643Y-107690500D01*
X114952517Y-107734091D01*
X115012127Y-107740500D01*
X115022685Y-107740499D01*
X115089723Y-107760179D01*
X115110372Y-107776818D01*
X115780591Y-108447037D01*
X115717007Y-108464075D01*
X115602993Y-108529901D01*
X115509901Y-108622993D01*
X115444075Y-108737007D01*
X115427037Y-108800591D01*
X114794728Y-108168282D01*
X114794727Y-108168282D01*
X114755380Y-108222439D01*
X114658904Y-108411782D01*
X114593242Y-108613869D01*
X114593242Y-108613872D01*
X114560000Y-108823753D01*
X114560000Y-109036246D01*
X114593242Y-109246127D01*
X114593242Y-109246130D01*
X114658904Y-109448217D01*
X114755375Y-109637550D01*
X114794728Y-109691716D01*
X115427037Y-109059408D01*
X115444075Y-109122993D01*
X115509901Y-109237007D01*
X115602993Y-109330099D01*
X115717007Y-109395925D01*
X115780590Y-109412962D01*
X115148282Y-110045269D01*
X115148282Y-110045270D01*
X115202449Y-110084624D01*
X115391782Y-110181095D01*
X115593870Y-110246757D01*
X115803754Y-110280000D01*
X116016246Y-110280000D01*
X116226127Y-110246757D01*
X116226130Y-110246757D01*
X116428217Y-110181095D01*
X116617554Y-110084622D01*
X116671716Y-110045270D01*
X116671717Y-110045270D01*
X116039408Y-109412962D01*
X116102993Y-109395925D01*
X116217007Y-109330099D01*
X116310099Y-109237007D01*
X116375925Y-109122993D01*
X116392962Y-109059408D01*
X117025270Y-109691717D01*
X117025270Y-109691716D01*
X117064622Y-109637554D01*
X117161095Y-109448217D01*
X117226757Y-109246130D01*
X117226757Y-109246127D01*
X117260000Y-109036246D01*
X117260000Y-108823753D01*
X117226757Y-108613872D01*
X117226757Y-108613869D01*
X117161095Y-108411782D01*
X117064624Y-108222449D01*
X117025270Y-108168282D01*
X117025269Y-108168282D01*
X116392962Y-108800590D01*
X116375925Y-108737007D01*
X116310099Y-108622993D01*
X116217007Y-108529901D01*
X116102993Y-108464075D01*
X116039409Y-108447037D01*
X116709627Y-107776818D01*
X116770950Y-107743333D01*
X116797307Y-107740499D01*
X116807872Y-107740499D01*
X116867483Y-107734091D01*
X117002331Y-107683796D01*
X117117546Y-107597546D01*
X117203796Y-107482331D01*
X117254091Y-107347483D01*
X117260500Y-107287873D01*
X117260499Y-106071947D01*
X120410000Y-106071947D01*
X120410000Y-106308052D01*
X120446934Y-106541247D01*
X120519897Y-106765802D01*
X120627087Y-106976174D01*
X120687338Y-107059104D01*
X120687340Y-107059105D01*
X121427037Y-106319408D01*
X121444075Y-106382993D01*
X121509901Y-106497007D01*
X121602993Y-106590099D01*
X121717007Y-106655925D01*
X121780590Y-106672962D01*
X121040893Y-107412658D01*
X121123828Y-107472914D01*
X121334197Y-107580102D01*
X121558752Y-107653065D01*
X121558751Y-107653065D01*
X121791948Y-107690000D01*
X122028052Y-107690000D01*
X122261247Y-107653065D01*
X122485802Y-107580102D01*
X122696163Y-107472918D01*
X122696169Y-107472914D01*
X122779104Y-107412658D01*
X122779105Y-107412658D01*
X122039408Y-106672962D01*
X122102993Y-106655925D01*
X122217007Y-106590099D01*
X122310099Y-106497007D01*
X122375925Y-106382993D01*
X122392962Y-106319408D01*
X123132658Y-107059105D01*
X123132658Y-107059104D01*
X123192914Y-106976169D01*
X123192918Y-106976163D01*
X123300102Y-106765802D01*
X123373065Y-106541247D01*
X123410000Y-106308052D01*
X123410000Y-106071947D01*
X123373065Y-105838752D01*
X123300102Y-105614197D01*
X123192914Y-105403828D01*
X123132658Y-105320894D01*
X123132658Y-105320893D01*
X122392962Y-106060590D01*
X122375925Y-105997007D01*
X122310099Y-105882993D01*
X122217007Y-105789901D01*
X122102993Y-105724075D01*
X122039409Y-105707037D01*
X122779105Y-104967340D01*
X122779104Y-104967338D01*
X122696174Y-104907087D01*
X122485802Y-104799897D01*
X122261247Y-104726934D01*
X122261248Y-104726934D01*
X122028052Y-104690000D01*
X121791948Y-104690000D01*
X121558752Y-104726934D01*
X121334197Y-104799897D01*
X121123830Y-104907084D01*
X121040894Y-104967340D01*
X121780591Y-105707037D01*
X121717007Y-105724075D01*
X121602993Y-105789901D01*
X121509901Y-105882993D01*
X121444075Y-105997007D01*
X121427037Y-106060591D01*
X120687340Y-105320894D01*
X120627084Y-105403830D01*
X120519897Y-105614197D01*
X120446934Y-105838752D01*
X120410000Y-106071947D01*
X117260499Y-106071947D01*
X117260499Y-105492128D01*
X117254091Y-105432517D01*
X117253249Y-105430260D01*
X117203797Y-105297671D01*
X117203793Y-105297664D01*
X117117547Y-105182455D01*
X117117544Y-105182452D01*
X117025924Y-105113865D01*
X117002335Y-105096206D01*
X117002328Y-105096202D01*
X116867482Y-105045908D01*
X116867483Y-105045908D01*
X116807883Y-105039501D01*
X116807881Y-105039500D01*
X116807873Y-105039500D01*
X116807865Y-105039500D01*
X116634500Y-105039500D01*
X116567461Y-105019815D01*
X116521706Y-104967011D01*
X116510500Y-104915500D01*
X116510500Y-101729601D01*
X116530185Y-101662562D01*
X116578206Y-101619116D01*
X116591610Y-101612287D01*
X116757219Y-101491966D01*
X116901966Y-101347219D01*
X116901968Y-101347215D01*
X116901971Y-101347213D01*
X117022284Y-101181614D01*
X117022285Y-101181613D01*
X117022287Y-101181610D01*
X117029117Y-101168204D01*
X117077091Y-101117409D01*
X117139602Y-101100500D01*
X119624445Y-101100500D01*
X119691484Y-101120185D01*
X119734930Y-101168205D01*
X119758410Y-101214286D01*
X119785019Y-101266510D01*
X119792715Y-101281613D01*
X119913028Y-101447213D01*
X120057786Y-101591971D01*
X120161178Y-101667088D01*
X120223390Y-101712287D01*
X120322060Y-101762562D01*
X120405776Y-101805218D01*
X120405778Y-101805218D01*
X120405781Y-101805220D01*
X120464799Y-101824396D01*
X120600465Y-101868477D01*
X120672050Y-101879815D01*
X120802648Y-101900500D01*
X120802649Y-101900500D01*
X121007351Y-101900500D01*
X121007352Y-101900500D01*
X121209534Y-101868477D01*
X121404219Y-101805220D01*
X121586610Y-101712287D01*
X121679590Y-101644732D01*
X121752213Y-101591971D01*
X121752215Y-101591968D01*
X121752219Y-101591966D01*
X121896966Y-101447219D01*
X121896968Y-101447215D01*
X121896971Y-101447213D01*
X121969142Y-101347876D01*
X122017287Y-101281610D01*
X122110220Y-101099219D01*
X122173477Y-100904534D01*
X122205500Y-100702352D01*
X122205500Y-100497648D01*
X122173477Y-100295466D01*
X122110220Y-100100781D01*
X122110218Y-100100778D01*
X122110218Y-100100776D01*
X122059124Y-100000500D01*
X122017287Y-99918390D01*
X121989261Y-99879815D01*
X121896971Y-99752786D01*
X121752213Y-99608028D01*
X121586614Y-99487715D01*
X121516784Y-99452135D01*
X121493917Y-99440483D01*
X121443123Y-99392511D01*
X121426328Y-99324690D01*
X121448865Y-99258555D01*
X121493917Y-99219516D01*
X121586610Y-99172287D01*
X121634349Y-99137603D01*
X121752213Y-99051971D01*
X121752215Y-99051968D01*
X121752219Y-99051966D01*
X121896966Y-98907219D01*
X121896968Y-98907215D01*
X121896971Y-98907213D01*
X121972307Y-98803520D01*
X122017287Y-98741610D01*
X122110220Y-98559219D01*
X122173477Y-98364534D01*
X122205500Y-98162352D01*
X122205500Y-97957648D01*
X122198632Y-97914286D01*
X122173477Y-97755465D01*
X122139900Y-97652127D01*
X122110220Y-97560781D01*
X122110218Y-97560778D01*
X122110218Y-97560776D01*
X122076503Y-97494607D01*
X122017287Y-97378390D01*
X121982957Y-97331138D01*
X121896971Y-97212786D01*
X121752213Y-97068028D01*
X121586614Y-96947715D01*
X121545387Y-96926709D01*
X121493917Y-96900483D01*
X121443123Y-96852511D01*
X121426328Y-96784690D01*
X121448865Y-96718555D01*
X121493917Y-96679516D01*
X121586610Y-96632287D01*
X121630334Y-96600520D01*
X121752213Y-96511971D01*
X121752215Y-96511968D01*
X121752219Y-96511966D01*
X121896966Y-96367219D01*
X121896968Y-96367215D01*
X121896971Y-96367213D01*
X121956182Y-96285715D01*
X122017287Y-96201610D01*
X122110220Y-96019219D01*
X122173477Y-95824534D01*
X122205500Y-95622352D01*
X122205500Y-95417648D01*
X122173477Y-95215466D01*
X122110220Y-95020781D01*
X122110218Y-95020778D01*
X122110218Y-95020776D01*
X122055818Y-94914012D01*
X122017287Y-94838390D01*
X122009556Y-94827749D01*
X121896971Y-94672786D01*
X121752217Y-94528032D01*
X121752212Y-94528028D01*
X121658051Y-94459616D01*
X121615385Y-94404286D01*
X121609406Y-94334673D01*
X121642012Y-94272878D01*
X121691933Y-94241592D01*
X121774117Y-94214359D01*
X121774124Y-94214356D01*
X121923345Y-94122315D01*
X122047315Y-93998345D01*
X122139356Y-93849124D01*
X122139358Y-93849119D01*
X122194505Y-93682697D01*
X122194506Y-93682690D01*
X122204999Y-93579986D01*
X122205000Y-93579973D01*
X122205000Y-93230000D01*
X121220686Y-93230000D01*
X121225080Y-93225606D01*
X121277741Y-93134394D01*
X121305000Y-93032661D01*
X121305000Y-92927339D01*
X121277741Y-92825606D01*
X121225080Y-92734394D01*
X121220686Y-92730000D01*
X122219380Y-92730000D01*
X122249024Y-92713813D01*
X122318716Y-92718797D01*
X122363063Y-92747298D01*
X127230922Y-97615157D01*
X127264407Y-97676480D01*
X127261173Y-97741155D01*
X127256522Y-97755468D01*
X127224500Y-97957648D01*
X127224500Y-98162351D01*
X127256522Y-98364534D01*
X127319781Y-98559223D01*
X127370898Y-98659543D01*
X127396719Y-98710221D01*
X127412715Y-98741613D01*
X127533028Y-98907213D01*
X127677786Y-99051971D01*
X127795651Y-99137603D01*
X127843390Y-99172287D01*
X127934840Y-99218883D01*
X127936080Y-99219515D01*
X127986876Y-99267490D01*
X128003671Y-99335311D01*
X127981134Y-99401446D01*
X127936080Y-99440485D01*
X127843386Y-99487715D01*
X127677786Y-99608028D01*
X127533028Y-99752786D01*
X127412715Y-99918386D01*
X127319781Y-100100776D01*
X127256522Y-100295465D01*
X127224500Y-100497648D01*
X127224500Y-100702351D01*
X127256522Y-100904534D01*
X127319781Y-101099223D01*
X127354930Y-101168205D01*
X127405019Y-101266510D01*
X127412715Y-101281613D01*
X127533028Y-101447213D01*
X127533034Y-101447219D01*
X127677781Y-101591966D01*
X127843390Y-101712287D01*
X127856793Y-101719116D01*
X127907589Y-101767088D01*
X127924500Y-101829601D01*
X127924500Y-104274902D01*
X127904815Y-104341941D01*
X127888181Y-104362583D01*
X127513563Y-104737200D01*
X127452240Y-104770685D01*
X127387564Y-104767450D01*
X127261370Y-104726447D01*
X127028097Y-104689500D01*
X127028092Y-104689500D01*
X126791908Y-104689500D01*
X126791903Y-104689500D01*
X126558631Y-104726446D01*
X126334003Y-104799433D01*
X126123566Y-104906657D01*
X126023759Y-104979172D01*
X125932490Y-105045483D01*
X125932488Y-105045485D01*
X125932487Y-105045485D01*
X125765485Y-105212487D01*
X125765485Y-105212488D01*
X125765483Y-105212490D01*
X125726622Y-105265978D01*
X125626657Y-105403566D01*
X125519433Y-105614003D01*
X125446446Y-105838631D01*
X125409500Y-106071902D01*
X125409500Y-106308097D01*
X125446446Y-106541368D01*
X125519433Y-106765996D01*
X125612105Y-106947873D01*
X125626657Y-106976433D01*
X125765483Y-107167510D01*
X125932490Y-107334517D01*
X126123567Y-107473343D01*
X126222991Y-107524002D01*
X126334003Y-107580566D01*
X126334005Y-107580566D01*
X126334008Y-107580568D01*
X126386255Y-107597544D01*
X126558631Y-107653553D01*
X126791903Y-107690500D01*
X126791908Y-107690500D01*
X126799084Y-107690500D01*
X126866123Y-107710185D01*
X126906469Y-107752497D01*
X126968373Y-107859716D01*
X126968375Y-107859718D01*
X133318069Y-114209413D01*
X133351554Y-114270736D01*
X133354388Y-114297093D01*
X133354388Y-114490000D01*
X133354389Y-114490019D01*
X133364888Y-114592796D01*
X133364889Y-114592799D01*
X133420073Y-114759331D01*
X133420075Y-114759336D01*
X133454957Y-114815888D01*
X133512176Y-114908656D01*
X133636232Y-115032712D01*
X133785554Y-115124814D01*
X133952091Y-115179999D01*
X134054879Y-115190500D01*
X135254896Y-115190499D01*
X135357685Y-115179999D01*
X135524222Y-115124814D01*
X135673544Y-115032712D01*
X135742767Y-114963489D01*
X135804090Y-114930004D01*
X135873782Y-114934988D01*
X135903334Y-114950853D01*
X135973534Y-115001857D01*
X136155856Y-115094755D01*
X136350470Y-115157990D01*
X136552571Y-115190000D01*
X136757205Y-115190000D01*
X136959305Y-115157990D01*
X137153919Y-115094755D01*
X137336237Y-115001859D01*
X137380809Y-114969474D01*
X136701335Y-114290000D01*
X136707549Y-114290000D01*
X136809282Y-114262741D01*
X136900494Y-114210080D01*
X136974968Y-114135606D01*
X137027629Y-114044394D01*
X137054888Y-113942661D01*
X137054888Y-113936448D01*
X137734362Y-114615922D01*
X137734362Y-114615921D01*
X137766747Y-114571349D01*
X137859643Y-114389031D01*
X137922878Y-114194417D01*
X137954888Y-113992317D01*
X137954888Y-113787682D01*
X137922878Y-113585582D01*
X137859643Y-113390968D01*
X137766747Y-113208650D01*
X137734362Y-113164077D01*
X137734362Y-113164076D01*
X137054888Y-113843551D01*
X137054888Y-113837339D01*
X137027629Y-113735606D01*
X136974968Y-113644394D01*
X136900494Y-113569920D01*
X136809282Y-113517259D01*
X136707549Y-113490000D01*
X136701334Y-113490000D01*
X137380810Y-112810524D01*
X137380809Y-112810523D01*
X137336247Y-112778147D01*
X137336238Y-112778141D01*
X137153919Y-112685244D01*
X136959305Y-112622009D01*
X136757205Y-112590000D01*
X136552571Y-112590000D01*
X136350470Y-112622009D01*
X136155856Y-112685244D01*
X135973539Y-112778139D01*
X135903332Y-112829148D01*
X135837525Y-112852627D01*
X135769471Y-112836801D01*
X135742766Y-112816510D01*
X135673545Y-112747289D01*
X135673544Y-112747288D01*
X135572954Y-112685244D01*
X135524224Y-112655187D01*
X135524219Y-112655185D01*
X135485793Y-112642452D01*
X135357685Y-112600001D01*
X135357683Y-112600000D01*
X135254898Y-112589500D01*
X134054886Y-112589500D01*
X134054869Y-112589501D01*
X133952091Y-112600000D01*
X133952088Y-112600001D01*
X133785556Y-112655185D01*
X133785547Y-112655190D01*
X133669075Y-112727029D01*
X133601682Y-112745469D01*
X133535019Y-112724546D01*
X133516298Y-112709171D01*
X128385808Y-107578680D01*
X128352323Y-107517357D01*
X128357307Y-107447665D01*
X128385808Y-107403318D01*
X129635572Y-106153554D01*
X130372238Y-105416888D01*
X130433560Y-105383404D01*
X130503252Y-105388388D01*
X130559185Y-105430260D01*
X130583602Y-105495724D01*
X130577849Y-105542888D01*
X130531523Y-105685461D01*
X130531523Y-105685464D01*
X130499500Y-105887648D01*
X130499500Y-106092351D01*
X130531522Y-106294534D01*
X130594781Y-106489223D01*
X130621351Y-106541368D01*
X130687585Y-106671359D01*
X130687715Y-106671613D01*
X130808028Y-106837213D01*
X130952786Y-106981971D01*
X131073226Y-107069474D01*
X131118390Y-107102287D01*
X131196971Y-107142326D01*
X131300776Y-107195218D01*
X131300778Y-107195218D01*
X131300781Y-107195220D01*
X131398624Y-107227011D01*
X131495465Y-107258477D01*
X131565162Y-107269516D01*
X131697648Y-107290500D01*
X131697649Y-107290500D01*
X131902351Y-107290500D01*
X131902352Y-107290500D01*
X132104534Y-107258477D01*
X132118842Y-107253827D01*
X132188682Y-107251831D01*
X132244841Y-107284076D01*
X134141284Y-109180520D01*
X134141286Y-109180521D01*
X134141290Y-109180524D01*
X134254925Y-109246130D01*
X134278216Y-109259577D01*
X134430943Y-109300501D01*
X134430945Y-109300501D01*
X134596654Y-109300501D01*
X134596670Y-109300500D01*
X140635501Y-109300500D01*
X140702540Y-109320185D01*
X140748295Y-109372989D01*
X140759501Y-109424500D01*
X140759501Y-109647876D01*
X140765908Y-109707483D01*
X140816202Y-109842328D01*
X140816206Y-109842335D01*
X140902452Y-109957544D01*
X140902455Y-109957547D01*
X141017664Y-110043793D01*
X141017671Y-110043797D01*
X141152517Y-110094091D01*
X141152516Y-110094091D01*
X141159444Y-110094835D01*
X141212127Y-110100500D01*
X142659902Y-110100499D01*
X142726941Y-110120184D01*
X142747583Y-110136818D01*
X146223181Y-113612417D01*
X146256666Y-113673740D01*
X146259500Y-113700098D01*
X146259500Y-114847870D01*
X146259501Y-114847876D01*
X146265908Y-114907483D01*
X146316202Y-115042328D01*
X146316206Y-115042335D01*
X146402452Y-115157544D01*
X146402455Y-115157547D01*
X146517664Y-115243793D01*
X146517671Y-115243797D01*
X146652517Y-115294091D01*
X146652516Y-115294091D01*
X146659444Y-115294835D01*
X146712127Y-115300500D01*
X148159902Y-115300499D01*
X148189342Y-115309143D01*
X148219329Y-115315667D01*
X148224344Y-115319421D01*
X148226941Y-115320184D01*
X148247583Y-115336818D01*
X148375139Y-115464374D01*
X148375149Y-115464385D01*
X148379479Y-115468715D01*
X148379480Y-115468716D01*
X148491284Y-115580520D01*
X148551329Y-115615186D01*
X148578095Y-115630639D01*
X148578097Y-115630641D01*
X148628213Y-115659576D01*
X148628215Y-115659577D01*
X148780942Y-115700500D01*
X148780943Y-115700500D01*
X154275501Y-115700500D01*
X154342540Y-115720185D01*
X154388295Y-115772989D01*
X154399501Y-115824500D01*
X154399501Y-116047876D01*
X154405908Y-116107483D01*
X154456202Y-116242328D01*
X154456206Y-116242335D01*
X154542452Y-116357544D01*
X154542455Y-116357547D01*
X154657664Y-116443793D01*
X154657671Y-116443797D01*
X154792517Y-116494091D01*
X154792516Y-116494091D01*
X154799444Y-116494835D01*
X154852127Y-116500500D01*
X156747872Y-116500499D01*
X156807483Y-116494091D01*
X156942331Y-116443796D01*
X157057546Y-116357546D01*
X157143796Y-116242331D01*
X157171429Y-116168243D01*
X157173601Y-116162420D01*
X157215471Y-116106486D01*
X157280936Y-116082068D01*
X157349209Y-116096919D01*
X157377464Y-116118071D01*
X157427636Y-116168243D01*
X157427641Y-116168247D01*
X157529603Y-116242326D01*
X157605978Y-116297815D01*
X157734375Y-116363237D01*
X157802393Y-116397895D01*
X157802396Y-116397896D01*
X157907221Y-116431955D01*
X158012049Y-116466015D01*
X158229778Y-116500500D01*
X158229779Y-116500500D01*
X158450221Y-116500500D01*
X158450222Y-116500500D01*
X158667951Y-116466015D01*
X158877606Y-116397895D01*
X159074022Y-116297815D01*
X159252365Y-116168242D01*
X159408242Y-116012365D01*
X159537815Y-115834022D01*
X159637895Y-115637606D01*
X159706015Y-115427951D01*
X159740500Y-115210222D01*
X159740500Y-114989778D01*
X159706015Y-114772049D01*
X159647774Y-114592799D01*
X159637896Y-114562396D01*
X159637895Y-114562393D01*
X159576825Y-114442539D01*
X159537815Y-114365978D01*
X159516894Y-114337183D01*
X159408247Y-114187641D01*
X159408243Y-114187636D01*
X159252363Y-114031756D01*
X159252358Y-114031752D01*
X159074025Y-113902187D01*
X159074024Y-113902186D01*
X159074022Y-113902185D01*
X158956791Y-113842452D01*
X158877606Y-113802104D01*
X158877603Y-113802103D01*
X158667952Y-113733985D01*
X158559086Y-113716742D01*
X158450222Y-113699500D01*
X158349096Y-113699500D01*
X158282057Y-113679815D01*
X158236302Y-113627011D01*
X158226358Y-113557853D01*
X158255383Y-113494297D01*
X158261415Y-113487819D01*
X158783220Y-112966015D01*
X159512416Y-112236819D01*
X159573739Y-112203334D01*
X159600097Y-112200500D01*
X162175501Y-112200500D01*
X162242540Y-112220185D01*
X162288295Y-112272989D01*
X162299501Y-112324500D01*
X162299501Y-112547876D01*
X162305908Y-112607483D01*
X162356202Y-112742328D01*
X162356206Y-112742335D01*
X162442452Y-112857544D01*
X162442455Y-112857547D01*
X162557664Y-112943793D01*
X162557671Y-112943797D01*
X162692517Y-112994091D01*
X162692516Y-112994091D01*
X162699444Y-112994835D01*
X162752127Y-113000500D01*
X164647872Y-113000499D01*
X164707483Y-112994091D01*
X164842331Y-112943796D01*
X164957546Y-112857546D01*
X165043796Y-112742331D01*
X165049503Y-112727029D01*
X165073601Y-112662420D01*
X165115471Y-112606486D01*
X165180936Y-112582068D01*
X165249209Y-112596919D01*
X165277464Y-112618071D01*
X165327636Y-112668243D01*
X165327641Y-112668247D01*
X165450721Y-112757669D01*
X165505978Y-112797815D01*
X165634375Y-112863237D01*
X165702393Y-112897895D01*
X165702396Y-112897896D01*
X165807221Y-112931955D01*
X165912049Y-112966015D01*
X166129778Y-113000500D01*
X166129779Y-113000500D01*
X166350221Y-113000500D01*
X166350222Y-113000500D01*
X166567951Y-112966015D01*
X166777606Y-112897895D01*
X166974022Y-112797815D01*
X167152365Y-112668242D01*
X167308242Y-112512365D01*
X167437815Y-112334022D01*
X167537895Y-112137606D01*
X167606015Y-111927951D01*
X167640500Y-111710222D01*
X167640500Y-111489778D01*
X167606015Y-111272049D01*
X167571955Y-111167221D01*
X167537896Y-111062396D01*
X167537895Y-111062393D01*
X167476825Y-110942539D01*
X167437815Y-110865978D01*
X167421260Y-110843192D01*
X167308247Y-110687641D01*
X167308243Y-110687636D01*
X167152363Y-110531756D01*
X167152358Y-110531752D01*
X166974025Y-110402187D01*
X166974024Y-110402186D01*
X166974022Y-110402185D01*
X166856791Y-110342452D01*
X166777606Y-110302104D01*
X166777603Y-110302103D01*
X166567952Y-110233985D01*
X166459086Y-110216742D01*
X166350222Y-110199500D01*
X166249096Y-110199500D01*
X166182057Y-110179815D01*
X166136302Y-110127011D01*
X166126358Y-110057853D01*
X166155383Y-109994297D01*
X166161415Y-109987819D01*
X167446342Y-108702892D01*
X168744263Y-107404970D01*
X168805584Y-107371487D01*
X168875275Y-107376471D01*
X168922517Y-107394091D01*
X168922516Y-107394091D01*
X168929444Y-107394835D01*
X168982127Y-107400500D01*
X170877872Y-107400499D01*
X170937483Y-107394091D01*
X171072331Y-107343796D01*
X171187546Y-107257546D01*
X171273796Y-107142331D01*
X171273798Y-107142326D01*
X171303601Y-107062420D01*
X171345471Y-107006486D01*
X171410936Y-106982068D01*
X171479209Y-106996919D01*
X171507464Y-107018071D01*
X171557636Y-107068243D01*
X171557641Y-107068247D01*
X171604494Y-107102287D01*
X171735978Y-107197815D01*
X171854077Y-107257990D01*
X171932393Y-107297895D01*
X171932396Y-107297896D01*
X172037221Y-107331955D01*
X172142049Y-107366015D01*
X172359778Y-107400500D01*
X172359779Y-107400500D01*
X172580221Y-107400500D01*
X172580222Y-107400500D01*
X172797951Y-107366015D01*
X173007606Y-107297895D01*
X173204022Y-107197815D01*
X173382365Y-107068242D01*
X173538242Y-106912365D01*
X173667815Y-106734022D01*
X173767895Y-106537606D01*
X173836015Y-106327951D01*
X173870500Y-106110222D01*
X173870500Y-105889778D01*
X173836015Y-105672049D01*
X173794049Y-105542888D01*
X173767896Y-105462396D01*
X173767895Y-105462393D01*
X173711325Y-105351370D01*
X173667815Y-105265978D01*
X173628954Y-105212490D01*
X173538247Y-105087641D01*
X173538243Y-105087636D01*
X173382363Y-104931756D01*
X173382358Y-104931752D01*
X173204025Y-104802187D01*
X173204024Y-104802186D01*
X173204022Y-104802185D01*
X173138503Y-104768801D01*
X173007606Y-104702104D01*
X173007603Y-104702103D01*
X172797952Y-104633985D01*
X172679556Y-104615233D01*
X172580222Y-104599500D01*
X172359778Y-104599500D01*
X172203898Y-104624188D01*
X172185359Y-104621792D01*
X172166855Y-104624453D01*
X172151425Y-104617406D01*
X172134605Y-104615233D01*
X172120304Y-104603194D01*
X172103299Y-104595429D01*
X172094128Y-104581159D01*
X172081153Y-104570237D01*
X172075631Y-104552377D01*
X172065524Y-104536651D01*
X172060965Y-104504944D01*
X172060514Y-104503485D01*
X172060501Y-104501716D01*
X172060501Y-104488274D01*
X172060501Y-104390942D01*
X172060500Y-104390938D01*
X172060500Y-98624499D01*
X172080185Y-98557460D01*
X172132989Y-98511705D01*
X172184500Y-98500499D01*
X172407871Y-98500499D01*
X172407872Y-98500499D01*
X172467483Y-98494091D01*
X172602331Y-98443796D01*
X172717546Y-98357546D01*
X172803796Y-98242331D01*
X172807916Y-98231284D01*
X172833601Y-98162420D01*
X172875471Y-98106486D01*
X172940936Y-98082068D01*
X173009209Y-98096919D01*
X173037464Y-98118071D01*
X173087636Y-98168243D01*
X173087641Y-98168247D01*
X173174405Y-98231284D01*
X173265978Y-98297815D01*
X173394375Y-98363237D01*
X173462393Y-98397895D01*
X173462396Y-98397896D01*
X173567221Y-98431955D01*
X173672049Y-98466015D01*
X173889778Y-98500500D01*
X173889779Y-98500500D01*
X174110221Y-98500500D01*
X174110222Y-98500500D01*
X174327951Y-98466015D01*
X174537606Y-98397895D01*
X174734022Y-98297815D01*
X174912365Y-98168242D01*
X175068242Y-98012365D01*
X175197815Y-97834022D01*
X175297895Y-97637606D01*
X175366015Y-97427951D01*
X175400500Y-97210222D01*
X175400500Y-96989778D01*
X175366015Y-96772049D01*
X175320603Y-96632284D01*
X175297896Y-96562396D01*
X175297895Y-96562393D01*
X175236825Y-96442539D01*
X175197815Y-96365978D01*
X175104439Y-96237456D01*
X175068247Y-96187641D01*
X175068243Y-96187636D01*
X174912363Y-96031756D01*
X174912358Y-96031752D01*
X174734025Y-95902187D01*
X174734024Y-95902186D01*
X174734022Y-95902185D01*
X174647664Y-95858183D01*
X174537606Y-95802104D01*
X174537603Y-95802103D01*
X174327952Y-95733985D01*
X174219086Y-95716742D01*
X174110222Y-95699500D01*
X173889778Y-95699500D01*
X173817201Y-95710995D01*
X173672047Y-95733985D01*
X173462396Y-95802103D01*
X173462393Y-95802104D01*
X173265974Y-95902187D01*
X173087641Y-96031752D01*
X173087636Y-96031756D01*
X173037463Y-96081929D01*
X172976140Y-96115413D01*
X172906448Y-96110428D01*
X172850515Y-96068557D01*
X172833601Y-96037580D01*
X172803797Y-95957671D01*
X172803793Y-95957664D01*
X172717547Y-95842455D01*
X172717544Y-95842452D01*
X172602335Y-95756206D01*
X172602328Y-95756202D01*
X172467482Y-95705908D01*
X172467483Y-95705908D01*
X172407883Y-95699501D01*
X172407881Y-95699500D01*
X172407873Y-95699500D01*
X172407864Y-95699500D01*
X170512129Y-95699500D01*
X170512123Y-95699501D01*
X170452516Y-95705908D01*
X170317671Y-95756202D01*
X170317664Y-95756206D01*
X170202455Y-95842452D01*
X170202452Y-95842455D01*
X170116206Y-95957664D01*
X170116202Y-95957671D01*
X170065908Y-96092517D01*
X170059501Y-96152116D01*
X170059500Y-96152135D01*
X170059500Y-96375500D01*
X170039815Y-96442539D01*
X169987011Y-96488294D01*
X169935500Y-96499500D01*
X164780940Y-96499500D01*
X164740019Y-96510464D01*
X164740019Y-96510465D01*
X164734399Y-96511971D01*
X164628214Y-96540423D01*
X164628209Y-96540426D01*
X164491290Y-96619475D01*
X164491282Y-96619481D01*
X164379478Y-96731286D01*
X163947582Y-97163181D01*
X163886259Y-97196666D01*
X163859901Y-97199500D01*
X162412129Y-97199500D01*
X162412123Y-97199501D01*
X162352516Y-97205908D01*
X162217671Y-97256202D01*
X162217664Y-97256206D01*
X162102455Y-97342452D01*
X162102452Y-97342455D01*
X162016206Y-97457664D01*
X162016202Y-97457671D01*
X161965908Y-97592517D01*
X161959501Y-97652116D01*
X161959500Y-97652135D01*
X161959500Y-97875500D01*
X161939815Y-97942539D01*
X161887011Y-97988294D01*
X161835500Y-97999500D01*
X157480940Y-97999500D01*
X157440019Y-98010464D01*
X157440019Y-98010465D01*
X157402751Y-98020451D01*
X157328214Y-98040423D01*
X157328209Y-98040426D01*
X157191290Y-98119475D01*
X157191282Y-98119481D01*
X157079478Y-98231286D01*
X156347582Y-98963181D01*
X156286259Y-98996666D01*
X156259901Y-98999500D01*
X154812129Y-98999500D01*
X154812123Y-98999501D01*
X154752516Y-99005908D01*
X154617671Y-99056202D01*
X154617664Y-99056206D01*
X154502455Y-99142452D01*
X154502452Y-99142455D01*
X154416206Y-99257664D01*
X154416202Y-99257671D01*
X154365908Y-99392517D01*
X154359501Y-99452116D01*
X154359500Y-99452135D01*
X154359500Y-99675500D01*
X154339815Y-99742539D01*
X154287011Y-99788294D01*
X154235500Y-99799500D01*
X151339057Y-99799500D01*
X151180942Y-99799500D01*
X151171661Y-99801987D01*
X151028214Y-99840423D01*
X151028209Y-99840426D01*
X150891290Y-99919475D01*
X150891282Y-99919481D01*
X150779478Y-100031286D01*
X148947582Y-101863181D01*
X148886259Y-101896666D01*
X148859901Y-101899500D01*
X147412129Y-101899500D01*
X147412123Y-101899501D01*
X147352516Y-101905908D01*
X147217671Y-101956202D01*
X147217664Y-101956206D01*
X147102455Y-102042452D01*
X147102452Y-102042455D01*
X147016206Y-102157664D01*
X147016202Y-102157671D01*
X146965908Y-102292517D01*
X146959501Y-102352116D01*
X146959500Y-102352135D01*
X146959500Y-102999902D01*
X146939815Y-103066941D01*
X146923181Y-103087583D01*
X142747582Y-107263181D01*
X142686259Y-107296666D01*
X142659901Y-107299500D01*
X141212129Y-107299500D01*
X141212123Y-107299501D01*
X141152516Y-107305908D01*
X141017671Y-107356202D01*
X141017664Y-107356206D01*
X140902455Y-107442452D01*
X140902452Y-107442455D01*
X140816206Y-107557664D01*
X140816202Y-107557671D01*
X140765908Y-107692517D01*
X140759501Y-107752116D01*
X140759500Y-107752135D01*
X140759500Y-107975500D01*
X140739815Y-108042539D01*
X140687011Y-108088294D01*
X140635500Y-108099500D01*
X134810098Y-108099500D01*
X134743059Y-108079815D01*
X134722417Y-108063181D01*
X134255641Y-107596405D01*
X133094076Y-106434841D01*
X133060592Y-106373519D01*
X133063828Y-106308841D01*
X133064070Y-106308097D01*
X133068477Y-106294534D01*
X133100500Y-106092352D01*
X133100500Y-105887648D01*
X133085672Y-105794027D01*
X133068477Y-105685465D01*
X133037458Y-105590000D01*
X133005220Y-105490781D01*
X133005218Y-105490778D01*
X133005218Y-105490776D01*
X132960782Y-105403567D01*
X132912287Y-105308390D01*
X132881473Y-105265978D01*
X132791971Y-105142786D01*
X132647213Y-104998028D01*
X132481614Y-104877715D01*
X132394831Y-104833497D01*
X132362011Y-104816774D01*
X132341558Y-104797457D01*
X132319041Y-104780602D01*
X132316501Y-104773792D01*
X132311216Y-104768801D01*
X132304453Y-104741494D01*
X132294623Y-104715138D01*
X132296168Y-104708034D01*
X132294421Y-104700980D01*
X132303494Y-104674353D01*
X132309474Y-104646865D01*
X132315693Y-104638556D01*
X132316958Y-104634845D01*
X132330613Y-104618622D01*
X132380520Y-104568716D01*
X132380521Y-104568713D01*
X133380520Y-103568716D01*
X133459577Y-103431784D01*
X133500501Y-103279057D01*
X133500501Y-103120942D01*
X133500501Y-103113347D01*
X133500500Y-103113329D01*
X133500500Y-102949097D01*
X133520185Y-102882058D01*
X133572989Y-102836303D01*
X133642147Y-102826359D01*
X133705703Y-102855384D01*
X133712181Y-102861416D01*
X135815139Y-104964374D01*
X135815149Y-104964385D01*
X135819479Y-104968715D01*
X135819480Y-104968716D01*
X135931284Y-105080520D01*
X136006778Y-105124106D01*
X136068215Y-105159577D01*
X136220943Y-105200501D01*
X136220946Y-105200501D01*
X136386653Y-105200501D01*
X136386669Y-105200500D01*
X138160896Y-105200500D01*
X138227935Y-105220185D01*
X138273690Y-105272989D01*
X138283634Y-105342147D01*
X138271381Y-105380795D01*
X138215244Y-105490968D01*
X138152009Y-105685582D01*
X138120000Y-105887682D01*
X138120000Y-106092317D01*
X138152009Y-106294417D01*
X138215244Y-106489031D01*
X138308141Y-106671350D01*
X138308147Y-106671359D01*
X138340523Y-106715921D01*
X138340524Y-106715922D01*
X139020000Y-106036446D01*
X139020000Y-106042661D01*
X139047259Y-106144394D01*
X139099920Y-106235606D01*
X139174394Y-106310080D01*
X139265606Y-106362741D01*
X139367339Y-106390000D01*
X139373553Y-106390000D01*
X138694076Y-107069474D01*
X138738650Y-107101859D01*
X138920968Y-107194755D01*
X139115582Y-107257990D01*
X139317683Y-107290000D01*
X139522317Y-107290000D01*
X139724417Y-107257990D01*
X139919031Y-107194755D01*
X140101349Y-107101859D01*
X140145921Y-107069474D01*
X139466447Y-106390000D01*
X139472661Y-106390000D01*
X139574394Y-106362741D01*
X139665606Y-106310080D01*
X139740080Y-106235606D01*
X139792741Y-106144394D01*
X139820000Y-106042661D01*
X139820000Y-106036447D01*
X140499474Y-106715921D01*
X140531859Y-106671349D01*
X140624755Y-106489031D01*
X140687990Y-106294417D01*
X140720000Y-106092317D01*
X140720000Y-105887682D01*
X140687990Y-105685582D01*
X140624755Y-105490968D01*
X140568619Y-105380795D01*
X140555723Y-105312125D01*
X140582000Y-105247385D01*
X140639106Y-105207128D01*
X140679104Y-105200500D01*
X141520234Y-105200500D01*
X141587273Y-105220185D01*
X141589125Y-105221398D01*
X141720814Y-105309390D01*
X141720827Y-105309397D01*
X141866498Y-105369735D01*
X141866503Y-105369737D01*
X142021153Y-105400499D01*
X142021156Y-105400500D01*
X142021158Y-105400500D01*
X142178844Y-105400500D01*
X142178845Y-105400499D01*
X142333497Y-105369737D01*
X142479179Y-105309394D01*
X142610289Y-105221789D01*
X142721789Y-105110289D01*
X142809394Y-104979179D01*
X142869737Y-104833497D01*
X142900500Y-104678842D01*
X142900500Y-104521158D01*
X142900500Y-104521155D01*
X142900499Y-104521153D01*
X142869738Y-104366510D01*
X142869737Y-104366503D01*
X142849676Y-104318071D01*
X142809397Y-104220827D01*
X142809390Y-104220814D01*
X142721789Y-104089711D01*
X142721786Y-104089707D01*
X142610292Y-103978213D01*
X142610288Y-103978210D01*
X142479185Y-103890609D01*
X142479172Y-103890602D01*
X142333501Y-103830264D01*
X142333489Y-103830261D01*
X142178845Y-103799500D01*
X142178842Y-103799500D01*
X142021158Y-103799500D01*
X142021155Y-103799500D01*
X141866510Y-103830261D01*
X141866498Y-103830264D01*
X141720827Y-103890602D01*
X141720814Y-103890609D01*
X141589125Y-103978602D01*
X141522447Y-103999480D01*
X141520234Y-103999500D01*
X139757552Y-103999500D01*
X139690513Y-103979815D01*
X139644758Y-103927011D01*
X139634814Y-103857853D01*
X139663839Y-103794297D01*
X139719232Y-103757569D01*
X139760756Y-103744078D01*
X139921788Y-103662028D01*
X140027576Y-103585169D01*
X140067996Y-103555803D01*
X140067998Y-103555800D01*
X140068002Y-103555798D01*
X140195798Y-103428002D01*
X140195800Y-103427998D01*
X140195803Y-103427996D01*
X140266296Y-103330969D01*
X140302028Y-103281788D01*
X140384078Y-103120756D01*
X140439927Y-102948871D01*
X140468200Y-102770365D01*
X140468200Y-102589635D01*
X140439927Y-102411129D01*
X140384078Y-102239244D01*
X140302028Y-102078212D01*
X140276049Y-102042455D01*
X140195803Y-101932003D01*
X140067996Y-101804196D01*
X139921791Y-101697974D01*
X139921790Y-101697973D01*
X139921788Y-101697972D01*
X139760756Y-101615922D01*
X139588871Y-101560073D01*
X139588869Y-101560072D01*
X139588867Y-101560072D01*
X139475420Y-101542103D01*
X139410365Y-101531800D01*
X139229635Y-101531800D01*
X139215745Y-101534000D01*
X139051132Y-101560072D01*
X138879241Y-101615923D01*
X138718208Y-101697974D01*
X138572003Y-101804196D01*
X138444196Y-101932003D01*
X138337974Y-102078208D01*
X138255923Y-102239241D01*
X138255922Y-102239243D01*
X138255922Y-102239244D01*
X138231915Y-102313130D01*
X138200072Y-102411132D01*
X138171800Y-102589635D01*
X138171800Y-102770364D01*
X138200053Y-102948750D01*
X138200073Y-102948871D01*
X138255922Y-103120756D01*
X138337840Y-103281529D01*
X138337974Y-103281791D01*
X138444196Y-103427996D01*
X138572003Y-103555803D01*
X138671310Y-103627952D01*
X138718212Y-103662028D01*
X138879244Y-103744078D01*
X138920766Y-103757569D01*
X138978442Y-103797006D01*
X139005640Y-103861365D01*
X138993725Y-103930211D01*
X138946481Y-103981687D01*
X138882448Y-103999500D01*
X136600097Y-103999500D01*
X136533058Y-103979815D01*
X136512416Y-103963181D01*
X134034574Y-101485339D01*
X134001089Y-101424016D01*
X134000638Y-101421849D01*
X133982595Y-101331147D01*
X133969737Y-101266503D01*
X133934575Y-101181613D01*
X133909397Y-101120827D01*
X133909390Y-101120814D01*
X133821789Y-100989711D01*
X133821786Y-100989707D01*
X133710292Y-100878213D01*
X133710288Y-100878210D01*
X133579185Y-100790609D01*
X133579172Y-100790602D01*
X133433501Y-100730264D01*
X133433489Y-100730261D01*
X133278845Y-100699500D01*
X133278842Y-100699500D01*
X133121158Y-100699500D01*
X133121155Y-100699500D01*
X132966510Y-100730261D01*
X132966503Y-100730263D01*
X132923901Y-100747909D01*
X132854432Y-100755377D01*
X132791953Y-100724101D01*
X132756301Y-100664012D01*
X132758796Y-100594186D01*
X132762484Y-100585378D01*
X132762211Y-100585265D01*
X132764075Y-100580763D01*
X132764077Y-100580758D01*
X132764078Y-100580756D01*
X132819927Y-100408871D01*
X132848200Y-100230365D01*
X132848200Y-100049635D01*
X138171800Y-100049635D01*
X138171800Y-100230365D01*
X138200073Y-100408871D01*
X138255922Y-100580756D01*
X138332100Y-100730264D01*
X138337974Y-100741791D01*
X138444196Y-100887996D01*
X138572003Y-101015803D01*
X138686818Y-101099219D01*
X138718212Y-101122028D01*
X138879244Y-101204078D01*
X139051129Y-101259927D01*
X139229635Y-101288200D01*
X139410365Y-101288200D01*
X139588871Y-101259927D01*
X139760756Y-101204078D01*
X139921788Y-101122028D01*
X140039069Y-101036819D01*
X140067996Y-101015803D01*
X140067998Y-101015800D01*
X140068002Y-101015798D01*
X140195798Y-100888002D01*
X140195800Y-100887998D01*
X140195803Y-100887996D01*
X140246912Y-100817649D01*
X140302028Y-100741788D01*
X140384078Y-100580756D01*
X140439927Y-100408871D01*
X140468200Y-100230365D01*
X140468200Y-100049635D01*
X140439927Y-99871129D01*
X140384078Y-99699244D01*
X140302028Y-99538212D01*
X140295202Y-99528817D01*
X140195803Y-99392003D01*
X140067996Y-99264196D01*
X139921791Y-99157974D01*
X139921790Y-99157973D01*
X139921788Y-99157972D01*
X139760756Y-99075922D01*
X139588871Y-99020073D01*
X139588869Y-99020072D01*
X139588867Y-99020072D01*
X139441087Y-98996666D01*
X139410365Y-98991800D01*
X139229635Y-98991800D01*
X139215745Y-98994000D01*
X139051132Y-99020072D01*
X138879241Y-99075923D01*
X138718208Y-99157974D01*
X138572003Y-99264196D01*
X138444196Y-99392003D01*
X138337974Y-99538208D01*
X138255923Y-99699241D01*
X138255922Y-99699243D01*
X138255922Y-99699244D01*
X138246531Y-99728146D01*
X138200072Y-99871132D01*
X138179538Y-100000781D01*
X138171800Y-100049635D01*
X132848200Y-100049635D01*
X132819927Y-99871129D01*
X132764078Y-99699244D01*
X132682028Y-99538212D01*
X132675202Y-99528817D01*
X132575803Y-99392003D01*
X132447996Y-99264196D01*
X132301791Y-99157974D01*
X132301790Y-99157973D01*
X132301788Y-99157972D01*
X132140756Y-99075922D01*
X131968871Y-99020073D01*
X131968869Y-99020072D01*
X131968867Y-99020072D01*
X131821087Y-98996666D01*
X131790365Y-98991800D01*
X131609635Y-98991800D01*
X131595745Y-98994000D01*
X131431132Y-99020072D01*
X131259241Y-99075923D01*
X131098208Y-99157974D01*
X130952003Y-99264196D01*
X130824196Y-99392003D01*
X130717971Y-99538212D01*
X130717969Y-99538214D01*
X130700477Y-99572544D01*
X130652502Y-99623339D01*
X130584681Y-99640133D01*
X130518546Y-99617594D01*
X130502313Y-99603928D01*
X129701905Y-98803520D01*
X129668420Y-98742197D01*
X129673404Y-98672505D01*
X129679102Y-98659543D01*
X129730217Y-98559225D01*
X129730218Y-98559223D01*
X129730220Y-98559219D01*
X129793477Y-98364534D01*
X129825500Y-98162352D01*
X129825500Y-97957648D01*
X129818632Y-97914286D01*
X129793477Y-97755465D01*
X129759900Y-97652127D01*
X129730220Y-97560781D01*
X129730218Y-97560778D01*
X129730218Y-97560776D01*
X129662540Y-97427952D01*
X129649211Y-97401793D01*
X129636316Y-97333126D01*
X129662592Y-97268386D01*
X129719698Y-97228128D01*
X129759697Y-97221500D01*
X130452251Y-97221500D01*
X130519290Y-97241185D01*
X130565045Y-97293989D01*
X130574989Y-97363147D01*
X130574724Y-97364898D01*
X130551800Y-97509635D01*
X130551800Y-97690364D01*
X130579614Y-97865978D01*
X130580073Y-97868871D01*
X130635922Y-98040756D01*
X130703920Y-98174210D01*
X130717974Y-98201791D01*
X130824196Y-98347996D01*
X130952003Y-98475803D01*
X131066818Y-98559219D01*
X131098212Y-98582028D01*
X131259244Y-98664078D01*
X131431129Y-98719927D01*
X131609635Y-98748200D01*
X131790365Y-98748200D01*
X131968871Y-98719927D01*
X132140756Y-98664078D01*
X132301788Y-98582028D01*
X132402525Y-98508839D01*
X132447996Y-98475803D01*
X132447998Y-98475800D01*
X132448002Y-98475798D01*
X132575798Y-98348002D01*
X132575800Y-98347998D01*
X132575803Y-98347996D01*
X132652574Y-98242328D01*
X132682028Y-98201788D01*
X132764078Y-98040756D01*
X132819927Y-97868871D01*
X132848200Y-97690365D01*
X132848200Y-97509635D01*
X132819927Y-97331129D01*
X132819922Y-97331115D01*
X132819660Y-97330020D01*
X132819681Y-97329580D01*
X132819165Y-97326317D01*
X132819850Y-97326208D01*
X132823144Y-97260237D01*
X132863802Y-97203416D01*
X132884031Y-97190528D01*
X132895599Y-97184645D01*
X132910785Y-97180577D01*
X132960904Y-97151639D01*
X133047716Y-97101520D01*
X133159520Y-96989716D01*
X133159520Y-96989714D01*
X133169728Y-96979507D01*
X133169730Y-96979504D01*
X137987648Y-92161585D01*
X138015319Y-92146476D01*
X138042094Y-92129804D01*
X138045756Y-92129856D01*
X138048969Y-92128102D01*
X138080424Y-92130351D01*
X138111957Y-92130802D01*
X138115007Y-92132824D01*
X138118661Y-92133086D01*
X138143910Y-92151987D01*
X138170190Y-92169412D01*
X138171663Y-92172764D01*
X138174594Y-92174958D01*
X138185614Y-92204503D01*
X138198304Y-92233375D01*
X138198233Y-92238336D01*
X138199011Y-92240422D01*
X138197800Y-92268666D01*
X138172300Y-92429668D01*
X138172300Y-92610331D01*
X138200559Y-92788750D01*
X138256386Y-92960566D01*
X138338401Y-93121529D01*
X138349558Y-93136886D01*
X138349559Y-93136886D01*
X138926300Y-92560145D01*
X138926300Y-92571832D01*
X138953130Y-92671962D01*
X139004962Y-92761737D01*
X139078263Y-92835038D01*
X139168038Y-92886870D01*
X139268168Y-92913700D01*
X139279852Y-92913700D01*
X138703112Y-93490438D01*
X138703112Y-93490439D01*
X138718477Y-93501602D01*
X138879433Y-93583613D01*
X139051249Y-93639440D01*
X139217340Y-93665747D01*
X139422659Y-93665747D01*
X139588750Y-93639440D01*
X139760566Y-93583613D01*
X139921530Y-93501598D01*
X140002614Y-93442687D01*
X140068420Y-93419206D01*
X140136474Y-93435031D01*
X140185169Y-93485136D01*
X140199500Y-93543004D01*
X140199500Y-94036376D01*
X140179815Y-94103415D01*
X140127011Y-94149170D01*
X140057853Y-94159114D01*
X140002616Y-94136695D01*
X139921790Y-94077973D01*
X139760758Y-93995923D01*
X139760757Y-93995922D01*
X139760756Y-93995922D01*
X139588871Y-93940073D01*
X139588869Y-93940072D01*
X139588867Y-93940072D01*
X139422659Y-93913747D01*
X139422658Y-93913747D01*
X139410365Y-93911800D01*
X139229635Y-93911800D01*
X139217342Y-93913747D01*
X139217340Y-93913747D01*
X139051132Y-93940072D01*
X138879241Y-93995923D01*
X138718208Y-94077974D01*
X138572003Y-94184196D01*
X138444196Y-94312003D01*
X138337974Y-94458208D01*
X138255923Y-94619241D01*
X138200072Y-94791132D01*
X138192588Y-94838386D01*
X138171800Y-94969635D01*
X138171800Y-95150365D01*
X138200073Y-95328871D01*
X138255922Y-95500756D01*
X138317878Y-95622352D01*
X138337974Y-95661791D01*
X138444196Y-95807996D01*
X138572003Y-95935803D01*
X138685696Y-96018404D01*
X138718212Y-96042028D01*
X138879244Y-96124078D01*
X139051129Y-96179927D01*
X139225386Y-96207527D01*
X139288521Y-96237456D01*
X139325452Y-96296768D01*
X139324454Y-96366630D01*
X139285844Y-96424863D01*
X139225386Y-96452473D01*
X139051132Y-96480072D01*
X138879241Y-96535923D01*
X138718208Y-96617974D01*
X138572003Y-96724196D01*
X138444196Y-96852003D01*
X138337974Y-96998208D01*
X138255923Y-97159241D01*
X138200072Y-97331132D01*
X138171800Y-97509635D01*
X138171800Y-97690364D01*
X138199614Y-97865978D01*
X138200073Y-97868871D01*
X138255922Y-98040756D01*
X138323920Y-98174210D01*
X138337974Y-98201791D01*
X138444196Y-98347996D01*
X138572003Y-98475803D01*
X138686818Y-98559219D01*
X138718212Y-98582028D01*
X138879244Y-98664078D01*
X139051129Y-98719927D01*
X139229635Y-98748200D01*
X139410365Y-98748200D01*
X139588871Y-98719927D01*
X139760756Y-98664078D01*
X139921788Y-98582028D01*
X140022525Y-98508839D01*
X140067996Y-98475803D01*
X140067998Y-98475800D01*
X140068002Y-98475798D01*
X140195798Y-98348002D01*
X140195800Y-98347998D01*
X140195803Y-98347996D01*
X140272574Y-98242328D01*
X140302028Y-98201788D01*
X140384078Y-98040756D01*
X140439927Y-97868871D01*
X140468200Y-97690365D01*
X140468200Y-97509635D01*
X140449561Y-97391957D01*
X140458515Y-97322666D01*
X140484350Y-97284883D01*
X141158506Y-96610728D01*
X141158511Y-96610724D01*
X141168714Y-96600520D01*
X141168716Y-96600520D01*
X141280520Y-96488716D01*
X141301445Y-96452473D01*
X141337966Y-96389217D01*
X141337967Y-96389215D01*
X141359574Y-96351790D01*
X141359573Y-96351790D01*
X141359577Y-96351785D01*
X141400500Y-96199057D01*
X141400500Y-96040943D01*
X141400500Y-90502135D01*
X141949500Y-90502135D01*
X141949500Y-92297870D01*
X141949501Y-92297876D01*
X141955908Y-92357483D01*
X142006202Y-92492328D01*
X142006206Y-92492335D01*
X142092452Y-92607544D01*
X142092455Y-92607547D01*
X142207664Y-92693793D01*
X142207671Y-92693797D01*
X142342517Y-92744091D01*
X142342516Y-92744091D01*
X142349444Y-92744835D01*
X142402127Y-92750500D01*
X144197872Y-92750499D01*
X144257483Y-92744091D01*
X144392331Y-92693796D01*
X144507546Y-92607546D01*
X144593796Y-92492331D01*
X144644091Y-92357483D01*
X144650500Y-92297873D01*
X144650499Y-90502128D01*
X144644091Y-90442517D01*
X144636910Y-90423265D01*
X144593797Y-90307671D01*
X144593793Y-90307664D01*
X144507547Y-90192455D01*
X144507544Y-90192452D01*
X144392335Y-90106206D01*
X144392328Y-90106202D01*
X144257482Y-90055908D01*
X144257483Y-90055908D01*
X144197883Y-90049501D01*
X144197881Y-90049500D01*
X144197873Y-90049500D01*
X144197864Y-90049500D01*
X142402129Y-90049500D01*
X142402123Y-90049501D01*
X142342516Y-90055908D01*
X142207671Y-90106202D01*
X142207664Y-90106206D01*
X142092455Y-90192452D01*
X142092452Y-90192455D01*
X142006206Y-90307664D01*
X142006202Y-90307671D01*
X141955908Y-90442517D01*
X141951016Y-90488023D01*
X141949501Y-90502123D01*
X141949500Y-90502135D01*
X141400500Y-90502135D01*
X141400500Y-81050943D01*
X141359577Y-80898216D01*
X141359577Y-80898215D01*
X141306645Y-80806535D01*
X141280520Y-80761284D01*
X141168716Y-80649480D01*
X141168713Y-80649478D01*
X127343438Y-66824203D01*
X127309953Y-66762880D01*
X127313187Y-66698205D01*
X127336015Y-66627951D01*
X127370500Y-66410222D01*
X127370500Y-66189778D01*
X127336015Y-65972049D01*
X127267895Y-65762394D01*
X127267895Y-65762393D01*
X127233237Y-65694375D01*
X127167815Y-65565978D01*
X127075145Y-65438428D01*
X127038247Y-65387641D01*
X127038243Y-65387636D01*
X126882363Y-65231756D01*
X126882358Y-65231752D01*
X126704025Y-65102187D01*
X126704024Y-65102186D01*
X126704022Y-65102185D01*
X126586791Y-65042452D01*
X126507606Y-65002104D01*
X126507603Y-65002103D01*
X126297952Y-64933985D01*
X126189086Y-64916742D01*
X126080222Y-64899500D01*
X125859778Y-64899500D01*
X125787201Y-64910995D01*
X125642047Y-64933985D01*
X125432396Y-65002103D01*
X125432393Y-65002104D01*
X125235974Y-65102187D01*
X125057641Y-65231752D01*
X125057636Y-65231756D01*
X125007463Y-65281929D01*
X124946140Y-65315413D01*
X124876448Y-65310428D01*
X124820515Y-65268557D01*
X124803601Y-65237580D01*
X124773797Y-65157671D01*
X124773793Y-65157664D01*
X124687547Y-65042455D01*
X124687544Y-65042452D01*
X124572335Y-64956206D01*
X124572328Y-64956202D01*
X124437482Y-64905908D01*
X124437483Y-64905908D01*
X124377883Y-64899501D01*
X124377881Y-64899500D01*
X124377873Y-64899500D01*
X124377864Y-64899500D01*
X122482129Y-64899500D01*
X122482123Y-64899501D01*
X122422516Y-64905908D01*
X122287671Y-64956202D01*
X122287664Y-64956206D01*
X122172455Y-65042452D01*
X122172452Y-65042455D01*
X122086206Y-65157664D01*
X122086202Y-65157671D01*
X122035908Y-65292517D01*
X122029501Y-65352116D01*
X122029500Y-65352135D01*
X122029500Y-67247870D01*
X122029501Y-67247876D01*
X122035908Y-67307483D01*
X122086202Y-67442328D01*
X122086206Y-67442335D01*
X122172452Y-67557544D01*
X122172455Y-67557547D01*
X122287664Y-67643793D01*
X122287671Y-67643797D01*
X122422517Y-67694091D01*
X122422516Y-67694091D01*
X122429444Y-67694835D01*
X122482127Y-67700500D01*
X124377872Y-67700499D01*
X124437483Y-67694091D01*
X124572331Y-67643796D01*
X124687546Y-67557546D01*
X124773796Y-67442331D01*
X124790309Y-67398057D01*
X124803601Y-67362420D01*
X124845471Y-67306486D01*
X124910936Y-67282068D01*
X124979209Y-67296919D01*
X125007464Y-67318071D01*
X125057636Y-67368243D01*
X125057641Y-67368247D01*
X125159603Y-67442326D01*
X125235978Y-67497815D01*
X125364375Y-67563237D01*
X125432393Y-67597895D01*
X125432396Y-67597896D01*
X125499525Y-67619707D01*
X125642049Y-67666015D01*
X125859778Y-67700500D01*
X125859779Y-67700500D01*
X126080221Y-67700500D01*
X126080222Y-67700500D01*
X126297951Y-67666015D01*
X126368205Y-67643187D01*
X126438044Y-67641192D01*
X126494203Y-67673438D01*
X140163181Y-81342416D01*
X140196666Y-81403739D01*
X140199500Y-81430097D01*
X140199500Y-83876376D01*
X140179815Y-83943415D01*
X140127011Y-83989170D01*
X140057853Y-83999114D01*
X140002616Y-83976695D01*
X139921790Y-83917973D01*
X139760758Y-83835923D01*
X139760757Y-83835922D01*
X139760756Y-83835922D01*
X139588871Y-83780073D01*
X139588869Y-83780072D01*
X139588867Y-83780072D01*
X139450823Y-83758208D01*
X139410365Y-83751800D01*
X139229635Y-83751800D01*
X139189177Y-83758208D01*
X139051132Y-83780072D01*
X138879241Y-83835923D01*
X138718208Y-83917974D01*
X138572003Y-84024196D01*
X138444196Y-84152003D01*
X138337974Y-84298208D01*
X138255923Y-84459241D01*
X138255922Y-84459243D01*
X138255922Y-84459244D01*
X138255139Y-84461653D01*
X138200072Y-84631132D01*
X138171800Y-84809635D01*
X138171800Y-84990365D01*
X138171799Y-84990365D01*
X138190437Y-85108040D01*
X138181482Y-85177333D01*
X138155645Y-85215118D01*
X133078884Y-90291881D01*
X133051956Y-90306584D01*
X133026138Y-90323177D01*
X133019937Y-90324068D01*
X133017561Y-90325366D01*
X132991203Y-90328200D01*
X132952548Y-90328200D01*
X132885509Y-90308515D01*
X132839754Y-90255711D01*
X132829810Y-90186553D01*
X132830075Y-90184802D01*
X132848200Y-90070364D01*
X132848200Y-89889635D01*
X132841540Y-89847584D01*
X132819927Y-89711129D01*
X132764078Y-89539244D01*
X132682028Y-89378212D01*
X132655786Y-89342093D01*
X132575803Y-89232003D01*
X132447996Y-89104196D01*
X132301791Y-88997974D01*
X132301790Y-88997973D01*
X132301788Y-88997972D01*
X132140756Y-88915922D01*
X131968871Y-88860073D01*
X131968869Y-88860072D01*
X131968867Y-88860072D01*
X131855420Y-88842103D01*
X131790365Y-88831800D01*
X131609635Y-88831800D01*
X131595745Y-88834000D01*
X131431132Y-88860072D01*
X131259241Y-88915923D01*
X131098208Y-88997974D01*
X130952003Y-89104196D01*
X130824196Y-89232003D01*
X130717974Y-89378208D01*
X130635923Y-89539241D01*
X130580072Y-89711132D01*
X130551800Y-89889635D01*
X130551800Y-90070365D01*
X130551799Y-90070365D01*
X130571287Y-90193405D01*
X130567157Y-90225358D01*
X130564485Y-90257481D01*
X130562706Y-90259800D01*
X130562332Y-90262698D01*
X130541575Y-90287354D01*
X130521967Y-90312925D01*
X130518757Y-90314461D01*
X130517336Y-90316150D01*
X130490796Y-90329479D01*
X130485917Y-90331234D01*
X130344515Y-90369123D01*
X130294395Y-90398060D01*
X130284801Y-90403598D01*
X130284801Y-90403599D01*
X130207585Y-90448179D01*
X130207582Y-90448181D01*
X130095778Y-90559986D01*
X128969842Y-91685921D01*
X128908519Y-91719406D01*
X128843848Y-91716173D01*
X128829534Y-91711522D01*
X128654995Y-91683878D01*
X128627352Y-91679500D01*
X128422648Y-91679500D01*
X128398329Y-91683351D01*
X128220465Y-91711522D01*
X128025776Y-91774781D01*
X127843386Y-91867715D01*
X127677786Y-91988028D01*
X127533028Y-92132786D01*
X127412715Y-92298386D01*
X127319781Y-92480776D01*
X127256522Y-92675465D01*
X127224500Y-92877648D01*
X127224500Y-93070903D01*
X127204815Y-93137942D01*
X127152011Y-93183697D01*
X127082853Y-93193641D01*
X127019297Y-93164616D01*
X127012819Y-93158584D01*
X125406819Y-91552584D01*
X125373334Y-91491261D01*
X125370500Y-91464903D01*
X125370500Y-87647661D01*
X125390185Y-87580622D01*
X125438207Y-87537175D01*
X125464714Y-87523670D01*
X125633505Y-87401035D01*
X125781035Y-87253505D01*
X125903670Y-87084714D01*
X125929515Y-87033990D01*
X125977489Y-86983194D01*
X126045310Y-86966398D01*
X126111445Y-86988935D01*
X126150485Y-87033990D01*
X126176328Y-87084712D01*
X126243675Y-87177406D01*
X126298965Y-87253505D01*
X126446495Y-87401035D01*
X126615286Y-87523670D01*
X126671527Y-87552326D01*
X126801179Y-87618387D01*
X126801181Y-87618387D01*
X126801184Y-87618389D01*
X126891274Y-87647661D01*
X126999610Y-87682862D01*
X127205676Y-87715500D01*
X127205681Y-87715500D01*
X127414324Y-87715500D01*
X127620389Y-87682862D01*
X127690412Y-87660110D01*
X127818816Y-87618389D01*
X128004714Y-87523670D01*
X128173505Y-87401035D01*
X128321035Y-87253505D01*
X128443670Y-87084714D01*
X128538389Y-86898816D01*
X128602862Y-86700389D01*
X128606767Y-86675736D01*
X128635500Y-86494324D01*
X128635500Y-86285675D01*
X128602862Y-86079610D01*
X128565971Y-85966072D01*
X128538389Y-85881184D01*
X128538387Y-85881181D01*
X128538387Y-85881179D01*
X128469515Y-85746010D01*
X128443670Y-85695286D01*
X128321035Y-85526495D01*
X128173505Y-85378965D01*
X128004714Y-85256330D01*
X127818820Y-85161612D01*
X127620389Y-85097137D01*
X127414324Y-85064500D01*
X127414319Y-85064500D01*
X127205681Y-85064500D01*
X127205676Y-85064500D01*
X126999610Y-85097137D01*
X126801179Y-85161612D01*
X126615285Y-85256330D01*
X126446493Y-85378966D01*
X126298966Y-85526493D01*
X126176330Y-85695285D01*
X126150485Y-85746010D01*
X126102510Y-85796806D01*
X126034690Y-85813601D01*
X125968555Y-85791064D01*
X125929515Y-85746010D01*
X125919574Y-85726499D01*
X125903670Y-85695286D01*
X125781035Y-85526495D01*
X125633505Y-85378965D01*
X125464714Y-85256330D01*
X125278820Y-85161612D01*
X125080389Y-85097137D01*
X124874324Y-85064500D01*
X124874319Y-85064500D01*
X124665681Y-85064500D01*
X124665676Y-85064500D01*
X124459610Y-85097137D01*
X124261179Y-85161612D01*
X124075285Y-85256330D01*
X123906493Y-85378966D01*
X123758966Y-85526493D01*
X123688883Y-85622954D01*
X123633552Y-85665619D01*
X123563939Y-85671598D01*
X123502144Y-85638992D01*
X123478080Y-85606363D01*
X123412425Y-85477507D01*
X123291645Y-85328354D01*
X123199549Y-85253778D01*
X123142494Y-85207576D01*
X122971492Y-85120446D01*
X122971491Y-85120445D01*
X122971490Y-85120445D01*
X122786109Y-85070772D01*
X122706409Y-85064500D01*
X122706402Y-85064500D01*
X121753598Y-85064500D01*
X121753590Y-85064500D01*
X121673890Y-85070772D01*
X121488509Y-85120445D01*
X121317507Y-85207575D01*
X121168354Y-85328354D01*
X121047575Y-85477507D01*
X120960445Y-85648509D01*
X120910772Y-85833890D01*
X120904500Y-85913590D01*
X120904500Y-86866409D01*
X120910773Y-86946111D01*
X120911735Y-86951709D01*
X120909757Y-86952048D01*
X120908307Y-87012962D01*
X120877876Y-87062887D01*
X116354842Y-91585921D01*
X116293519Y-91619406D01*
X116228848Y-91616173D01*
X116214534Y-91611522D01*
X116039995Y-91583878D01*
X116012352Y-91579500D01*
X115807648Y-91579500D01*
X115783329Y-91583351D01*
X115605465Y-91611522D01*
X115410776Y-91674781D01*
X115228386Y-91767715D01*
X115062786Y-91888028D01*
X114918028Y-92032786D01*
X114797715Y-92198386D01*
X114704781Y-92380776D01*
X114641522Y-92575465D01*
X114609500Y-92777648D01*
X114609500Y-92982351D01*
X114641522Y-93184534D01*
X114704781Y-93379223D01*
X114797715Y-93561613D01*
X114918028Y-93727213D01*
X115062786Y-93871971D01*
X115200420Y-93971966D01*
X115228390Y-93992287D01*
X115344607Y-94051503D01*
X115410776Y-94085218D01*
X115410778Y-94085218D01*
X115410781Y-94085220D01*
X115515137Y-94119127D01*
X115605465Y-94148477D01*
X115667087Y-94158237D01*
X115807648Y-94180500D01*
X115807649Y-94180500D01*
X116012351Y-94180500D01*
X116012352Y-94180500D01*
X116214534Y-94148477D01*
X116409219Y-94085220D01*
X116591610Y-93992287D01*
X116702392Y-93911800D01*
X116757213Y-93871971D01*
X116757215Y-93871968D01*
X116757219Y-93871966D01*
X116901966Y-93727219D01*
X116901968Y-93727215D01*
X116901971Y-93727213D01*
X117005963Y-93584078D01*
X117022287Y-93561610D01*
X117115220Y-93379219D01*
X117178477Y-93184534D01*
X117210500Y-92982352D01*
X117210500Y-92777648D01*
X117178477Y-92575466D01*
X117173825Y-92561151D01*
X117171832Y-92491312D01*
X117204075Y-92435158D01*
X121887417Y-87751819D01*
X121948740Y-87718334D01*
X121975098Y-87715500D01*
X122567641Y-87715500D01*
X122634680Y-87735185D01*
X122680435Y-87787989D01*
X122690379Y-87857147D01*
X122661354Y-87920703D01*
X122655322Y-87927181D01*
X119034286Y-91548218D01*
X118922481Y-91660022D01*
X118922475Y-91660030D01*
X118883483Y-91727568D01*
X118883483Y-91727570D01*
X118843423Y-91796954D01*
X118843423Y-91796955D01*
X118802499Y-91949683D01*
X118802499Y-91949685D01*
X118802499Y-92117786D01*
X118802500Y-92117799D01*
X118802500Y-96471330D01*
X118802499Y-96471348D01*
X118802499Y-96637054D01*
X118802498Y-96637054D01*
X118843423Y-96789785D01*
X118861155Y-96820496D01*
X118861156Y-96820500D01*
X118922475Y-96926709D01*
X118922481Y-96926717D01*
X119041349Y-97045585D01*
X119041355Y-97045590D01*
X119610921Y-97615157D01*
X119644406Y-97676480D01*
X119641173Y-97741149D01*
X119636523Y-97755460D01*
X119636523Y-97755462D01*
X119604500Y-97957648D01*
X119604500Y-98162351D01*
X119636522Y-98364534D01*
X119699781Y-98559223D01*
X119750898Y-98659543D01*
X119776719Y-98710221D01*
X119792715Y-98741613D01*
X119913028Y-98907213D01*
X120057786Y-99051971D01*
X120175651Y-99137603D01*
X120223390Y-99172287D01*
X120314840Y-99218883D01*
X120316080Y-99219515D01*
X120366876Y-99267490D01*
X120383671Y-99335311D01*
X120361134Y-99401446D01*
X120316080Y-99440485D01*
X120223386Y-99487715D01*
X120057786Y-99608028D01*
X119913030Y-99752784D01*
X119843575Y-99848384D01*
X119788245Y-99891051D01*
X119743256Y-99899500D01*
X117139602Y-99899500D01*
X117072563Y-99879815D01*
X117029117Y-99831795D01*
X117022284Y-99818385D01*
X116901971Y-99652786D01*
X116757213Y-99508028D01*
X116591613Y-99387715D01*
X116591612Y-99387714D01*
X116591610Y-99387713D01*
X116519278Y-99350858D01*
X116409223Y-99294781D01*
X116214534Y-99231522D01*
X116029304Y-99202185D01*
X116012352Y-99199500D01*
X115807648Y-99199500D01*
X115790696Y-99202185D01*
X115605465Y-99231522D01*
X115410776Y-99294781D01*
X115228386Y-99387715D01*
X115062786Y-99508028D01*
X114918028Y-99652786D01*
X114797715Y-99818386D01*
X114704781Y-100000776D01*
X114641522Y-100195465D01*
X114609500Y-100397648D01*
X114609500Y-100602351D01*
X114641522Y-100804534D01*
X114704781Y-100999223D01*
X114797715Y-101181613D01*
X114918028Y-101347213D01*
X114918034Y-101347219D01*
X115062781Y-101491966D01*
X115228390Y-101612287D01*
X115241793Y-101619116D01*
X115292589Y-101667088D01*
X115309500Y-101729601D01*
X115309500Y-104915500D01*
X115289815Y-104982539D01*
X115237011Y-105028294D01*
X115185501Y-105039500D01*
X115012130Y-105039500D01*
X115012123Y-105039501D01*
X114952516Y-105045908D01*
X114817671Y-105096202D01*
X114817664Y-105096206D01*
X114702455Y-105182452D01*
X114702452Y-105182455D01*
X114616206Y-105297664D01*
X114616202Y-105297671D01*
X114565908Y-105432517D01*
X114559501Y-105492116D01*
X114559501Y-105492123D01*
X114559500Y-105492135D01*
X105315426Y-105492135D01*
X105343766Y-105244736D01*
X105344362Y-105240268D01*
X105441766Y-104600962D01*
X105442527Y-104596521D01*
X105563595Y-103961323D01*
X105564543Y-103956809D01*
X105571383Y-103927011D01*
X105708203Y-103330937D01*
X105709310Y-103326498D01*
X105876286Y-102706451D01*
X105877560Y-102702048D01*
X106067730Y-102088339D01*
X106069070Y-102084267D01*
X106290694Y-101449108D01*
X106292087Y-101445321D01*
X106534677Y-100817597D01*
X106536176Y-100813899D01*
X106799319Y-100194684D01*
X106801074Y-100190748D01*
X106843068Y-100100776D01*
X107119364Y-99508801D01*
X107121358Y-99504728D01*
X107148292Y-99452135D01*
X107464307Y-98835071D01*
X107466425Y-98831115D01*
X107651324Y-98500499D01*
X107833803Y-98174210D01*
X107835950Y-98170520D01*
X108109629Y-97718626D01*
X108111744Y-97715259D01*
X108400171Y-97272305D01*
X108402421Y-97268970D01*
X108402829Y-97268386D01*
X108705163Y-96835641D01*
X108707474Y-96832446D01*
X109024368Y-96408993D01*
X109026465Y-96406272D01*
X109427846Y-95900720D01*
X109429635Y-95898522D01*
X109843511Y-95402733D01*
X109845397Y-95400530D01*
X110271242Y-94915140D01*
X110273265Y-94912892D01*
X110341937Y-94838390D01*
X110711044Y-94437944D01*
X110712489Y-94436405D01*
X110739894Y-94407713D01*
X111597261Y-93510081D01*
X111598028Y-93509286D01*
X112493184Y-92592427D01*
X112493961Y-92591640D01*
X113399453Y-91684311D01*
X113404307Y-91679500D01*
X113610158Y-91475481D01*
X114029781Y-91056024D01*
X114447609Y-90634778D01*
X114609418Y-90470245D01*
X114609420Y-90470245D01*
X114655623Y-90423265D01*
X114655622Y-90423264D01*
X114701825Y-90376285D01*
X114701825Y-90376283D01*
X114708640Y-90369355D01*
X114708648Y-90369344D01*
X114843636Y-90232086D01*
X115217437Y-89847552D01*
X115588998Y-89460855D01*
X115728274Y-89314209D01*
X115728277Y-89314208D01*
X115773654Y-89266430D01*
X115819031Y-89218653D01*
X115819030Y-89218653D01*
X115825356Y-89211994D01*
X115825362Y-89211985D01*
X115928261Y-89103643D01*
X116236204Y-88776866D01*
X116542872Y-88448893D01*
X116684480Y-88296259D01*
X116695562Y-88284315D01*
X116698873Y-88280747D01*
X116712561Y-88265993D01*
X116757174Y-88217908D01*
X116781517Y-88188002D01*
X116871536Y-88077409D01*
X116871536Y-88077407D01*
X116871544Y-88077399D01*
X116976583Y-87929783D01*
X117008164Y-87878695D01*
X117017499Y-87863596D01*
X117024206Y-87852751D01*
X117024207Y-87852752D01*
X117096086Y-87736522D01*
X117223850Y-87494900D01*
X117223860Y-87494878D01*
X117223863Y-87494872D01*
X117271394Y-87388168D01*
X117335067Y-87245230D01*
X117429235Y-86988643D01*
X117467566Y-86857468D01*
X117467567Y-86857468D01*
X117486056Y-86794223D01*
X117486057Y-86794135D01*
X117487855Y-86787978D01*
X117488371Y-86786214D01*
X117488374Y-86786210D01*
X117488378Y-86786189D01*
X117496385Y-86758805D01*
X117533818Y-86556655D01*
X117550612Y-86351755D01*
X117550002Y-86320559D01*
X117546595Y-86146208D01*
X117546595Y-86146207D01*
X117521809Y-85942142D01*
X117521806Y-85942122D01*
X117521806Y-85942120D01*
X117515023Y-85912096D01*
X117513670Y-85906101D01*
X117513671Y-85906085D01*
X117510918Y-85893904D01*
X117510923Y-85893824D01*
X117495750Y-85826787D01*
X117495739Y-85826737D01*
X117482839Y-85769634D01*
X117482735Y-85769286D01*
X117468460Y-85706209D01*
X117382928Y-85441622D01*
X117382924Y-85441614D01*
X117382924Y-85441611D01*
X117273865Y-85185845D01*
X117273857Y-85185829D01*
X117265475Y-85170245D01*
X117142149Y-84940940D01*
X117106115Y-84886362D01*
X117101892Y-84879959D01*
X117101871Y-84879895D01*
X117089846Y-84861693D01*
X117089845Y-84861690D01*
X117074745Y-84838835D01*
X117074743Y-84838832D01*
X117039641Y-84785699D01*
X117039617Y-84785666D01*
X116923001Y-84609135D01*
X116637300Y-84204435D01*
X130551800Y-84204435D01*
X130551800Y-85595570D01*
X130551801Y-85595576D01*
X130558208Y-85655183D01*
X130608502Y-85790028D01*
X130608506Y-85790035D01*
X130694752Y-85905244D01*
X130694755Y-85905247D01*
X130809964Y-85991493D01*
X130809971Y-85991497D01*
X130944817Y-86041791D01*
X130944816Y-86041791D01*
X130951744Y-86042535D01*
X131004427Y-86048200D01*
X131572103Y-86048199D01*
X131639140Y-86067883D01*
X131684895Y-86120687D01*
X131694839Y-86189846D01*
X131665814Y-86253402D01*
X131607036Y-86291176D01*
X131591499Y-86294672D01*
X131431132Y-86320072D01*
X131259241Y-86375923D01*
X131098208Y-86457974D01*
X130952003Y-86564196D01*
X130824196Y-86692003D01*
X130717974Y-86838208D01*
X130635923Y-86999241D01*
X130580072Y-87171132D01*
X130551800Y-87349635D01*
X130551800Y-87530364D01*
X130580053Y-87708750D01*
X130580073Y-87708871D01*
X130635922Y-87880756D01*
X130717840Y-88041529D01*
X130717974Y-88041791D01*
X130824196Y-88187996D01*
X130952003Y-88315803D01*
X131074962Y-88405136D01*
X131098212Y-88422028D01*
X131259244Y-88504078D01*
X131431129Y-88559927D01*
X131609635Y-88588200D01*
X131790365Y-88588200D01*
X131968871Y-88559927D01*
X132140756Y-88504078D01*
X132301788Y-88422028D01*
X132414903Y-88339846D01*
X132447996Y-88315803D01*
X132447998Y-88315800D01*
X132448002Y-88315798D01*
X132575798Y-88188002D01*
X132575800Y-88187998D01*
X132575803Y-88187996D01*
X132643425Y-88094921D01*
X132682028Y-88041788D01*
X132764078Y-87880756D01*
X132819927Y-87708871D01*
X132848200Y-87530365D01*
X132848200Y-87349635D01*
X132819927Y-87171129D01*
X132764078Y-86999244D01*
X132682028Y-86838212D01*
X132671561Y-86823805D01*
X132575803Y-86692003D01*
X132447996Y-86564196D01*
X132301791Y-86457974D01*
X132301790Y-86457973D01*
X132301788Y-86457972D01*
X132140756Y-86375922D01*
X131968871Y-86320073D01*
X131968869Y-86320072D01*
X131968867Y-86320072D01*
X131808499Y-86294672D01*
X131745364Y-86264743D01*
X131708433Y-86205431D01*
X131709431Y-86135568D01*
X131748041Y-86077336D01*
X131812005Y-86049222D01*
X131827890Y-86048199D01*
X132395572Y-86048199D01*
X132455183Y-86041791D01*
X132590031Y-85991496D01*
X132705246Y-85905246D01*
X132791496Y-85790031D01*
X132841791Y-85655183D01*
X132848200Y-85595573D01*
X132848199Y-84204428D01*
X132842999Y-84156057D01*
X132841791Y-84144816D01*
X132791497Y-84009971D01*
X132791493Y-84009964D01*
X132705247Y-83894755D01*
X132705244Y-83894752D01*
X132590035Y-83808506D01*
X132590028Y-83808502D01*
X132455182Y-83758208D01*
X132455183Y-83758208D01*
X132395583Y-83751801D01*
X132395581Y-83751800D01*
X132395573Y-83751800D01*
X132395564Y-83751800D01*
X131004429Y-83751800D01*
X131004423Y-83751801D01*
X130944816Y-83758208D01*
X130809971Y-83808502D01*
X130809964Y-83808506D01*
X130694755Y-83894752D01*
X130694752Y-83894755D01*
X130608506Y-84009964D01*
X130608502Y-84009971D01*
X130558208Y-84144817D01*
X130552440Y-84198476D01*
X130551801Y-84204423D01*
X130551800Y-84204435D01*
X116637300Y-84204435D01*
X116624701Y-84186588D01*
X116313495Y-83773454D01*
X116176575Y-83602927D01*
X116151581Y-83571796D01*
X116151580Y-83571795D01*
X116151580Y-83571794D01*
X116005208Y-83389483D01*
X116005188Y-83389458D01*
X116005165Y-83389430D01*
X115708280Y-83027990D01*
X115407377Y-82669888D01*
X115306471Y-82552488D01*
X115303779Y-82549355D01*
X115303775Y-82549347D01*
X115303774Y-82549346D01*
X115297877Y-82542486D01*
X115297877Y-82542485D01*
X115254935Y-82492528D01*
X115254936Y-82492528D01*
X115211986Y-82442558D01*
X115206841Y-82436572D01*
X115206541Y-82436267D01*
X115194701Y-82422497D01*
X115061477Y-82294553D01*
X115018433Y-82260479D01*
X114916660Y-82179914D01*
X114916653Y-82179909D01*
X114916650Y-82179907D01*
X114761542Y-82079608D01*
X114738076Y-82067433D01*
X114738021Y-82067382D01*
X114679563Y-82037072D01*
X114679564Y-82037072D01*
X114679524Y-82037051D01*
X114679525Y-82037051D01*
X114677642Y-82036075D01*
X114651666Y-82022604D01*
X114614249Y-82003199D01*
X114613918Y-82003054D01*
X114597667Y-81994632D01*
X114426883Y-81925074D01*
X114426882Y-81925073D01*
X114426878Y-81925072D01*
X114250451Y-81871420D01*
X114250448Y-81871419D01*
X114250447Y-81871419D01*
X114069869Y-81834126D01*
X114069849Y-81834122D01*
X114051692Y-81832074D01*
X114051692Y-81832073D01*
X114043769Y-81831179D01*
X114043709Y-81831156D01*
X113981963Y-81824206D01*
X113979719Y-81823953D01*
X113978230Y-81823786D01*
X113909304Y-81816027D01*
X113909304Y-81816026D01*
X113909284Y-81816025D01*
X113734395Y-81796341D01*
X113246361Y-81746270D01*
X112757788Y-81700997D01*
X112757780Y-81700996D01*
X112757744Y-81700993D01*
X112578912Y-81686195D01*
X112578911Y-81686195D01*
X112576361Y-81685984D01*
X112576361Y-81685983D01*
X112528964Y-81682062D01*
X112521792Y-81681469D01*
X112521789Y-81681468D01*
X112513958Y-81680821D01*
X112512517Y-81680693D01*
X111649356Y-81599140D01*
X111646485Y-81598835D01*
X110786162Y-81497288D01*
X110783298Y-81496916D01*
X109925608Y-81375366D01*
X109922753Y-81374928D01*
X109067890Y-81233398D01*
X109065448Y-81232968D01*
X108108332Y-81054771D01*
X108106297Y-81054375D01*
X107152024Y-80860147D01*
X107149996Y-80859716D01*
X106199203Y-80649586D01*
X106197183Y-80649122D01*
X105249983Y-80423114D01*
X105247629Y-80422528D01*
X104067147Y-80116335D01*
X104064466Y-80115607D01*
X102891191Y-79783058D01*
X102888527Y-79782271D01*
X101723552Y-79423690D01*
X101719777Y-79422462D01*
X101102546Y-79210626D01*
X101097702Y-79208850D01*
X100822610Y-79101449D01*
X100490401Y-78971748D01*
X100485654Y-78969780D01*
X100213430Y-78850221D01*
X99888736Y-78707617D01*
X99884056Y-78705444D01*
X99298961Y-78418872D01*
X99293728Y-78416153D01*
X98966589Y-78236156D01*
X98960865Y-78232804D01*
X98644185Y-78035797D01*
X98638647Y-78032143D01*
X98332905Y-77818443D01*
X98327986Y-77814821D01*
X98009986Y-77568382D01*
X98005650Y-77564863D01*
X97876205Y-77454871D01*
X97699007Y-77304302D01*
X97694860Y-77300615D01*
X97400395Y-77026639D01*
X97396348Y-77022697D01*
X97221546Y-76844521D01*
X97124887Y-76745997D01*
X97120979Y-76741825D01*
X96862712Y-76453039D01*
X96858995Y-76448685D01*
X96614792Y-76148852D01*
X96610452Y-76143199D01*
X96421864Y-75882367D01*
X96417107Y-75875287D01*
X96247283Y-75602727D01*
X96243029Y-75595346D01*
X96091711Y-75310567D01*
X96089145Y-75305457D01*
X96010308Y-75138989D01*
X96009095Y-75136348D01*
X95933628Y-74966836D01*
X95932477Y-74964166D01*
X95861526Y-74794181D01*
X95859550Y-74789140D01*
X95824075Y-74692479D01*
X95821587Y-74684967D01*
X95792743Y-74587511D01*
X95790747Y-74579880D01*
X95768136Y-74480522D01*
X95766744Y-74473465D01*
X95746286Y-74351163D01*
X95745387Y-74344767D01*
X95731295Y-74221302D01*
X95730731Y-74214881D01*
X95723015Y-74089723D01*
X95722837Y-74085805D01*
X95715098Y-73825608D01*
X95715069Y-73824361D01*
X95710312Y-73562969D01*
X95710295Y-73561603D01*
X95708559Y-73300849D01*
X95708571Y-73298120D01*
X95715976Y-72815797D01*
X95716100Y-72811885D01*
X95739147Y-72330578D01*
X95739400Y-72326639D01*
X95777955Y-71847770D01*
X95778685Y-71841028D01*
X95822639Y-71518333D01*
X95824304Y-71508874D01*
X95863677Y-71326782D01*
X95892835Y-71191929D01*
X95895221Y-71182654D01*
X95987838Y-70872875D01*
X95991710Y-70861851D01*
X96072409Y-70662781D01*
X96078299Y-70650303D01*
X96180205Y-70462320D01*
X96187448Y-70450574D01*
X96308665Y-70276545D01*
X96319617Y-70262969D01*
X96415876Y-70159498D01*
X96431491Y-70145346D01*
X96542485Y-70060758D01*
X96560275Y-70049455D01*
X96686776Y-69983453D01*
X96700211Y-69977429D01*
X96743954Y-69960864D01*
X96751824Y-69958184D01*
X96799565Y-69943709D01*
X96807631Y-69941559D01*
X96857724Y-69929999D01*
X96863295Y-69928846D01*
X96907629Y-69920738D01*
X96975630Y-69908303D01*
X96978592Y-69907798D01*
X97092933Y-69889754D01*
X97095773Y-69889341D01*
X97210679Y-69874066D01*
X97213532Y-69873720D01*
X97352846Y-69858503D01*
X97355441Y-69858249D01*
X97495180Y-69846138D01*
X97497921Y-69845932D01*
X97637878Y-69836946D01*
X97640227Y-69836819D01*
X97795877Y-69829949D01*
X97798004Y-69829873D01*
X97953831Y-69825748D01*
X97956002Y-69825711D01*
X98011333Y-69825223D01*
X98112390Y-69824332D01*
X98113473Y-69824327D01*
X98178723Y-69824327D01*
X98178739Y-69824321D01*
X98188253Y-69824321D01*
X98437842Y-69824321D01*
X98437844Y-69824321D01*
X99087357Y-69798474D01*
X99735328Y-69746818D01*
X99992602Y-69715972D01*
X99992607Y-69715973D01*
X100058030Y-69708129D01*
X100123453Y-69700285D01*
X100123453Y-69700284D01*
X100135778Y-69698807D01*
X100135811Y-69698799D01*
X100439684Y-69662362D01*
X100818648Y-69608038D01*
X101200676Y-69553276D01*
X101958966Y-69426678D01*
X102053198Y-69408705D01*
X102271810Y-69367011D01*
X102271818Y-69367012D01*
X102279253Y-69365594D01*
X102279259Y-69365594D01*
X102336543Y-69354667D01*
X102336543Y-69354668D01*
X102726404Y-69280305D01*
X103502550Y-69113931D01*
X104274723Y-68929995D01*
X104592741Y-68846574D01*
X104594886Y-68846012D01*
X104594890Y-68846013D01*
X104599686Y-68844755D01*
X104599691Y-68844755D01*
X104658626Y-68829294D01*
X104658626Y-68829295D01*
X105009251Y-68737318D01*
X105423894Y-68614980D01*
X105704583Y-68532165D01*
X105794474Y-68502648D01*
X106393384Y-68305987D01*
X106672233Y-68204946D01*
X106672238Y-68204946D01*
X106734188Y-68182498D01*
X106734187Y-68182497D01*
X106734189Y-68182497D01*
X106734189Y-68182498D01*
X106796139Y-68160050D01*
X106796141Y-68160047D01*
X106798203Y-68159301D01*
X106798204Y-68159300D01*
X106798212Y-68159298D01*
X106805992Y-68156479D01*
X106806035Y-68156459D01*
X106828665Y-68148260D01*
X107016564Y-68076944D01*
X107088953Y-68048210D01*
X107203339Y-68002806D01*
X107204874Y-68002169D01*
X107235319Y-67989549D01*
X107235329Y-67989548D01*
X107296198Y-67964315D01*
X107344243Y-67944398D01*
X107357062Y-67939084D01*
X107357062Y-67939083D01*
X107391795Y-67924685D01*
X107391804Y-67924681D01*
X107412422Y-67916134D01*
X107644163Y-67818086D01*
X107875184Y-67718355D01*
X107930025Y-67694205D01*
X107930027Y-67694205D01*
X107990332Y-67667649D01*
X107990331Y-67667649D01*
X108050634Y-67641096D01*
X108050635Y-67641094D01*
X108061170Y-67636456D01*
X108061186Y-67636447D01*
X108082416Y-67627098D01*
X108082423Y-67627095D01*
X108110426Y-67614764D01*
X108349848Y-67507269D01*
X108349890Y-67507249D01*
X108349963Y-67507217D01*
X108588477Y-67398057D01*
X108588490Y-67398051D01*
X108647693Y-67370437D01*
X108647699Y-67370437D01*
X108707415Y-67342585D01*
X108767131Y-67314733D01*
X108767134Y-67314730D01*
X108813892Y-67292922D01*
X109025816Y-67191415D01*
X109236686Y-67087736D01*
X109275156Y-67068327D01*
X109279735Y-67066018D01*
X109279744Y-67066016D01*
X109341584Y-67034817D01*
X109341584Y-67034818D01*
X109400413Y-67005139D01*
X109400413Y-67005137D01*
X109418274Y-66996127D01*
X109418275Y-66996126D01*
X110735283Y-66331708D01*
X110787942Y-66307173D01*
X110794021Y-66302075D01*
X110801102Y-66298503D01*
X110844408Y-66259822D01*
X110888922Y-66222496D01*
X110893474Y-66215998D01*
X110899390Y-66210715D01*
X110930164Y-66163737D01*
X110932297Y-66160588D01*
X110964544Y-66114568D01*
X110964544Y-66114567D01*
X110964546Y-66114565D01*
X110968173Y-66107601D01*
X110971605Y-66100481D01*
X110971606Y-66100480D01*
X110989189Y-66047091D01*
X110990436Y-66043496D01*
X111552725Y-64500146D01*
X111632441Y-64283994D01*
X111632681Y-64283350D01*
X111714007Y-64068072D01*
X111714253Y-64067427D01*
X111797199Y-63852987D01*
X111797382Y-63852520D01*
X111797383Y-63852519D01*
X111797395Y-63852485D01*
X111888024Y-63623112D01*
X111980075Y-63394513D01*
X111980322Y-63393907D01*
X112073640Y-63166458D01*
X112073790Y-63166096D01*
X112160797Y-62957928D01*
X112161051Y-62957328D01*
X112185420Y-62900088D01*
X112249305Y-62750030D01*
X112249437Y-62749722D01*
X112338917Y-62543330D01*
X112339458Y-62542103D01*
X112401936Y-62402657D01*
X112402753Y-62400875D01*
X112467511Y-62262923D01*
X112468416Y-62261039D01*
X112535255Y-62124949D01*
X112536734Y-62122040D01*
X112933333Y-61367740D01*
X112935516Y-61363770D01*
X113359691Y-60625406D01*
X113362017Y-60621527D01*
X113813463Y-59899572D01*
X113815955Y-59895748D01*
X114294072Y-59191159D01*
X114296700Y-59187437D01*
X114800786Y-58501247D01*
X114803588Y-58497579D01*
X115332805Y-57830908D01*
X115335849Y-57827224D01*
X115418177Y-57731390D01*
X115876126Y-57198311D01*
X115879415Y-57194635D01*
X115880837Y-57193109D01*
X116443907Y-56588593D01*
X116444357Y-56588110D01*
X116447806Y-56584552D01*
X117036645Y-56001223D01*
X117040185Y-55997855D01*
X117652027Y-55438609D01*
X117655699Y-55435385D01*
X118289517Y-54901164D01*
X118293329Y-54898081D01*
X118947900Y-54389905D01*
X118951831Y-54386977D01*
X119619969Y-53910234D01*
X119624061Y-53907439D01*
X120310770Y-53458384D01*
X120315008Y-53455734D01*
X121019416Y-53034924D01*
X121023685Y-53032490D01*
X121744637Y-52640618D01*
X121748984Y-52638367D01*
X122485260Y-52276100D01*
X122489779Y-52273990D01*
X123240158Y-51941926D01*
X123244669Y-51940037D01*
X124014305Y-51635784D01*
X124018828Y-51634098D01*
X124800046Y-51360588D01*
X124804637Y-51359083D01*
X125595982Y-51116826D01*
X125600683Y-51115487D01*
X126401063Y-50904815D01*
X126405810Y-50903666D01*
X127213907Y-50724927D01*
X127218684Y-50723970D01*
X128033023Y-50577479D01*
X128037833Y-50576712D01*
X128445442Y-50519933D01*
X128450204Y-50519365D01*
X128859535Y-50478725D01*
X128864365Y-50478341D01*
X129224999Y-50456852D01*
X129276247Y-50453840D01*
X129276390Y-50453873D01*
X129280778Y-50453656D01*
X129288961Y-50453474D01*
X129290320Y-50453284D01*
X129970083Y-50429745D01*
X129971092Y-50429716D01*
X130663370Y-50412914D01*
X130664359Y-50412895D01*
X131356665Y-50403260D01*
X131357878Y-50403250D01*
X132057609Y-50400883D01*
X132058770Y-50400884D01*
G37*
%TD.AperFunction*%
%TD*%
M02*
