%TF.GenerationSoftware,KiCad,Pcbnew,9.0.2*%
%TF.CreationDate,2026-04-13T23:08:23-07:00*%
%TF.ProjectId,blinkyboard,626c696e-6b79-4626-9f61-72642e6b6963,rev?*%
%TF.SameCoordinates,Original*%
%TF.FileFunction,Soldermask,Bot*%
%TF.FilePolarity,Negative*%
%FSLAX46Y46*%
G04 Gerber Fmt 4.6, Leading zero omitted, Abs format (unit mm)*
G04 Created by KiCad (PCBNEW 9.0.2) date 2026-04-13 23:08:23*
%MOMM*%
%LPD*%
G01*
G04 APERTURE LIST*
G04 Aperture macros list*
%AMRoundRect*
0 Rectangle with rounded corners*
0 $1 Rounding radius*
0 $2 $3 $4 $5 $6 $7 $8 $9 X,Y pos of 4 corners*
0 Add a 4 corners polygon primitive as box body*
4,1,4,$2,$3,$4,$5,$6,$7,$8,$9,$2,$3,0*
0 Add four circle primitives for the rounded corners*
1,1,$1+$1,$2,$3*
1,1,$1+$1,$4,$5*
1,1,$1+$1,$6,$7*
1,1,$1+$1,$8,$9*
0 Add four rect primitives between the rounded corners*
20,1,$1+$1,$2,$3,$4,$5,0*
20,1,$1+$1,$4,$5,$6,$7,0*
20,1,$1+$1,$6,$7,$8,$9,0*
20,1,$1+$1,$8,$9,$2,$3,0*%
G04 Aperture macros list end*
%ADD10RoundRect,0.250000X-0.550000X-0.550000X0.550000X-0.550000X0.550000X0.550000X-0.550000X0.550000X0*%
%ADD11C,1.600000*%
%ADD12RoundRect,0.412500X-0.412500X-0.412500X0.412500X-0.412500X0.412500X0.412500X-0.412500X0.412500X0*%
%ADD13C,1.650000*%
%ADD14C,1.295400*%
%ADD15R,1.295400X1.295400*%
%ADD16R,1.700000X1.700000*%
%ADD17C,1.700000*%
%ADD18C,2.000000*%
%ADD19R,1.800000X1.800000*%
%ADD20C,1.800000*%
G04 APERTURE END LIST*
D10*
%TO.C,C1*%
X134654888Y-113890000D03*
D11*
X136654888Y-113890000D03*
%TD*%
D12*
%TO.C,RV1*%
X122230000Y-86390000D03*
D13*
X124770000Y-86390000D03*
X127310000Y-86390000D03*
%TD*%
D14*
%TO.C,U2*%
X131700000Y-102680000D03*
X139320000Y-84900000D03*
X139320000Y-87440000D03*
X139320000Y-89980000D03*
X139320000Y-92520000D03*
X139320000Y-95060000D03*
X139320000Y-97600000D03*
X139320000Y-100140000D03*
X139320000Y-102680000D03*
X131700000Y-100140000D03*
X131700000Y-97600000D03*
X131700000Y-95060000D03*
X131700000Y-92520000D03*
X131700000Y-89980000D03*
X131700000Y-87440000D03*
D15*
X131700000Y-84900000D03*
%TD*%
D16*
%TO.C,J1*%
X115910000Y-106390000D03*
D17*
X115910000Y-108930000D03*
%TD*%
D11*
%TO.C,U1*%
X128525000Y-92980000D03*
X128525000Y-95520000D03*
X128525000Y-98060000D03*
X128525000Y-100600000D03*
X120905000Y-100600000D03*
X120905000Y-98060000D03*
X120905000Y-95520000D03*
D10*
X120905000Y-92980000D03*
%TD*%
D11*
%TO.C,R1*%
X115910000Y-92880000D03*
X115910000Y-100500000D03*
%TD*%
D18*
%TO.C,C2*%
X121910000Y-106190000D03*
X126910000Y-106190000D03*
%TD*%
D11*
%TO.C,R2*%
X139420000Y-105990000D03*
X131800000Y-105990000D03*
%TD*%
D16*
%TO.C,J2*%
X143300000Y-91400000D03*
%TD*%
D19*
%TO.C,D1*%
X123430000Y-66300000D03*
D20*
X125970000Y-66300000D03*
%TD*%
D19*
%TO.C,D9*%
X147660000Y-113900000D03*
D20*
X150200000Y-113900000D03*
%TD*%
D19*
%TO.C,D5*%
X171460000Y-97100000D03*
D20*
X174000000Y-97100000D03*
%TD*%
D19*
%TO.C,D2*%
X148360000Y-103300000D03*
D20*
X150900000Y-103300000D03*
%TD*%
D19*
%TO.C,D6*%
X169930000Y-106000000D03*
D20*
X172470000Y-106000000D03*
%TD*%
D19*
%TO.C,D4*%
X163360000Y-98600000D03*
D20*
X165900000Y-98600000D03*
%TD*%
D19*
%TO.C,D8*%
X155800000Y-115100000D03*
D20*
X158340000Y-115100000D03*
%TD*%
D19*
%TO.C,D10*%
X142160000Y-108700000D03*
D20*
X144700000Y-108700000D03*
%TD*%
D19*
%TO.C,D3*%
X155760000Y-100400000D03*
D20*
X158300000Y-100400000D03*
%TD*%
D19*
%TO.C,D7*%
X163700000Y-111600000D03*
D20*
X166240000Y-111600000D03*
%TD*%
M02*
